<?xml version="1.0" encoding="UTF-8"?>
<svg version="1.1" xmlns="http://www.w3.org/2000/svg" width="1280" height="1280">
<path d="M0 0 C14.0759328 2.76726495 28.56786294 2.85949115 42.85627979 2.80464405 C44.78058022 2.80480058 46.70488075 2.8058441 48.62918031 2.8076843 C53.85643641 2.81018896 59.08360414 2.80036029 64.31084424 2.78833634 C69.97227258 2.77755771 75.63370094 2.77853449 81.29513782 2.77806324 C91.08996662 2.77570998 100.88476675 2.76617035 110.67958492 2.75175899 C124.87032123 2.73098144 139.06104542 2.72237935 153.25179493 2.71683764 C176.31897551 2.70759705 199.38614029 2.69018483 222.45331043 2.66681141 C223.84545658 2.66540385 225.23760273 2.66399646 226.62974887 2.66258924 C227.31948859 2.66189164 228.0092283 2.66119404 228.71986922 2.6604753 C232.20881577 2.65694692 235.69776231 2.65342265 239.18670887 2.64990467 C240.22427779 2.64885698 240.22427779 2.64885698 241.2828077 2.64778812 C257.33573407 2.63162066 273.38866223 2.6179934 289.44159168 2.60528797 C290.472768 2.6044688 290.472768 2.6044688 291.52477616 2.60363307 C307.25065294 2.59116294 322.97652997 2.5799084 338.70240921 2.57103103 C339.36523457 2.57065564 340.02805994 2.57028025 340.71097092 2.56989348 C347.98677291 2.56578582 355.26257498 2.56186959 362.53837717 2.55811632 C376.67980772 2.55055892 390.82122382 2.53886097 404.962646 2.52165466 C414.6653523 2.51001912 424.36805743 2.50187734 434.07076914 2.49638916 C439.65386986 2.49308348 445.23695589 2.48812858 450.8200497 2.47857517 C489.24873046 2.41501028 489.24873046 2.41501028 505.75480884 2.88847584 C506.80167742 2.91063319 507.84854599 2.93279055 508.92713785 2.95561934 C514.8741393 3.17435621 519.44960318 4.16452305 524.90374988 6.57086414 C524.90374988 7.23086414 524.90374988 7.89086414 524.90374988 8.57086414 C525.56374988 8.57086414 526.22374988 8.57086414 526.90374988 8.57086414 C531.07732122 15.74940683 530.27413949 23.19793415 528.26312488 31.08258289 C527.046918 34.58241228 525.75489213 37.20320736 522.90374988 39.57086414 C520.21624988 39.75836414 520.21624988 39.75836414 517.90374988 39.57086414 C517.90374988 40.23086414 517.90374988 40.89086414 517.90374988 41.57086414 C506.75982965 41.59402331 495.61591513 41.61179751 484.47197574 41.62267631 C479.29753244 41.62789729 474.12310559 41.63498076 468.94867176 41.64630359 C463.95608334 41.65716028 458.96351076 41.6631469 453.97091144 41.66574138 C452.06511158 41.6675906 450.1593126 41.6712016 448.25351948 41.6765942 C445.58645475 41.68384148 442.91945567 41.68485352 440.2523827 41.68438953 C439.06770908 41.68978245 439.06770908 41.68978245 437.85910267 41.69528431 C434.35267232 41.68867334 431.28242209 41.44542599 427.90374988 40.57086414 C425.98159783 40.47972422 424.05657648 40.44296936 422.13226551 40.44146961 C420.97005481 40.43831745 419.80784412 40.43516529 418.61041492 40.43191761 C417.35627796 40.43394184 416.102141 40.43596607 414.80999988 40.43805164 C413.51235706 40.43709491 412.21471424 40.43613819 410.87774891 40.43515247 C408.12728923 40.43367859 405.37686203 40.43581734 402.62640613 40.44049305 C399.13463173 40.44614513 395.64293497 40.44293835 392.15116352 40.43692058 C388.78743649 40.43238885 385.4237291 40.43558617 382.05999988 40.43805164 C380.82205677 40.43602741 379.58411365 40.43400318 378.30865711 40.43191761 C377.12122913 40.43506977 375.93380115 40.43822193 374.71039051 40.44146961 C373.16961841 40.442663 373.16961841 40.442663 371.59771961 40.4438805 C368.52117973 40.54963942 365.51824762 40.78251113 362.45602745 41.07086414 C356.08373144 41.60866453 349.76533974 41.71079287 343.37333912 41.69784778 C342.17028285 41.69940777 340.96722658 41.70096776 339.72771406 41.70257503 C336.42397992 41.70584895 333.12030348 41.70470405 329.81657296 41.70158881 C326.23985101 41.69931122 322.66313383 41.70282598 319.08641285 41.70556873 C312.09392552 41.71000016 305.10144896 41.70906171 298.10896122 41.70615609 C292.42331882 41.70389189 286.73767942 41.70359393 281.0520367 41.70467991 C280.24088233 41.70483314 279.42972796 41.70498637 278.59399315 41.70514425 C276.9458366 41.70546399 275.29768005 41.70578821 273.6495235 41.70611684 C258.21878483 41.70896389 242.78805211 41.70569668 227.35731442 41.70031647 C214.13312521 41.69584829 200.90894479 41.69662599 187.68475574 41.70123523 C172.30529173 41.70659323 156.92583293 41.70869016 141.54636812 41.70562297 C139.90479451 41.70530444 138.26322091 41.70499007 136.6216473 41.70467991 C135.81408657 41.70452563 135.00652583 41.70437136 134.17449356 41.7042124 C128.49886066 41.70335099 122.82323107 41.70480201 117.14759868 41.70715946 C110.2264576 41.70997123 103.30532785 41.70919016 96.38418805 41.70387872 C92.85674643 41.7012604 89.32932367 41.70020481 85.80188221 41.70352787 C81.97030327 41.70708272 78.13875485 41.7028226 74.30717701 41.69784778 C72.65160885 41.70119387 72.65160885 41.70119387 70.96259487 41.70460755 C65.03385487 41.68972177 59.25022319 41.40199133 53.36222315 40.68749362 C50.69865942 40.56113469 48.49454007 40.97793295 45.90374988 41.57086414 C44.19819186 41.66730967 42.48966565 41.71860225 40.78143543 41.73199695 C39.28914669 41.74640827 39.28914669 41.74640827 37.7667107 41.76111072 C36.70205082 41.7653606 35.63739094 41.76961048 34.54046863 41.77398914 C33.43451847 41.77968921 32.3285683 41.78538929 31.1891045 41.79126209 C28.85156434 41.80069642 26.51401097 41.80723984 24.17645496 41.81109852 C20.61461231 41.8208005 17.05334777 41.85183807 13.49164051 41.88336414 C11.2162533 41.88989515 8.94086197 41.89514524 6.66546863 41.89898914 C5.60688144 41.91133594 4.54829426 41.92368274 3.45762867 41.93640369 C-3.08351114 41.91685744 -9.62465035 41.72119792 -14.74000317 37.07922596 C-17.98693792 33.46811928 -18.38596273 30.1484374 -18.65875012 25.38336414 C-18.5641449 21.66078957 -18.5641449 21.66078957 -20.09625012 18.57086414 C-20.50846386 10.18918475 -20.50846386 10.18918475 -18.09625012 6.57086414 C-17.10625012 6.57086414 -16.11625012 6.57086414 -15.09625012 6.57086414 C-14.91062512 5.36430164 -14.91062512 5.36430164 -14.72125012 4.13336414 C-14.51500012 3.28773914 -14.30875012 2.44211414 -14.09625012 1.57086414 C-11.7499895 0.39773383 -9.89077699 0.21946516 -7.28375012 -0.05413586 C-6.4316798 -0.14952648 -5.57960949 -0.24491711 -4.70171887 -0.34319836 C-2.09625012 -0.42913586 -2.09625012 -0.42913586 0 0 Z " fill="#FEFEFE" transform="translate(366.0962501168251,421.4291358590126)"/>
<path d="M0 0 C0.89690651 -0.00551417 1.79381302 -0.01102833 2.71789852 -0.0167096 C5.72111595 -0.030297 8.72350464 -0.01541139 11.7267065 -0.00063419 C13.90239559 -0.00452731 16.07808213 -0.01016784 18.25376266 -0.01740509 C24.23089341 -0.03217588 30.20776115 -0.02196866 36.18488348 -0.00766838 C42.63143967 0.00342812 49.07795857 -0.00849679 55.52451229 -0.01751041 C67.42251119 -0.03141467 79.32042432 -0.02565535 91.21841969 -0.01143513 C102.20934809 0.00161639 113.2002462 0.00681267 124.19118214 0.00424671 C124.9202211 0.0040863 125.64926006 0.00392588 126.40039111 0.0037606 C129.35978315 0.00309702 132.31917518 0.00239461 135.2785672 0.00163526 C163.03909668 -0.00538862 190.79957284 0.01010225 218.56008875 0.03625872 C243.22590984 0.05937617 267.89167231 0.06476105 292.55750179 0.05452633 C298.87419825 0.05192434 305.19089471 0.04933933 311.50759125 0.04692841 C312.67406687 0.04648223 312.67406687 0.04648223 313.86410765 0.04602705 C334.47313811 0.03841328 355.08216377 0.04482327 375.69119209 0.05562443 C377.9085576 0.05677223 380.1259231 0.05791541 382.34328861 0.05905125 C383.81423702 0.0598065 385.28518542 0.06057214 386.75613382 0.06134826 C397.74108645 0.0670079 408.72602391 0.06567576 419.7109766 0.06112003 C432.19997335 0.05601417 444.68890929 0.06215617 457.17789216 0.08201433 C463.55235788 0.09189968 469.92673113 0.09697796 476.30120182 0.08912182 C482.1332356 0.08208113 487.96508251 0.08883199 493.7970916 0.10672545 C495.91001466 0.11078038 498.02295466 0.10975266 500.13587148 0.10320658 C503.00263037 0.09508325 505.8687555 0.10533618 508.73547363 0.12025452 C509.97269489 0.11014804 509.97269489 0.11014804 511.23491052 0.09983739 C516.48442543 0.15285033 520.1415168 1.04116459 524.80481625 3.50057125 C528.47237101 7.6115394 528.34529663 12.0592566 528.30481625 17.31307125 C528.30199642 18.11535152 528.2991766 18.9176318 528.29627132 19.74422359 C528.12545585 25.96851072 527.16484724 29.83635205 522.80481625 34.50057125 C521.81481625 34.50057125 520.82481625 34.50057125 519.80481625 34.50057125 C519.80481625 35.16057125 519.80481625 35.82057125 519.80481625 36.50057125 C518.48481625 36.50057125 517.16481625 36.50057125 515.80481625 36.50057125 C515.80481625 37.16057125 515.80481625 37.82057125 515.80481625 38.50057125 C514.47833871 38.50000167 514.47833871 38.50000167 513.12506366 38.49942058 C460.28650385 38.47686431 407.44794457 38.45979603 354.60938089 38.44950592 C348.21342574 38.44825576 341.8174706 38.44696138 335.42151546 38.44563961 C334.14861334 38.4453773 332.87571122 38.44511499 331.56423631 38.44484473 C311.16412581 38.44053629 290.76401824 38.43267643 270.36390945 38.42341845 C249.30911295 38.41394566 228.25431794 38.40848742 207.1995194 38.40648276 C195.42500205 38.40525375 183.65049075 38.40237279 171.87597561 38.39484119 C159.68435773 38.38720858 147.49274599 38.38410437 135.30112582 38.38647015 C133.16885992 38.38685232 131.03659398 38.38707696 128.90432805 38.38713996 C105.2596966 38.38841044 81.61989501 38.47478807 57.9773016 38.80016232 C56.98347966 38.81358566 55.98965772 38.82700901 54.96571997 38.84083913 C45.53039215 38.96880917 36.0953789 39.1050111 26.66077149 39.27867046 C23.30413145 39.33886594 19.94739717 39.39118882 16.59060234 39.44193034 C15.0504259 39.46730072 13.51030651 39.49647727 11.97028214 39.52982469 C9.87260939 39.57516584 7.77509386 39.60768483 5.67714977 39.63737488 C4.51087653 39.65928644 3.3446033 39.68119801 2.14298844 39.70377356 C-4.83083233 39.27926086 -11.88455977 36.95513541 -16.81237125 31.81307125 C-20.53872965 25.58142105 -20.93884098 15.77537255 -19.32018375 8.81307125 C-18.61335662 6.22286296 -17.85888946 4.94656438 -15.62120462 3.44289785 C-10.28277305 0.59139173 -5.99972485 -0.07039795 0 0 Z " fill="#FDFDFD" transform="translate(368.1951837539673,600.4994287490845)"/>
<path d="M0 0 C1.40475586 -0.00193359 1.40475586 -0.00193359 2.83789062 -0.00390625 C3.81822266 -0.00003906 4.79855469 0.00382813 5.80859375 0.0078125 C6.79279297 0.00394531 7.77699219 0.00007812 8.79101562 -0.00390625 C10.19383789 -0.00197266 10.19383789 -0.00197266 11.625 0 C12.48681885 0.00112793 13.3486377 0.00225586 14.23657227 0.00341797 C16.24609375 0.1328125 16.24609375 0.1328125 17.24609375 1.1328125 C19.7577279 1.58742728 22.27561375 1.96806253 24.80078125 2.33984375 C27.88243008 3.33916438 28.57711985 4.394745 30.24609375 7.1328125 C30.63427734 9.43530273 30.63427734 9.43530273 30.64453125 11.94140625 C30.64839844 12.85341797 30.65226563 13.76542969 30.65625 14.70507812 C30.63884766 16.12336914 30.63884766 16.12336914 30.62109375 17.5703125 C30.63269531 18.51197266 30.64429688 19.45363281 30.65625 20.42382812 C30.61662619 29.78165093 30.61662619 29.78165093 27.24609375 33.1328125 C21.21534861 35.888528 15.47822794 36.56696558 8.92506886 36.51312923 C7.57752893 36.52011911 7.57752893 36.52011911 6.20276597 36.5272502 C3.20076689 36.53917487 0.1992225 36.52981447 -2.80278015 36.52049255 C-4.98004408 36.52466654 -7.15730583 36.53014441 -9.33456355 36.53681237 C-15.31131849 36.55127654 -21.28793564 36.54701918 -27.26469815 36.53964555 C-33.71258093 36.53491877 -40.1604337 36.54741924 -46.60830688 36.55766296 C-58.50664976 36.57446313 -70.40495087 36.57629478 -82.30330281 36.57135797 C-93.29357013 36.56680017 -104.28382111 36.56740079 -115.27408791 36.57319832 C-116.74849561 36.57395518 -118.22290331 36.57471116 -119.69731102 36.57546626 C-121.91909542 36.57661145 -124.14087981 36.57776133 -126.3626642 36.57892551 C-147.01478351 36.58962854 -167.66689738 36.59435753 -188.31901836 36.58645535 C-189.48650122 36.58600959 -189.48650122 36.58600959 -190.67756959 36.58555482 C-196.99807605 36.58310589 -203.31858246 36.5804943 -209.63908886 36.57787069 C-234.30507271 36.56776344 -258.97098852 36.57613351 -283.63696289 36.59936523 C-311.34966499 36.62542431 -339.06232612 36.63828982 -366.77504092 36.63117748 C-369.72841791 36.63046141 -372.68179489 36.62978703 -375.63517189 36.62913704 C-376.36236915 36.62896723 -377.08956641 36.62879742 -377.83879996 36.62862247 C-388.82466945 36.62631774 -399.81050095 36.63430449 -410.79636192 36.64742851 C-423.28427262 36.66232032 -435.77208775 36.66283321 -448.25999673 36.6453576 C-454.63437606 36.63681637 -461.0085849 36.63477423 -467.38295555 36.65000916 C-473.21370519 36.66377272 -479.04413692 36.65920093 -484.87486777 36.63976992 C-486.9884187 36.63598398 -489.10199459 36.63900578 -491.21552344 36.64938157 C-494.08087136 36.66245221 -496.94510579 36.65105684 -499.81040478 36.63338375 C-500.63756012 36.64303426 -501.46471545 36.65268477 -502.31693611 36.66262773 C-507.55849003 36.59590838 -510.63732806 35.67525818 -514.75390625 32.1328125 C-516.73309724 27.26681335 -517.25287713 22.27039943 -517.62890625 17.0703125 C-517.70109375 16.38904297 -517.77328125 15.70777344 -517.84765625 15.00585938 C-518.22669451 9.81403265 -517.04751214 7.0959976 -513.75390625 3.1328125 C-510.56879438 1.54025656 -507.12475824 1.99124999 -503.62662506 1.99694061 C-502.77228785 1.99439799 -501.91795065 1.99185537 -501.03772444 1.9892357 C-498.143506 1.98185247 -495.24932978 1.98163919 -492.35510254 1.98132324 C-490.27177679 1.97747647 -488.18845182 1.97318959 -486.10512781 1.96849775 C-480.35571349 1.95681705 -474.6063071 1.95136403 -468.85688329 1.94686294 C-462.66595065 1.94092967 -456.47502867 1.92925824 -450.28410339 1.91822815 C-439.54928309 1.89985171 -428.81446395 1.88499752 -418.07963562 1.87245178 C-402.55652504 1.8542498 -387.03342966 1.82954202 -371.51033121 1.80307788 C-364.28419348 1.79076732 -357.05805522 1.77877633 -349.83191681 1.76686859 C-349.10846293 1.76567607 -348.38500905 1.76448354 -347.63963233 1.76325488 C-330.41096262 1.7349299 -313.18228855 1.70973491 -295.95361328 1.68505859 C-295.19954501 1.6839774 -294.44547674 1.6828962 -293.66855792 1.68178224 C-281.43073815 1.66423969 -269.19291811 1.64688673 -256.95509803 1.62955725 C-245.48813163 1.61331732 -234.02116533 1.59700796 -222.55419922 1.58056641 C-221.42369563 1.57894721 -221.42369563 1.57894721 -220.27035359 1.5772953 C-203.07219842 1.55264578 -185.8740452 1.52710541 -168.67589569 1.49875641 C-167.95359898 1.49756616 -167.23130227 1.49637591 -166.48711778 1.49514959 C-159.27735205 1.48324839 -152.06758659 1.47119076 -144.85782151 1.45889938 C-129.34994725 1.43249588 -113.84207563 1.40884997 -98.33418934 1.39072599 C-87.03149878 1.37747521 -75.72881887 1.36076837 -64.42613804 1.34063089 C-58.29741962 1.32983966 -52.16871004 1.32073318 -46.03998375 1.31593513 C-40.43809892 1.31152448 -34.83624069 1.30260783 -29.2343685 1.28999192 C-27.19941536 1.28623446 -25.16445824 1.28419387 -23.12950164 1.28397173 C-20.38003195 1.28343598 -17.63064337 1.27686713 -14.88118744 1.26868439 C-13.67463435 1.27064716 -13.67463435 1.27064716 -12.44370645 1.27264959 C-8.01659951 1.25182057 -4.38182734 0.00572734 0 0 Z " fill="#FEFEFE" transform="translate(865.75390625,779.8671875)"/>
</svg>
