<?xml version="1.0" encoding="UTF-8"?>
<svg version="1.1" xmlns="http://www.w3.org/2000/svg" width="1280" height="1280">
<path d="M0 0 C0.33 0.33 0.66 0.66 1 1 C3.01311449 1.39569108 5.03597208 1.74252191 7.0625 2.0625 C8.16722656 2.23910156 9.27195312 2.41570312 10.41015625 2.59765625 C11.26480469 2.73042969 12.11945313 2.86320312 13 3 C13 3.66 13 4.32 13 5 C13.55042969 5.12890625 14.10085938 5.2578125 14.66796875 5.390625 C25.73407832 8.28227172 34.27394049 12.56632548 41 22 C42.375 24.9375 42.375 24.9375 43 27 C43.66 27 44.32 27 45 27 C48.42857143 34.28571429 48.42857143 34.28571429 48 39 C48.66 39 49.32 39 50 39 C51.96439709 45.02909295 53.31282319 50.70087927 54 57 C54.33 57.33 54.66 57.66 55 58 C55.15881605 59.72638924 55.27689227 61.4565993 55.375 63.1875 C55.75991468 67.74725853 56.33822959 71.15522053 59 75 C61.05093145 76.40466953 61.05093145 76.40466953 63 77 C63 77.66 63 78.32 63 79 C64.2375 79.12375 65.475 79.2475 66.75 79.375 C69.8762197 79.75746305 72.28879237 80.30549523 75 82 C75 82.66 75 83.32 75 84 C76.4540625 84.0928125 76.4540625 84.0928125 77.9375 84.1875 C84.89314105 85.17511638 90.76078517 89.5546056 96 94 C96.66 94.33 97.32 94.66 98 95 C98 95.66 98 96.32 98 97 C98.53625 97.0825 99.0725 97.165 99.625 97.25 C102.87340691 98.27581271 105.28751859 99.96563894 108 102 C108 102.66 108 103.32 108 104 C108.8353125 104.37125 108.8353125 104.37125 109.6875 104.75 C112.42410913 106.22924818 114.67650869 107.93467439 117 110 C117 110.66 117 111.32 117 112 C117.556875 112.226875 118.11375 112.45375 118.6875 112.6875 C122.56458163 114.88800579 125.41085584 117.50981184 127.0625 121.6875 C127.75928739 124.13780009 127.75928739 124.13780009 129.875 124.9375 C133.02940174 126.51470087 134.14902136 129.05000279 136 132 C136.7425 132.9075 137.485 133.815 138.25 134.75 C140 137 140 137 140 139 C140.66 139 141.32 139 142 139 C142.86625 140.7634375 142.86625 140.7634375 143.75 142.5625 C145.1590871 145.39577157 146.6432675 148.14929308 148.25 150.875 C150 154 150 154 150 156 C150.66 156 151.32 156 152 156 C152.33 158.64 152.66 161.28 153 164 C153.66 164 154.32 164 155 164 C158 170.625 158 170.625 158 174 C158.66 174 159.32 174 160 174 C160.73689883 176.44159145 161.47080957 178.88398426 162.19921875 181.328125 C162.84826988 183.49373949 163.51517918 185.6539963 164.1875 187.8125 C164.92625945 190.71071015 165.17992457 193.03124453 165 196 C165.66 196 166.32 196 167 196 C167.13277344 196.78246094 167.26554687 197.56492187 167.40234375 198.37109375 C167.57894531 199.38300781 167.75554687 200.39492188 167.9375 201.4375 C168.11152344 202.44683594 168.28554688 203.45617187 168.46484375 204.49609375 C168.74751097 206.9287438 168.74751097 206.9287438 170 208 C170.14115161 210.67058851 170.04247107 213.32432238 170 216 C170.66 216 171.32 216 172 216 C172.96872554 237.1250981 173.13703053 258.20634295 173.10139394 279.34961414 C173.09502335 283.78709054 173.09454602 288.22456808 173.09336853 292.66204834 C173.09029473 301.01574901 173.08213625 309.36943615 173.07201904 317.72313094 C173.06073309 327.25443138 173.05531642 336.78573257 173.05032361 346.31703806 C173.039949 365.87803296 173.02242849 385.43901538 173 405 C173.66 405 174.32 405 175 405 C175.4640625 406.6396875 175.4640625 406.6396875 175.9375 408.3125 C176.58337897 410.55407994 177.2623117 412.7869351 178 415 C178.66 415.33 179.32 415.66 180 416 C180.66 416.33 181.32 416.66 182 417 C182.33 417.99 182.66 418.98 183 420 C183.66 420.33 184.32 420.66 185 421 C185.66 421.33 186.32 421.66 187 422 C187.33 422.99 187.66 423.98 188 425 C189.65 425.33 191.3 425.66 193 426 C193 426.66 193 427.32 193 428 C193.66 428 194.32 428 195 428 C195 428.66 195 429.32 195 430 C195.99 430.33 196.98 430.66 198 431 C198 431.66 198 432.32 198 433 C198.66 433 199.32 433 200 433 C200 433.66 200 434.32 200 435 C200.61875 435.309375 201.2375 435.61875 201.875 435.9375 C203.25 436.625 204.625 437.3125 206 438 C206 438.66 206 439.32 206 440 C206.8353125 440.37125 206.8353125 440.37125 207.6875 440.75 C210.42410913 442.22924818 212.67650869 443.93467439 215 446 C215 446.66 215 447.32 215 448 C215.639375 448.268125 216.27875 448.53625 216.9375 448.8125 C219 450 219 450 220 453 C221.051875 453.3403125 221.051875 453.3403125 222.125 453.6875 C228.72257117 456.69943466 233.33210287 464.01421641 236.0625 470.5390625 C237.2749813 475.01513931 237.25419164 479.1377464 237.1875 483.75 C237.18685547 484.61238281 237.18621094 485.47476562 237.18554688 486.36328125 C237.14079241 492.71841518 237.14079241 492.71841518 236 495 C235.833956 498.32456989 235.703384 501.64237886 235.65820312 504.97070312 C235.51852803 508.48207004 235.09923317 510.82825922 233.33203125 513.88671875 C228.61407146 518.16212285 223.28392226 518.2763709 217.18310547 518.13525391 C216.40305491 518.12579805 215.62300436 518.1163422 214.81931591 518.10659981 C213.09457272 518.08439989 211.36988642 518.05740321 209.64528084 518.02629852 C206.75914145 517.97462816 203.87305901 517.93609898 200.98667908 517.90045166 C196.63465223 517.84573729 192.28273128 517.78608833 187.93081665 517.7230835 C175.2681135 517.54312718 162.60478978 517.41758121 149.94140625 517.296875 C148.88299628 517.28667241 148.88299628 517.28667241 147.8032043 517.27626371 C102.4741977 516.84151457 57.14317995 516.86740825 11.8125 516.875 C10.71627555 516.87513832 9.62005111 516.87527663 8.49060774 516.87541914 C-51.24371304 516.88317873 -110.97687665 516.99660914 -170.70990372 517.40616608 C-173.77610028 517.42717338 -176.84229988 517.44757038 -179.90850449 517.46736908 C-188.46251883 517.52264645 -197.01646063 517.58302052 -205.57036972 517.65281487 C-208.10352348 517.67303778 -210.636689 517.69184566 -213.16986465 517.70910835 C-216.58245807 517.73299122 -219.99494282 517.76291203 -223.4074707 517.79467773 C-224.39011996 517.80043257 -225.37276922 517.8061874 -226.38519573 517.81211662 C-230.31755216 517.85446064 -234.12855407 517.94872747 -238.01652527 518.56629944 C-242.26376382 519.18371031 -243.90492012 517.75691779 -247.26953125 515.39453125 C-251.12147716 512.29036717 -252.24436409 509.81077173 -253 505 C-253.2170616 500.30423402 -253.22806849 495.60828892 -253.24023438 490.90820312 C-253.24994033 488.63895002 -253.28099921 486.37060353 -253.3125 484.1015625 C-253.31903141 482.64323449 -253.32428134 481.18490007 -253.328125 479.7265625 C-253.3374707 478.41252441 -253.34681641 477.09848633 -253.35644531 475.74462891 C-252.95139093 471.48933838 -251.86693552 468.80719293 -250 465 C-249.34 465 -248.68 465 -248 465 C-247.67 463.35 -247.34 461.7 -247 460 C-246.34 460 -245.68 460 -245 460 C-245 459.34 -245 458.68 -245 458 C-244.34 458 -243.68 458 -243 458 C-243 457.34 -243 456.68 -243 456 C-239.80973467 453.67980703 -236.58273331 451.65356922 -233 450 C-233 449.34 -233 448.68 -233 448 C-228.61538462 445 -228.61538462 445 -226 445 C-225.67 444.01 -225.34 443.02 -225 442 C-224.34 442 -223.68 442 -223 442 C-223 441.34 -223 440.68 -223 440 C-222.34 440 -221.68 440 -221 440 C-221 439.34 -221 438.68 -221 438 C-219.34467377 436.98133771 -217.67739862 435.98189187 -216 435 C-215.67 434.34 -215.34 433.68 -215 433 C-214.34 433 -213.68 433 -213 433 C-213 432.34 -213 431.68 -213 431 C-212.34 431 -211.68 431 -211 431 C-210.731875 430.360625 -210.46375 429.72125 -210.1875 429.0625 C-209 427 -209 427 -206 426 C-205.71253906 425.41476562 -205.42507813 424.82953125 -205.12890625 424.2265625 C-203.60630534 421.22350881 -201.48048 419.56306049 -198.9375 417.375 C-195.48348875 414.56907909 -195.48348875 414.56907909 -193 411 C-192.34 411 -191.68 411 -191 411 C-190.99576806 410.18424374 -190.99153612 409.36848747 -190.98717594 408.52801132 C-190.88392612 388.690032 -190.77529684 368.85208852 -190.66066074 349.0141716 C-190.60535397 339.4207557 -190.55187613 329.82733609 -190.50268555 320.23388672 C-190.45981255 311.87343277 -190.41352666 303.51300591 -190.36312145 295.15259385 C-190.33654565 290.72476191 -190.31169317 286.29693527 -190.29092598 281.86907196 C-190.27133166 277.70276888 -190.24717948 273.53651727 -190.21950912 269.37026024 C-190.21015351 267.84002047 -190.20247288 266.30976943 -190.19658089 264.77951241 C-190.18829437 262.69204282 -190.17401065 260.60469728 -190.15821838 258.51727295 C-190.15176583 257.34843945 -190.14531328 256.17960594 -190.1386652 254.97535324 C-190.02069015 252.44395064 -189.67811883 250.41773037 -189 248 C-188.85180932 245.68463068 -188.75238023 243.36596189 -188.68359375 241.046875 C-188.66281265 240.38665344 -188.64203156 239.72643188 -188.62062073 239.04620361 C-188.55549853 236.94756985 -188.49641498 234.84881628 -188.4375 232.75 C-188.39427921 231.32290453 -188.3506638 229.89582095 -188.30664062 228.46875 C-188.19985589 224.97929278 -188.09848434 221.48970247 -188 218 C-187.34 218 -186.68 218 -186 218 C-186.03480469 217.39414062 -186.06960938 216.78828125 -186.10546875 216.1640625 C-186.31636761 209.63624064 -185.37700238 204.09645687 -183 198 C-182.67 197.67 -182.34 197.34 -182 197 C-181.67465441 195.15144551 -181.39011757 193.29564858 -181.125 191.4375 C-180.29347385 186.25268987 -178.99280417 181.82420919 -177 177 C-176.26333158 175.00275097 -175.53446091 173.00261241 -174.8125 171 C-174.46832031 170.05125 -174.12414062 169.1025 -173.76953125 168.125 C-173.51558594 167.42375 -173.26164062 166.7225 -173 166 C-172.34 166 -171.68 166 -171 166 C-170.67 163.69 -170.34 161.38 -170 159 C-169.34 159 -168.68 159 -168 159 C-168 158.01 -168 157.02 -168 156 C-167.34 156 -166.68 156 -166 156 C-165.9175 155.13375 -165.835 154.2675 -165.75 153.375 C-164.89008133 149.50536598 -163.28040293 147.20681662 -161 144 C-160.67 143.01 -160.34 142.02 -160 141 C-159.34 141 -158.68 141 -158 141 C-157.5359375 139.824375 -157.5359375 139.824375 -157.0625 138.625 C-156 136 -156 136 -155 134 C-154.34 134 -153.68 134 -153 134 C-153 133.34 -153 132.68 -153 132 C-152.34 132 -151.68 132 -151 132 C-150.896875 131.41476562 -150.79375 130.82953125 -150.6875 130.2265625 C-149.89217247 127.65078584 -148.81181388 126.35231611 -147 124.375 C-144.72782776 121.87625688 -144.72782776 121.87625688 -143 119 C-142.34 119 -141.68 119 -141 119 C-141 118.34 -141 117.68 -141 117 C-139.625 115.375 -139.625 115.375 -138 114 C-137.34 114 -136.68 114 -136 114 C-136 113.34 -136 112.68 -136 112 C-134.625 110.375 -134.625 110.375 -133 109 C-132.34 109 -131.68 109 -131 109 C-131 108.34 -131 107.68 -131 107 C-129.13671875 105.30859375 -129.13671875 105.30859375 -126.6875 103.4375 C-125.48673828 102.50744141 -125.48673828 102.50744141 -124.26171875 101.55859375 C-122 100 -122 100 -119 99 C-119 98.34 -119 97.68 -119 97 C-116.09451118 94.95830515 -114.59857954 94 -111 94 C-111 93.34 -111 92.68 -111 92 C-110.34 92 -109.68 92 -109 92 C-108.67 91.01 -108.34 90.02 -108 89 C-106.68 89 -105.36 89 -104 89 C-104 88.34 -104 87.68 -104 87 C-97.375 84 -97.375 84 -94 84 C-94 83.34 -94 82.68 -94 82 C-92.33496966 81.22563847 -90.66787338 80.45571885 -89 79.6875 C-87.49953125 78.99140625 -87.49953125 78.99140625 -85.96875 78.28125 C-83.47728125 77.20598454 -81.10073188 76.42502098 -78.5 75.6875 C-74.7097103 74.28343769 -74.7097103 74.28343769 -73.125 70.5 C-72.24251731 67.46578484 -71.73586465 64.4309578 -71.25 61.3125 C-69.73102055 51.9321357 -66.11691045 42.94585689 -63 34 C-62.34 34 -61.68 34 -61 34 C-60.9175 33.46375 -60.835 32.9275 -60.75 32.375 C-58.93103487 26.61494377 -54.33248402 21.18394171 -50 17 C-49.34 17 -48.68 17 -48 17 C-48 16.34 -48 15.68 -48 15 C-35.99714055 2.37910714 -16.57830405 -0.9914702 0 0 Z M-26 98 C-27.95070302 98.17311727 -29.90441828 98.31411893 -31.859375 98.4296875 C-32.97570312 98.50316406 -34.09203125 98.57664062 -35.2421875 98.65234375 C-37.5646829 98.79976272 -39.887614 98.94048342 -42.2109375 99.07421875 C-48.16051869 99.4776961 -53.46658751 100.12283638 -59.05151367 102.26733398 C-62.29109204 103.4854739 -65.63526302 104.20469853 -69 105 C-69 105.66 -69 106.32 -69 107 C-69.70125 107.12375 -70.4025 107.2475 -71.125 107.375 C-74.17656387 108.03838345 -77.05340938 108.97211955 -80 110 C-80 110.66 -80 111.32 -80 112 C-81.175625 112.4640625 -81.175625 112.4640625 -82.375 112.9375 C-84.92330128 113.92875038 -84.92330128 113.92875038 -87 115 C-87 115.66 -87 116.32 -87 117 C-87.556875 117.103125 -88.11375 117.20625 -88.6875 117.3125 C-92.20194025 118.35733359 -95.03042417 120.03042417 -97.625 122.625 C-99 124 -99 124 -102 125 C-102 125.66 -102 126.32 -102 127 C-102.66 127 -103.32 127 -104 127 C-104 127.66 -104 128.32 -104 129 C-104.54527344 129.21785156 -105.09054687 129.43570313 -105.65234375 129.66015625 C-108.77697811 131.44343343 -111.08486215 133.87292749 -113.5625 136.4375 C-114.04396484 136.92798828 -114.52542969 137.41847656 -115.02148438 137.92382812 C-116.35116691 139.27911665 -117.67577222 140.63938123 -119 142 C-119.60714844 142.56847656 -120.21429688 143.13695312 -120.83984375 143.72265625 C-122.22411157 144.95915517 -122.22411157 144.95915517 -122 147 C-122.66 147 -123.32 147 -124 147 C-126.31592022 150.22114157 -126.31592022 150.22114157 -127 154 C-127.66 154 -128.32 154 -129 154 C-129.86625 155.546875 -129.86625 155.546875 -130.75 157.125 C-132.15728756 159.60785734 -133.61849164 161.89337682 -135.25 164.25 C-137.26843775 166.87856388 -137.26843775 166.87856388 -137 170 C-137.66 170 -138.32 170 -139 170 C-139.226875 170.763125 -139.45375 171.52625 -139.6875 172.3125 C-140.80667396 175.4568459 -142.09648389 178.26288625 -143.5625 181.25 C-146.01676563 186.51223425 -146.86221724 191.22564988 -147 197 C-147.66 197 -148.32 197 -149 197 C-149.268125 198.134375 -149.53625 199.26875 -149.8125 200.4375 C-150.55342387 203.4410133 -151.4471725 206.31294912 -152.5014801 209.21990967 C-154.04273258 213.82779164 -154.75950356 218.21292925 -155.16381836 223.04394531 C-155.24337989 223.96792744 -155.32294142 224.89190956 -155.4049139 225.84389114 C-156.58767812 241.66573594 -156.33983441 257.58507266 -156.3717854 273.44087124 C-156.38385941 278.28346916 -156.40768709 283.12600927 -156.43040466 287.96856689 C-156.47174885 297.11447243 -156.50430994 306.26038344 -156.53287882 315.40633702 C-156.58418065 331.80561988 -156.64629543 348.20485712 -156.71821922 364.60406232 C-156.7429977 370.3465932 -156.76249059 376.08910993 -156.77760136 381.8316741 C-156.78784875 385.40270392 -156.80199292 388.97371118 -156.81707764 392.54472351 C-156.82319846 394.19179499 -156.82767705 395.83887358 -156.83033562 397.48595428 C-156.86537605 418.03024164 -156.86537605 418.03024164 -159 426 C-159.66 426 -160.32 426 -161 426 C-161 426.66 -161 427.32 -161 428 C-161.89912109 428.39058594 -161.89912109 428.39058594 -162.81640625 428.7890625 C-165.14938374 430.08284251 -166.29777781 431.29468764 -167.9375 433.375 C-170.38504801 436.35756478 -172.97521316 438.59568225 -176 441 C-177.2375 442.5159375 -177.2375 442.5159375 -178.5 444.0625 C-180.92439895 446.91116876 -182.81247686 448.16717419 -186 450 C-189.8359041 453.44444695 -189.8359041 453.44444695 -192 458 C-193.33333333 458.66666667 -194.66666667 459.33333333 -196 460 C-196.33 460.99 -196.66 461.98 -197 463 C-198.32844524 463.67635454 -199.66303624 464.34064415 -201 465 C-202.91158834 466.64593781 -204.78392905 468.33804675 -206.625 470.0625 C-211.80555556 474.90277778 -211.80555556 474.90277778 -214 476 C-214.92393164 477.86196946 -214.92393164 477.86196946 -215 480 C-213.97342283 481.75175097 -213.97342283 481.75175097 -212 483 C-208.90339416 483.45271613 -208.90339416 483.45271613 -205.28296661 483.37473011 C-204.59323578 483.37879084 -203.90350495 483.38285156 -203.19287318 483.38703534 C-200.864423 483.39704017 -198.53656725 483.38552085 -196.20812988 483.3742218 C-194.52888248 483.37696037 -192.84963679 483.38101069 -191.17039537 483.38626546 C-186.54245796 483.39689099 -181.9147126 483.38869837 -177.28678346 483.37751496 C-172.30103845 483.36869902 -167.31531929 483.3771089 -162.32957458 483.38337708 C-152.55717943 483.39288237 -142.78485793 483.38625011 -133.01246822 483.37411413 C-121.64147706 483.36051709 -110.27050361 483.36212996 -98.89950639 483.36424746 C-78.61609457 483.36743988 -58.33271783 483.35575517 -38.04931641 483.33618164 C-18.34976127 483.31717641 1.34975275 483.31009378 21.04931641 483.31567383 C42.48066173 483.32172642 63.91198895 483.32156409 85.34333277 483.310188 C87.6269242 483.30898066 89.91051563 483.30777467 92.19410706 483.30657005 C93.31779283 483.30596651 94.44147861 483.30536298 95.59921548 483.30474115 C103.53273407 483.30085558 111.46624593 483.30125809 119.39976501 483.3031559 C129.0629056 483.30527416 138.72601009 483.30008182 148.38914049 483.28554235 C153.32309827 483.27827975 158.25700339 483.27423716 163.19096565 483.27878571 C167.70237582 483.28284366 172.21367696 483.27774961 176.72507054 483.26515963 C178.36230215 483.26221676 179.99954396 483.26268625 181.63677305 483.26680271 C183.85230309 483.27186992 186.06746273 483.26477521 188.28296661 483.25447559 C189.51657063 483.25360882 190.75017465 483.25274204 192.0211606 483.251849 C195.18422448 483.22575109 195.18422448 483.22575109 198 481 C197.54450953 476.69814558 194.78124777 474.40305847 191.8125 471.5625 C191.31218262 471.07313965 190.81186523 470.5837793 190.29638672 470.07958984 C186.98941073 466.87142574 183.57757482 463.896132 180 461 C177.51989001 458.5803805 175.10453121 456.10735638 172.6875 453.625 C170.51330181 451.50136456 168.30846869 449.53314401 166 447.5625 C162.60566425 444.63045251 159.87345356 441.44814427 157 438 C155.72741407 436.83301163 154.43402493 435.68846205 153.125 434.5625 C151.75 433.375 150.375 432.1875 149 431 C148.34 430.4328125 147.68 429.865625 147 429.28125 C146.38125 428.7140625 145.7625 428.146875 145.125 427.5625 C144.57070313 427.06878906 144.01640625 426.57507813 143.4453125 426.06640625 C139.79523618 420.84778362 139.7055144 414.05505656 139.72825623 407.89212036 C139.72062597 406.72863833 139.72062597 406.72863833 139.71284157 405.54165161 C139.69827557 402.9640768 139.69764926 400.38669496 139.69702148 397.80908203 C139.6893536 395.95222608 139.68080596 394.09537359 139.67144775 392.23852539 C139.65321301 388.24987537 139.64114635 384.26127182 139.63390923 380.27258682 C139.62239067 373.9598206 139.59691914 367.64715691 139.56959534 361.33444214 C139.52798808 351.3451693 139.49555674 341.35589146 139.46712118 331.36657321 C139.41613744 313.48827125 139.35380365 295.6100131 139.28178078 277.73178375 C139.25694215 271.46239868 139.2374727 265.19302681 139.22239864 258.92361093 C139.21215476 255.01606308 139.19800814 251.10853588 139.18292236 247.20100403 C139.17679557 245.39591334 139.17232027 243.59081614 139.16966438 241.78571701 C139.55238367 225.55895479 139.55238367 225.55895479 135.75390625 209.99609375 C134.94123411 207.84440741 134.45823823 205.75268375 134 203.5 C133.24297399 199.81580676 132.0998693 196.50115077 130.70703125 193.015625 C129.97477962 190.92810102 129.57495965 188.92603602 129.1875 186.75 C128.1448542 181.59070096 125.78460123 177.22807177 123.33984375 172.6015625 C122 170 122 170 121 167 C120.34 167 119.68 167 119 167 C118.67 165.35 118.34 163.7 118 162 C117.34 162 116.68 162 116 162 C116 161.01 116 160.02 116 159 C115.34 159 114.68 159 114 159 C113.7421875 158.27039063 113.484375 157.54078125 113.21875 156.7890625 C111.95384439 153.89437467 110.48441765 151.82188786 108.5 149.375 C106.54847024 146.95212619 104.72828558 144.59242838 103 142 C102.34 142 101.68 142 101 142 C101 141.34 101 140.68 101 140 C99.66666667 138.33333333 99.66666667 138.33333333 98 137 C97.34 137 96.68 137 96 137 C96 136.34 96 135.68 96 135 C94.66666667 133.33333333 94.66666667 133.33333333 93 132 C92.34 132 91.68 132 91 132 C91 131.34 91 130.68 91 130 C88.52551737 127.76150345 85.72658699 125.91854217 83 124 C82.22140625 123.44183594 81.4428125 122.88367188 80.640625 122.30859375 C79.87234375 121.77363281 79.1040625 121.23867188 78.3125 120.6875 C77.60738281 120.19636719 76.90226562 119.70523438 76.17578125 119.19921875 C73.78076263 117.8791636 71.69194109 117.40072678 69 117 C69 116.34 69 115.68 69 115 C66.09451118 112.95830515 64.59857954 112 61 112 C61 111.34 61 110.68 61 110 C59.24623047 109.38511719 59.24623047 109.38511719 57.45703125 108.7578125 C55.90883441 108.21359785 54.36065843 107.6693239 52.8125 107.125 C52.04357422 106.85558594 51.27464844 106.58617187 50.48242188 106.30859375 C44.40233768 104.16882163 44.40233768 104.16882163 41.44921875 102.9296875 C33.85643516 100.04757826 26.35467675 99.47803204 18.3125 98.9375 C16.10006837 98.78266817 13.88781839 98.62521313 11.67578125 98.46484375 C10.70552002 98.399021 9.73525879 98.33319824 8.7355957 98.26538086 C6 98 6 98 3.46557617 97.47924805 C0.87744139 96.97617759 -1.49044296 96.87062815 -4.125 96.8671875 C-5.07890625 96.86589844 -6.0328125 96.86460937 -7.015625 96.86328125 C-8.49289062 96.86908203 -8.49289062 96.86908203 -10 96.875 C-10.98484375 96.87113281 -11.9696875 96.86726563 -12.984375 96.86328125 C-14.41523437 96.86521484 -14.41523437 96.86521484 -15.875 96.8671875 C-16.73867188 96.86831543 -17.60234375 96.86944336 -18.4921875 96.87060547 C-21.08680394 97.00447879 -23.45682302 97.48199962 -26 98 Z " fill="#FDFDFD" transform="translate(630,322)"/>
<path d="M0 0 C0.495 0.495 0.495 0.495 1 1 C2.093125 1.12375 3.18625 1.2475 4.3125 1.375 C7.91045315 1.98482257 9.54842107 2.35229476 12 5 C12 6.32 12 7.64 12 9 C12.66 9 13.32 9 14 9 C14.4155144 14.09005138 13.68808428 16.72321311 11.08691406 21.04907227 C9.24418579 24.35662879 8.0253964 27.88135647 6.75 31.4375 C6.481875 32.16904297 6.21375 32.90058594 5.9375 33.65429688 C5.28604973 35.43415208 4.64221224 37.21679069 4 39 C3.34 39 2.68 39 2 39 C1.74863281 39.5671875 1.49726562 40.134375 1.23828125 40.71875 C-1.96484335 46.61977451 -7.46259307 52.25410708 -13 56 C-13.66 56 -14.32 56 -15 56 C-15 56.66 -15 57.32 -15 58 C-24.38351611 62.92958911 -34.40654118 66.32739944 -45 67 C-45.9178125 67.19207031 -46.835625 67.38414062 -47.78125 67.58203125 C-58.99298298 69.03792376 -72.09309387 63.93417893 -82 59 C-83.91796875 57.4375 -83.91796875 57.4375 -85 56 C-85 55.34 -85 54.68 -85 54 C-85.804375 53.6596875 -85.804375 53.6596875 -86.625 53.3125 C-91.93093212 50.38027436 -95.46067107 46.76074265 -98.7265625 41.74609375 C-100.00363008 39.8738223 -100.00363008 39.8738223 -102.0234375 38.1484375 C-104.38276902 35.58394672 -105.04158414 33.5205623 -106 30.1875 C-107.11303902 26.54803907 -108.1847565 23.38717303 -110.25 20.1875 C-112.34517348 16.37129116 -112.62449347 14.29339262 -112 10 C-109.87692431 5.98132101 -108.23060268 3.6437623 -104 2 C-94.21584836 0.56726151 -84.12577842 0.87388729 -74.25788879 0.92483521 C-71.7179379 0.93782376 -69.17804036 0.94416933 -66.63806152 0.94897461 C-61.25868326 0.96027906 -55.87935026 0.979559 -50.5 1 C-44.23144347 1.02368437 -37.96291151 1.04400977 -31.69432068 1.05593872 C-29.20051676 1.06238556 -26.70679109 1.07488308 -24.2130127 1.08764648 C-22.68172268 1.09127941 -21.15043196 1.0946311 -19.61914062 1.09765625 C-18.9333493 1.10282257 -18.24755798 1.10798889 -17.54098511 1.11331177 C-11.60688458 1.11396102 -5.93024935 -0.27582555 0 0 Z " fill="#FDFDFD" transform="translate(671,865)"/>
</svg>
