<?xml version="1.0" encoding="UTF-8"?>
<svg version="1.1" xmlns="http://www.w3.org/2000/svg" width="1280" height="1280">
<path d="M0 0 C1.35879645 0.00370067 2.71759419 0.00694819 4.07639271 0.00978523 C7.795655 0.01884484 11.51486735 0.03427448 15.23410308 0.05076802 C19.25895239 0.06748065 23.28381824 0.07821538 27.3086853 0.0896759 C34.3064048 0.11039911 41.30410335 0.13484771 48.30180168 0.16175652 C58.56070649 0.20115643 68.8196246 0.23433985 79.07855571 0.26605178 C95.91208991 0.31821409 112.7456068 0.37466676 129.57911682 0.43409729 C168.90729838 0.57290828 208.23550773 0.70349868 247.56373596 0.8283844 C248.51767964 0.83141443 249.47162332 0.83444446 250.45447439 0.83756632 C301.72778897 1.00014895 353.00109931 1.14849924 404.27469065 1.17580613 C409.00342775 1.17850934 413.73215607 1.18371092 418.46088982 1.18998528 C446.23151657 1.22474 473.97032029 1.08866767 501.72808647 0.19981194 C507.19482224 0.02971706 512.66227977 -0.10247015 518.13014221 -0.23020935 C518.93774207 -0.26038934 519.74534193 -0.29056932 520.57741451 -0.32166386 C524.01677507 -0.35552815 526.29114882 -0.03236972 529.34107971 1.6018219 C534.96320585 8.04595565 534.92338513 15.30081004 534.8139801 23.42359924 C534.8112056 24.53346191 534.80843109 25.64332458 534.80557251 26.78681946 C534.793341 30.43499364 534.76028162 34.08268329 534.72779846 37.73072815 C534.71711875 40.27040495 534.70806317 42.81008905 534.70056152 45.34977722 C534.67549047 52.70244654 534.62979359 60.05485712 534.58097076 67.40739441 C534.51584668 77.42330724 534.46683938 87.43922909 534.43220329 97.45529556 C534.4154499 101.19690643 534.38590402 104.93827278 534.35549927 108.67979431 C534.34504476 110.95897696 534.33508394 113.23816194 534.32569885 115.51734924 C534.31379517 116.56357452 534.30189148 117.6097998 534.28962708 118.68772888 C534.28804092 119.63813049 534.28645477 120.5885321 534.28482056 121.56773376 C534.27621049 122.81039536 534.27621049 122.81039536 534.26742649 124.07816124 C534.32282308 126.31256906 534.32282308 126.31256906 536.50514221 128.08229065 C538.35031605 127.38599863 540.19542791 126.6895421 542.04029846 125.9924469 C543.70775504 125.37672997 545.38265146 124.78085618 547.06373596 124.2033844 C553.1285036 122.09964062 558.74483954 119.53754443 564.44654846 116.5940094 C567.54438801 115.0628933 570.67435488 113.7451533 573.88014221 112.45729065 C577.16159732 111.13529635 580.08240997 109.85461466 582.94264221 107.76979065 C585.76959323 105.90813998 587.19064058 105.69234928 590.50514221 106.08229065 C590.50514221 105.42229065 590.50514221 104.76229065 590.50514221 104.08229065 C591.14580627 103.9121344 591.78647034 103.74197815 592.44654846 103.56666565 C596.71407979 102.37099368 600.63116663 101.19312678 604.44264221 98.89479065 C607.50514221 97.08229065 607.50514221 97.08229065 610.50514221 97.08229065 C610.50514221 96.42229065 610.50514221 95.76229065 610.50514221 95.08229065 C613.41941178 93.76442105 616.33695016 92.4539489 619.25514221 91.14479065 C620.08014221 90.77160706 620.90514221 90.39842346 621.75514221 90.01393127 C622.95397034 89.47735901 622.95397034 89.47735901 624.17701721 88.9299469 C624.91017151 88.60002747 625.64332581 88.27010803 626.3986969 87.93019104 C628.42006528 87.11653638 630.38081084 86.55459752 632.50514221 86.08229065 C632.50514221 85.42229065 632.50514221 84.76229065 632.50514221 84.08229065 C633.29018127 83.75615784 634.07522034 83.43002502 634.88404846 83.0940094 C637.05425579 82.19130966 639.22348843 81.28626391 641.39186096 80.37916565 C643.14047404 79.6507597 644.89133883 78.92753062 646.64967346 78.22291565 C650.62363767 76.60821236 653.96937265 74.49304262 657.50514221 72.08229065 C661.86223954 70.62992487 665.95603348 70.45733322 670.50514221 71.08229065 C674.72225683 73.89370039 675.98843295 76.7112445 677.11396217 81.56701851 C677.94822747 86.93131131 677.77189418 92.35591934 677.74806213 97.77149963 C677.74910839 99.15402501 677.75101956 100.53654997 677.75372028 101.9190731 C677.75849405 105.68208581 677.75076905 109.44498096 677.74072266 113.20797944 C677.73206436 117.22302316 677.73468722 121.23806206 677.73573303 125.25311279 C677.73575719 133.00068059 677.72448029 140.74819101 677.70847785 148.49574083 C677.69565769 154.72655448 677.68636394 160.95736383 677.67936707 167.18818665 C677.65214825 190.71217094 677.59523967 214.23597949 677.51319885 237.75983524 C677.50539483 240.00946822 677.49779415 242.2591018 677.49024963 244.50873566 C677.43375965 261.2259048 677.34833076 277.94256414 677.21510696 294.65930557 C677.19271739 297.69709006 677.17542268 300.73486494 677.15953064 303.77268982 C677.13421065 308.45506278 677.09433268 313.1370747 677.04214478 317.8192234 C677.02566647 319.48253107 677.01387956 321.14589389 677.00747681 322.80927086 C676.96783708 332.0404167 676.71104273 340.67048961 672.50514221 349.08229065 C660.98350212 349.45131115 660.98350212 349.45131115 655.50514221 347.08229065 C655.50514221 346.42229065 655.50514221 345.76229065 655.50514221 345.08229065 C654.87607971 345.0565094 654.24701721 345.03072815 653.59889221 345.00416565 C647.2749912 344.58511197 642.99955895 343.23649285 637.50514221 340.08229065 C637.50514221 339.42229065 637.50514221 338.76229065 637.50514221 338.08229065 C636.94826721 337.95725159 636.39139221 337.83221252 635.81764221 337.7033844 C633.28709538 337.0237274 630.93432829 336.12609295 628.50514221 335.14479065 C627.65951721 334.80576721 626.81389221 334.46674377 625.94264221 334.1174469 C623.74662217 333.18484223 621.6244753 332.17629824 619.50514221 331.08229065 C619.50514221 330.42229065 619.50514221 329.76229065 619.50514221 329.08229065 C618.18514221 329.08229065 616.86514221 329.08229065 615.50514221 329.08229065 C615.50514221 328.42229065 615.50514221 327.76229065 615.50514221 327.08229065 C614.68014221 326.99979065 613.85514221 326.91729065 613.00514221 326.83229065 C608.73760301 325.91781796 605.31277327 324.16005887 601.50514221 322.08229065 C601.50514221 321.42229065 601.50514221 320.76229065 601.50514221 320.08229065 C599.85514221 320.08229065 598.20514221 320.08229065 596.50514221 320.08229065 C596.50514221 319.42229065 596.50514221 318.76229065 596.50514221 318.08229065 C595.43264221 317.95854065 594.36014221 317.83479065 593.25514221 317.70729065 C590.12650606 317.18585129 588.17033797 316.68140811 585.50514221 315.08229065 C585.50514221 314.42229065 585.50514221 313.76229065 585.50514221 313.08229065 C584.45326721 313.14416565 584.45326721 313.14416565 583.38014221 313.20729065 C580.12142593 313.06560733 577.54914751 312.21494378 574.50514221 311.08229065 C574.50514221 310.42229065 574.50514221 309.76229065 574.50514221 309.08229065 C573.26764221 308.95854065 572.03014221 308.83479065 570.75514221 308.70729065 C567.62892251 308.3248276 565.21634984 307.77679542 562.50514221 306.08229065 C562.50514221 305.42229065 562.50514221 304.76229065 562.50514221 304.08229065 C561.18514221 304.08229065 559.86514221 304.08229065 558.50514221 304.08229065 C558.50514221 303.42229065 558.50514221 302.76229065 558.50514221 302.08229065 C557.65951721 301.97916565 556.81389221 301.87604065 555.94264221 301.76979065 C552.16364278 301.01399076 549.02986262 299.62035046 545.50514221 298.08229065 C542.72625608 297.39088543 542.72625608 297.39088543 540.50514221 297.08229065 C540.50514221 296.42229065 540.50514221 295.76229065 540.50514221 295.08229065 C538.52514221 294.42229065 536.54514221 293.76229065 534.50514221 293.08229065 C534.50736282 294.25101212 534.50958344 295.41973358 534.51187134 296.62387085 C534.60359262 346.56618774 534.69280568 396.51004532 534.15771103 446.45026779 C534.13011568 449.14738431 534.10631324 451.84451052 534.08354187 454.54167175 C534.0475586 458.73494979 534.00161402 462.92799318 533.94714165 467.12107086 C533.92874874 468.6411713 533.91354498 470.16131421 533.90178108 471.68148041 C533.88510268 473.73323002 533.85493826 475.78485705 533.82398987 477.83644104 C533.8106662 478.97851517 533.79734253 480.12058929 533.78361511 481.29727173 C533.50514221 484.08229065 533.50514221 484.08229065 531.50514221 487.08229065 C530.84514221 487.08229065 530.18514221 487.08229065 529.50514221 487.08229065 C529.50514221 487.74229065 529.50514221 488.40229065 529.50514221 489.08229065 C528.84514221 489.08229065 528.18514221 489.08229065 527.50514221 489.08229065 C527.50514221 489.74229065 527.50514221 490.40229065 527.50514221 491.08229065 C475.8783447 491.11652779 424.25154634 491.14836897 372.6247406 491.16697693 C371.86063369 491.16725304 371.09652677 491.16752916 370.3092651 491.16781364 C353.70311779 491.17379947 337.09697035 491.17933983 320.49082274 491.18442131 C312.34715837 491.18691598 304.20349403 491.18950909 296.05982971 491.19215393 C294.84424172 491.19254621 294.84424172 491.19254621 293.6040964 491.19294641 C267.33750707 491.20146893 241.07092635 491.21649142 214.80434223 491.23488509 C187.8117586 491.25375283 160.81917972 491.26606213 133.8265896 491.27012063 C130.01397451 491.27069694 126.20135943 491.27134821 122.38874435 491.27204514 C121.63836787 491.27217998 120.88799139 491.27231483 120.11487623 491.27245376 C108.03645222 491.27481709 95.95804293 491.28409292 83.87962492 491.29595472 C71.73640004 491.3077326 59.59318975 491.31222575 47.44995935 491.3092934 C40.87064091 491.30790627 34.29135726 491.30999959 27.71204567 491.3207016 C21.68898964 491.33042737 15.66600593 491.33092986 9.64294659 491.32408844 C7.46377759 491.32324275 5.2846041 491.32578547 3.10544397 491.33205701 C0.14215868 491.34008949 -2.8208659 491.33575261 -5.78414726 491.32838631 C-7.05148142 491.33626735 -7.05148142 491.33626735 -8.34441829 491.3443076 C-14.25275197 491.31114713 -19.74434622 490.41812623 -25.49485779 489.08229065 C-25.49485779 488.42229065 -25.49485779 487.76229065 -25.49485779 487.08229065 C-26.11360779 486.97916565 -26.73235779 486.87604065 -27.36985779 486.76979065 C-29.49485779 486.08229065 -29.49485779 486.08229065 -31.49485779 483.08229065 C-33.65298516 471.1662982 -32.5456845 458.32270987 -32.42478943 446.27735901 C-32.40474969 443.87349336 -32.38520672 441.46962352 -32.36611938 439.06575012 C-32.31855224 433.22465504 -32.26597341 427.38362051 -32.21130092 421.54258799 C-32.14731587 414.66944842 -32.09021945 407.79625637 -32.03359347 400.92305285 C-31.93176187 388.57839031 -31.8254176 376.23377119 -31.71580505 363.88917542 C-31.70598496 362.78304821 -31.70598496 362.78304821 -31.69596647 361.654575 C-31.68941438 360.91661344 -31.68286228 360.17865189 -31.67611164 359.41832787 C-31.66287282 357.92720577 -31.64963505 356.43608366 -31.63639832 354.94496155 C-31.62984658 354.2069454 -31.62329485 353.46892926 -31.61654458 352.70854899 C-31.39910005 328.18803426 -31.1896251 303.6674476 -30.98503751 279.14682242 C-30.97334671 277.74601336 -30.96164212 276.34520441 -30.94992381 274.94439557 C-30.67071839 241.56618175 -30.39339536 208.18846028 -30.39720154 174.80885315 C-30.3968648 173.53375822 -30.39652805 172.25866329 -30.39618111 170.94492912 C-30.39870885 154.00989399 -30.61812874 137.08256698 -30.92843819 120.15084457 C-31.3611356 96.49596531 -31.68369452 72.8424135 -31.78196716 49.18363953 C-31.79669545 45.80172833 -31.82097886 42.42009835 -31.85374451 39.03831482 C-31.8917718 35.06555402 -31.91026355 31.09317415 -31.91380882 27.12023735 C-31.91831089 25.65335807 -31.92961614 24.1864816 -31.94820595 22.71971321 C-31.972521 20.70138829 -31.96929652 18.68278833 -31.96482849 16.6643219 C-31.97069473 15.53228333 -31.97656097 14.40024475 -31.98260498 13.23390198 C-31.24723441 8.48225552 -28.9759539 5.30948457 -25.30735779 2.26979065 C-17.59692201 -0.98572668 -8.21304166 -0.04481352 0 0 Z M12.50514221 45.08229065 C11.73806527 48.18092272 11.73806527 48.18092272 11.83326721 51.76197815 C11.82051758 52.41175629 11.80776794 53.06153442 11.79463196 53.73100281 C11.75833168 55.80687419 11.75562358 57.88113006 11.75514221 59.95729065 C11.73345062 62.02570434 11.70484713 64.0938774 11.67280579 66.16215515 C11.64703887 68.04409997 11.63862818 69.92625865 11.63111877 71.80836487 C11.51951267 74.70882596 11.12401327 77.25865362 10.50514221 80.08229065 C10.41351156 82.43504236 10.37510578 84.79026067 10.38014221 87.14479065 C10.37756409 88.35264221 10.37498596 89.56049377 10.37232971 90.8049469 C10.37645937 93.87000771 10.37645937 93.87000771 10.99586487 95.91383362 C11.63871854 98.65104663 11.70525049 101.24455166 11.78639221 104.0549469 C11.82377502 105.20156799 11.86115784 106.34818909 11.89967346 107.52955627 C11.97009982 109.94361546 12.04041196 112.35767797 12.11061096 114.77174377 C12.16668518 116.48974182 12.16668518 116.48974182 12.22389221 118.2424469 C12.25418518 119.29053528 12.28447815 120.33862366 12.31568909 121.41847229 C12.40178159 124.18575847 12.40178159 124.18575847 13.50514221 127.08229065 C13.60145896 128.87961761 13.63891068 130.68032827 13.64380741 132.48022747 C13.64928186 133.60785399 13.6547563 134.73548051 13.66039664 135.89727753 C13.6618638 137.76349777 13.6618638 137.76349777 13.6633606 139.66741943 C13.66829857 140.98488657 13.67323655 142.3023537 13.67832416 143.65974408 C13.69192571 147.32426967 13.69932946 150.98878596 13.70575082 154.65333021 C13.71374591 158.60220073 13.72744675 162.55105186 13.74046326 166.49990845 C13.76223866 173.34412212 13.78037926 180.18833775 13.79606819 187.03256798 C13.81875713 196.92824014 13.84690131 206.82389084 13.87638747 216.71954481 C13.92407535 232.77363746 13.9673363 248.82773889 14.00782776 264.8818512 C14.0471766 280.47918887 14.08860136 296.07651874 14.13282776 311.67384338 C14.13555203 312.63486779 14.1382763 313.59589219 14.14108313 314.58603855 C14.15476251 319.40709769 14.1684828 324.22815671 14.18222344 329.04921567 C14.29620701 369.06022445 14.40301221 409.07124996 14.50514221 449.08229065 C18.27005409 451.53893948 22.02988805 451.36003899 26.36593914 451.33117962 C27.1671673 451.3337869 27.96839546 451.33639419 28.79390326 451.33908048 C31.49547324 451.34540804 34.1968132 451.33740031 36.89837646 451.32952881 C38.84802264 451.33111615 40.79766828 451.33357901 42.74731237 451.33684522 C48.11791383 451.34327692 53.48844025 451.33717654 58.8590368 451.32908094 C64.64568158 451.32251781 70.43231778 451.32744935 76.21896362 451.33096313 C87.55933953 451.3360115 98.89968633 451.33035573 110.24005862 451.32111283 C123.43340898 451.31074483 136.626753 451.31079859 149.82010666 451.31128541 C174.06220342 451.31199369 198.30428595 451.30175612 222.5463775 451.28678297 C244.69401157 451.27315393 266.84163485 451.26692187 288.98927307 451.26759338 C290.41174339 451.26763379 291.83421371 451.26767415 293.25668403 451.26771446 C293.95991493 451.26773481 294.66314584 451.26775516 295.38768677 451.26777613 C298.92738631 451.26787692 302.46708585 451.26796751 306.00678539 451.26804638 C307.05419649 451.26807145 307.05419649 451.26807145 308.12276742 451.26809703 C330.57705456 451.2685401 353.03133952 451.26142356 375.48562511 451.25368353 C384.69348278 451.25066109 393.90133951 451.24960326 403.10919762 451.24915123 C414.32008085 451.24847071 425.53095549 451.24402861 436.74183508 451.23481842 C442.46741816 451.23018594 448.19299021 451.22716024 453.91857529 451.22841263 C459.15085699 451.22950166 464.38311422 451.22602637 469.61539081 451.2187641 C471.51702527 451.21693965 473.41866222 451.21683117 475.32029679 451.21853139 C477.88751713 451.22057403 480.45465554 451.21657274 483.02186871 451.2109251 C483.77534935 451.21298042 484.52882999 451.21503574 485.30514339 451.21715334 C488.69184305 451.50432259 488.69184305 451.50432259 491.50514221 450.08229065 C491.66240697 448.56021252 491.75109721 447.03100779 491.81289673 445.5020752 C491.85358748 444.49762895 491.89427824 443.4931827 491.93620205 442.45829868 C491.97450162 441.33382297 492.01280119 440.20934725 492.05226135 439.05079651 C492.09422418 437.85675422 492.136187 436.66271193 492.17942142 435.43248653 C492.67810509 419.68742341 492.69179515 403.93667329 492.73493767 388.18507576 C492.75069857 382.4625482 492.77463052 376.74007086 492.79983521 371.01757812 C492.87026882 354.76924322 492.93100856 338.52088381 492.98194885 322.2724762 C493.01031716 313.24628723 493.04570421 304.22015256 493.0886026 295.19402069 C493.11518128 289.51642711 493.13320113 283.83889442 493.14463985 278.16125119 C493.15381536 274.62943264 493.17119563 271.09768865 493.19081879 267.56591415 C493.19823771 265.94064833 493.2023719 264.31536334 493.2028141 262.69008064 C493.21460987 238.69108473 493.21460987 238.69108473 497.50514221 232.08229065 C500.24713338 231.39679286 502.68505692 231.08229065 505.50514221 231.08229065 C505.50514221 231.74229065 505.50514221 232.40229065 505.50514221 233.08229065 C506.16514221 233.08229065 506.82514221 233.08229065 507.50514221 233.08229065 C507.50514221 233.74229065 507.50514221 234.40229065 507.50514221 235.08229065 C515.09878669 238.03500198 515.09878669 238.03500198 523.00514221 239.89479065 C528.00430932 240.8767699 531.6224136 243.58504283 535.79029846 246.40260315 C538.94705209 248.35570252 541.9740858 249.48579083 545.53248596 250.4768219 C547.50514221 251.08229065 547.50514221 251.08229065 549.57154846 252.1565094 C551.59881766 253.2982118 551.59881766 253.2982118 554.50514221 253.08229065 C554.50514221 253.74229065 554.50514221 254.40229065 554.50514221 255.08229065 C557.549572 257.41635349 560.61307647 258.45316972 564.25514221 259.45729065 C570.54186803 261.23743656 575.7243078 264.37586954 581.25514221 267.76979065 C585.42341364 270.20128232 588.64787374 271.35984885 593.50514221 271.08229065 C593.50514221 271.74229065 593.50514221 272.40229065 593.50514221 273.08229065 C595.10887531 273.72919987 596.71314527 274.37477829 598.31764221 275.01979065 C599.21096252 275.37943909 600.10428284 275.73908752 601.02467346 276.1096344 C602.83223311 276.81842551 604.66321631 277.46831535 606.50514221 278.08229065 C606.50514221 278.74229065 606.50514221 279.40229065 606.50514221 280.08229065 C608.08295471 280.67010315 608.08295471 280.67010315 609.69264221 281.26979065 C612.38095915 282.27132049 615.05373927 283.30026299 617.71998596 284.3596344 C618.84533752 284.80436096 619.97068909 285.24908752 621.13014221 285.70729065 C622.19490784 286.13268127 623.25967346 286.5580719 624.35670471 286.99635315 C627.42350986 288.05413458 630.30737997 288.58934176 633.50514221 289.08229065 C633.51544968 287.83694046 633.52575714 286.59159027 633.53637695 285.3085022 C633.63427532 273.55305866 633.73702436 261.79766611 633.84448147 250.04230595 C633.8995669 243.99925554 633.9529633 237.95620019 634.00245667 231.9131012 C634.05031307 226.07754934 634.10266241 220.24205327 634.15808296 214.40656853 C634.17841048 212.183943 634.19713882 209.96130224 634.21421623 207.73864937 C634.23847413 204.61754498 634.2684977 201.49654396 634.29981995 198.37550354 C634.30557541 197.46343643 634.31133087 196.55136932 634.31726074 195.61166382 C634.37297976 190.70391859 634.68599678 185.92163766 635.28210354 181.05033207 C635.55541721 178.63867572 635.62542602 176.26417842 635.6186676 173.83790588 C635.61859207 172.91763107 635.61851654 171.99735626 635.61843872 171.04919434 C635.61327744 170.08945206 635.60811615 169.12970978 635.60279846 168.1408844 C635.60138351 167.13260086 635.59996857 166.12431732 635.59851074 165.08547974 C635.59295826 161.89688523 635.58041482 158.70836357 635.56764221 155.51979065 C635.56262106 153.34466146 635.55805924 151.16953116 635.55397034 148.99440002 C635.54300444 143.69033593 635.52577307 138.3863256 635.50514221 133.08229065 C631.87514221 133.08229065 628.24514221 133.08229065 624.50514221 133.08229065 C624.50514221 133.74229065 624.50514221 134.40229065 624.50514221 135.08229065 C623.18514221 135.08229065 621.86514221 135.08229065 620.50514221 135.08229065 C619.84514221 136.07229065 619.18514221 137.06229065 618.50514221 138.08229065 C615.68482971 139.2502594 615.68482971 139.2502594 612.38014221 140.26979065 C611.28443909 140.61397034 610.18873596 140.95815002 609.05982971 141.3127594 C608.21678284 141.56670471 607.37373596 141.82065002 606.50514221 142.08229065 C606.50514221 142.74229065 606.50514221 143.40229065 606.50514221 144.08229065 C605.18514221 144.08229065 603.86514221 144.08229065 602.50514221 144.08229065 C602.50514221 144.74229065 602.50514221 145.40229065 602.50514221 146.08229065 C601.90701721 146.22666565 601.30889221 146.37104065 600.69264221 146.51979065 C598.94363817 146.96953455 597.21837198 147.51121406 595.50514221 148.08229065 C595.50514221 148.74229065 595.50514221 149.40229065 595.50514221 150.08229065 C593.19514221 150.41229065 590.88514221 150.74229065 588.50514221 151.08229065 C588.50514221 151.74229065 588.50514221 152.40229065 588.50514221 153.08229065 C587.80389221 153.04104065 587.10264221 152.99979065 586.38014221 152.95729065 C583.12142593 153.09897397 580.54914751 153.94963751 577.50514221 155.08229065 C577.50514221 155.74229065 577.50514221 156.40229065 577.50514221 157.08229065 C576.76264221 157.20604065 576.02014221 157.32979065 575.25514221 157.45729065 C572.70372737 158.03715766 570.77838491 158.81937804 568.50514221 160.08229065 C568.50514221 160.74229065 568.50514221 161.40229065 568.50514221 162.08229065 C564.05014221 163.07229065 564.05014221 163.07229065 559.50514221 164.08229065 C559.50514221 164.74229065 559.50514221 165.40229065 559.50514221 166.08229065 C558.82451721 166.02041565 558.14389221 165.95854065 557.44264221 165.89479065 C553.58578096 166.14097328 550.99434627 167.44031227 547.50514221 169.08229065 C547.50514221 169.74229065 547.50514221 170.40229065 547.50514221 171.08229065 C544.53514221 172.07229065 544.53514221 172.07229065 541.50514221 173.08229065 C541.50514221 173.74229065 541.50514221 174.40229065 541.50514221 175.08229065 C540.8902594 175.21506409 540.27537659 175.34783752 539.64186096 175.4846344 C538.42949768 175.74953674 538.42949768 175.74953674 537.19264221 176.01979065 C536.3921344 176.19381409 535.59162659 176.36783752 534.76686096 176.5471344 C532.35974121 177.08115224 532.35974121 177.08115224 529.50514221 178.08229065 C529.50514221 178.74229065 529.50514221 179.40229065 529.50514221 180.08229065 C528.18514221 180.08229065 526.86514221 180.08229065 525.50514221 180.08229065 C525.50514221 180.74229065 525.50514221 181.40229065 525.50514221 182.08229065 C524.96889221 182.18541565 524.43264221 182.28854065 523.88014221 182.39479065 C521.35133996 183.04195473 521.35133996 183.04195473 518.63014221 184.58229065 C515.50966439 186.08012001 512.92237758 186.67547692 509.50514221 187.08229065 C509.50514221 187.74229065 509.50514221 188.40229065 509.50514221 189.08229065 C507.92287256 189.27856456 506.33924951 189.46394603 504.75514221 189.64479065 C503.87342346 189.74920471 502.99170471 189.85361877 502.08326721 189.9611969 C499.59854218 190.07790368 497.87601377 189.73670408 495.50514221 189.08229065 C493.49855146 182.4045364 493.20596267 176.26890073 493.2021637 169.3205719 C493.19372437 168.16492233 493.18528503 167.00927277 493.17658997 165.81860352 C493.15087375 162.01066147 493.13867896 158.20279715 493.12623596 154.39479065 C493.11004462 151.7316931 493.09300049 149.06861549 493.07473755 146.40553284 C493.03318033 140.11021981 493.00073727 133.81489866 492.9722634 127.51951408 C492.92133205 116.28472483 492.85840412 105.05000811 492.78692299 93.81533146 C492.75838259 89.25630206 492.7380008 84.69727893 492.71960449 80.13819885 C492.65843073 65.30095059 492.65843073 65.30095059 492.17726135 50.47291565 C492.12147415 49.26151917 492.06568695 48.05012268 492.00820923 46.80201721 C491.75919106 45.45575256 491.75919106 45.45575256 491.50514221 44.08229065 C487.82053499 41.62588584 485.05492664 41.80271606 480.79418373 41.82781506 C479.99699618 41.82460858 479.19980862 41.8214021 478.37846386 41.81809846 C475.68458517 41.80974128 472.99092552 41.81574261 470.29704285 41.82159424 C468.35523467 41.81857615 466.41342769 41.81468841 464.47162282 41.81000167 C459.11789237 41.79966861 453.76422847 41.80191693 448.41049242 41.80618227 C442.64351703 41.80863992 436.87655807 41.79964732 431.10958862 41.79214478 C419.80450199 41.77936876 408.49943908 41.7776077 397.19434644 41.77994504 C388.00872089 41.78172517 378.82310256 41.77998512 369.63747787 41.7757206 C368.33213282 41.77512541 367.02678776 41.77453022 365.68188678 41.77391699 C363.03041304 41.77270529 360.3789393 41.77149116 357.72746556 41.77027462 C339.91347208 41.7623277 322.09948115 41.75857173 304.28548622 41.76259136 C303.58848318 41.76274774 302.89148014 41.76290411 302.17335579 41.76306523 C298.64047336 41.76387104 295.10759095 41.76471681 291.57470854 41.76557853 C290.52220117 41.76583516 290.52220117 41.76583516 289.44843103 41.76609698 C288.02947955 41.76644363 286.61052807 41.76679216 285.19157658 41.76714256 C263.11118683 41.77250014 241.03083701 41.76456971 218.95045471 41.74610901 C194.15632972 41.72540383 169.36222969 41.71469459 144.56809556 41.71868449 C131.43517487 41.7206002 118.30229055 41.71807318 105.16937637 41.70396996 C93.98894419 41.6920854 82.80857079 41.69061826 71.62813784 41.70276012 C65.9202583 41.70866951 60.2124864 41.70969163 54.50461388 41.69775772 C49.28374281 41.68696861 44.06307018 41.68991858 38.84220867 41.7040194 C36.94922067 41.70668568 35.05621747 41.70423987 33.16324432 41.69628354 C30.59784799 41.68624585 28.03315061 41.69454051 25.46778297 41.70756054 C24.35530184 41.69659652 24.35530184 41.69659652 23.22034633 41.68541101 C18.83980069 41.73176105 15.93699453 42.28475746 12.50514221 45.08229065 Z " fill="#FEFEFE" transform="translate(332.49485778808594,386.91770935058594)"/>
<path d="M0 0 C0.84691406 -0.01224609 1.69382812 -0.02449219 2.56640625 -0.03710938 C8.37735985 -0.05045766 13.49341038 0.74831599 19.125 2.1875 C19.125 2.8475 19.125 3.5075 19.125 4.1875 C20.053125 4.27 20.98125 4.3525 21.9375 4.4375 C25.125 5.1875 25.125 5.1875 26.875 6.8125 C29.9407207 12.63736932 30.42033855 18.32922532 30.41210938 24.75317383 C30.41894241 25.58003693 30.42577545 26.40690002 30.43281555 27.25881958 C30.44633633 29.04189682 30.45543259 30.82501209 30.46052551 32.60813332 C30.46884877 35.4279938 30.4893811 38.24753577 30.51306152 41.06730652 C30.56932503 48.06327581 30.60476919 55.05932188 30.64068604 62.05541992 C30.67187976 67.98198997 30.71100469 73.90840191 30.76094055 79.83484459 C30.78105007 82.61687166 30.78933361 85.39877774 30.79724121 88.18086243 C30.81020613 89.8768458 30.82372532 91.57282506 30.83789062 93.26879883 C30.83690872 94.04542374 30.83592682 94.82204865 30.83491516 95.62220764 C30.73669657 99.86529116 30.73669657 99.86529116 33.125 103.1875 C35.82879553 103.39980901 38.43281525 103.48845031 41.13891602 103.49047852 C42.3805249 103.50313751 42.3805249 103.50313751 43.6472168 103.51605225 C46.39111887 103.54190353 49.13491334 103.55398621 51.87890625 103.56640625 C53.77938195 103.58257136 55.67984927 103.59975029 57.58030701 103.61790466 C62.58910259 103.66366513 67.59790915 103.69843466 72.60681152 103.73010254 C80.62880922 103.78191478 88.65068417 103.8469419 96.67252922 103.91831779 C99.48281133 103.94123423 102.29307767 103.95745126 105.10340881 103.97303772 C106.81576716 103.98643885 108.52812385 104.00005316 110.24047852 104.01391602 C111.42259163 104.01783607 111.42259163 104.01783607 112.62858582 104.02183533 C118.01136524 104.07386524 118.01136524 104.07386524 119.125 105.1875 C120.47247084 105.41825082 121.82877565 105.59903063 123.1875 105.75 C124.486875 105.894375 125.78625 106.03875 127.125 106.1875 C127.125 106.8475 127.125 107.5075 127.125 108.1875 C127.764375 108.47625 128.40375 108.765 129.0625 109.0625 C131.125 110.1875 131.125 110.1875 132.125 112.1875 C132.164992 114.18710012 132.16846799 116.18797242 132.125 118.1875 C132.785 118.1875 133.445 118.1875 134.125 118.1875 C134.20128992 125.73137915 134.25370068 133.27515817 134.28979492 140.81933594 C134.30484779 143.38382688 134.32529461 145.94829223 134.35131836 148.51269531 C134.38785467 152.20644463 134.40476194 155.89985246 134.41796875 159.59375 C134.43345261 160.7336438 134.44893646 161.8735376 134.46488953 163.04797363 C134.46624203 169.49745443 133.83426451 174.3127396 131.125 180.1875 C130.465 180.1875 129.805 180.1875 129.125 180.1875 C129.125 180.8475 129.125 181.5075 129.125 182.1875 C125.29125356 184.60134035 121.15406798 184.87340192 116.75 185.3125 C115.93088135 185.39669189 115.1117627 185.48088379 114.26782227 185.56762695 C107.53232278 186.1919051 100.82474403 186.3694307 94.0625 186.375 C92.62608154 186.3762085 92.62608154 186.3762085 91.16064453 186.37744141 C84.39458663 186.32229332 84.39458663 186.32229332 82.125 185.1875 C80.61564528 185.09209654 79.10220917 185.05676513 77.58984375 185.0546875 C76.69845703 185.05339844 75.80707031 185.05210937 74.88867188 185.05078125 C73.95603516 185.05464844 73.02339844 185.05851563 72.0625 185.0625 C71.12599609 185.05863281 70.18949219 185.05476562 69.22460938 185.05078125 C68.33451172 185.05207031 67.44441406 185.05335938 66.52734375 185.0546875 C65.29745728 185.05637939 65.29745728 185.05637939 64.04272461 185.05810547 C62.11635233 184.97684756 62.11635233 184.97684756 61.125 186.1875 C59.19832493 186.27498207 57.26848139 186.29447334 55.33984375 186.28515625 C54.17001953 186.28193359 53.00019531 186.27871094 51.79492188 186.27539062 C50.56322266 186.26701172 49.33152344 186.25863281 48.0625 186.25 C46.20915039 186.24323242 46.20915039 186.24323242 44.31835938 186.23632812 C41.25385883 186.22449608 38.18945279 186.20801173 35.125 186.1875 C35.125 186.8475 35.125 187.5075 35.125 188.1875 C33.475 188.5175 31.825 188.8475 30.125 189.1875 C30.26563135 191.47949177 30.41265943 193.77109186 30.5625 196.0625 C30.64371094 197.33867188 30.72492188 198.61484375 30.80859375 199.9296875 C30.91706027 203.07050152 30.91706027 203.07050152 32.125 205.1875 C32.22155452 206.96537843 32.25575463 208.74684656 32.2578125 210.52734375 C32.25910156 211.59017578 32.26039063 212.65300781 32.26171875 213.74804688 C32.25785156 214.86244141 32.25398437 215.97683594 32.25 217.125 C32.25386719 218.23552734 32.25773438 219.34605469 32.26171875 220.49023438 C32.25978516 222.08641602 32.25978516 222.08641602 32.2578125 223.71484375 C32.25668457 224.69187256 32.25555664 225.66890137 32.25439453 226.67553711 C32.125 229.1875 32.125 229.1875 31.125 232.1875 C30.98337427 234.83203207 30.89184475 237.45524536 30.84375 240.1015625 C30.82534058 240.87180756 30.80693115 241.64205261 30.78796387 242.43563843 C30.7092764 245.73136524 30.64133941 249.02729201 30.57275391 252.32324219 C30.52116271 254.72862272 30.46388022 257.13382033 30.40625 259.5390625 C30.39267456 260.29007233 30.37909912 261.04108215 30.3651123 261.81484985 C30.23785487 267.07464513 30.23785487 267.07464513 29.125 268.1875 C28.88007797 270.93153381 28.74114703 273.6744967 28.6015625 276.42578125 C28.07148133 279.49764507 27.27526324 280.95779354 25.125 283.1875 C24.465 283.1875 23.805 283.1875 23.125 283.1875 C23.125 283.8475 23.125 284.5075 23.125 285.1875 C17.36209863 287.66672319 11.85568044 287.47671938 5.69921875 287.453125 C4.59705521 287.45503845 3.49489166 287.4569519 2.35932922 287.45892334 C0.03194958 287.46028165 -2.29543773 287.45660995 -4.62280273 287.44824219 C-8.16472637 287.43756863 -11.70613927 287.44813394 -15.24804688 287.4609375 C-17.51562611 287.45961524 -19.78320503 287.45705149 -22.05078125 287.453125 C-23.62621452 287.45919769 -23.62621452 287.45919769 -25.23347473 287.46539307 C-39.59516565 287.37494393 -39.59516565 287.37494393 -45.88183594 283.18212891 C-48.72413633 278.9117153 -48.68576194 275.31055558 -48.765625 270.2734375 C-48.80025345 269.28610626 -48.8348819 268.29877502 -48.87055969 267.28152466 C-48.97832595 264.04210403 -49.05183321 260.80287087 -49.125 257.5625 C-49.19319472 255.32350476 -49.26344634 253.08457127 -49.33569336 250.84570312 C-49.54953285 243.96034859 -49.71668928 237.07432524 -49.875 230.1875 C-49.92654817 228.00943899 -49.97814216 225.83137907 -50.02978516 223.65332031 C-50.07862484 221.56315511 -50.12729408 219.47298591 -50.17578125 217.3828125 C-50.19895416 216.38430267 -50.22212708 215.38579285 -50.2460022 214.35702515 C-50.35432982 209.61104042 -50.45376735 204.8651966 -50.53417969 200.11865234 C-50.55030807 199.25642059 -50.56643646 198.39418884 -50.58305359 197.50582886 C-50.61277781 195.90167025 -50.63873801 194.29743573 -50.66023254 192.69314575 C-50.66517498 188.81213055 -50.66517498 188.81213055 -51.875 185.1875 C-52.99951065 185.18829559 -54.1240213 185.18909119 -55.28260803 185.18991089 C-65.89098334 185.19351649 -76.49887462 185.16567895 -87.10709476 185.1072216 C-92.56068878 185.07817527 -98.01385317 185.06012732 -103.4675293 185.06738281 C-108.73279318 185.07398019 -113.9972084 185.05146713 -119.26229668 185.00894547 C-121.26885392 184.99782162 -123.27549731 184.99710756 -125.28206062 185.00707626 C-128.09791186 185.01927016 -130.91118113 184.99413078 -133.72680664 184.96044922 C-134.96543205 184.97878059 -134.96543205 184.97878059 -136.2290802 184.9974823 C-141.71286392 184.87963074 -144.53980307 183.48951901 -148.52682114 179.72535896 C-153.30255229 174.27771314 -152.18105944 166.36804434 -152.17578125 159.5625 C-152.18006638 158.34224121 -152.1843515 157.12198242 -152.18876648 155.86474609 C-152.19449959 153.28939432 -152.19501757 150.71402636 -152.19067383 148.13867188 C-152.18751128 144.20154212 -152.21099611 140.26516208 -152.23632812 136.328125 C-152.23860096 133.82291761 -152.23930469 131.31770821 -152.23828125 128.8125 C-152.247491 127.6373584 -152.25670074 126.4622168 -152.26618958 125.25146484 C-152.22624016 118.18781377 -151.55760084 113.63655822 -147.125 107.9375 C-141.85901217 103.84173169 -135.58705254 103.9043549 -129.20166016 103.97631836 C-127.94432571 103.97828972 -127.94432571 103.97828972 -126.66159058 103.9803009 C-123.91229632 103.98675228 -121.16328708 104.00715816 -118.4140625 104.02734375 C-116.4983246 104.03361796 -114.58258306 104.03885679 -112.6668396 104.04310608 C-107.63993307 104.05637168 -102.61314941 104.08079774 -97.58630371 104.10845947 C-89.51922757 104.15169361 -81.45211602 104.18123258 -73.38496017 104.2045002 C-70.56353067 104.21475482 -67.74219827 104.23179476 -64.92080688 104.24949646 C-63.20452969 104.25631968 -61.48825163 104.26292851 -59.77197266 104.26928711 C-58.98240173 104.27602448 -58.19283081 104.28276184 -57.3793335 104.28970337 C-55.54424353 104.29359406 -53.70915561 104.24618138 -51.875 104.1875 C-49.70598964 102.01848964 -50.43799749 97.14267809 -50.30859375 94.13671875 C-50.2659288 93.16852707 -50.22326385 92.20033539 -50.17930603 91.20280457 C-49.84991219 82.68281283 -49.81354393 74.1698415 -49.84765625 65.64453125 C-49.85024822 64.97025967 -49.85284019 64.29598808 -49.85551071 63.60128403 C-49.88181097 57.30921923 -49.92122791 51.01726336 -49.97094727 44.7253418 C-49.99794891 41.2375583 -50.0148344 37.74983746 -50.02581596 34.26196861 C-50.03485936 32.33286382 -50.05520941 30.40382231 -50.07594299 28.47480774 C-50.1277065 10.25181762 -50.1277065 10.25181762 -46.55140686 5.38703918 C-44.875 4.1875 -44.875 4.1875 -40.875 4.1875 C-40.875 3.5275 -40.875 2.8675 -40.875 2.1875 C-40.18462646 2.16244385 -39.49425293 2.1373877 -38.78295898 2.11157227 C-35.62598591 1.9948434 -32.46925543 1.87246822 -29.3125 1.75 C-28.22646484 1.71068359 -27.14042969 1.67136719 -26.02148438 1.63085938 C-21.70955465 1.46047917 -17.48940584 1.27536594 -13.21484375 0.6640625 C-8.79636431 0.03358941 -4.45735922 0.00336151 0 0 Z " fill="#FEFEFE" transform="translate(594.875,488.8125)"/>
</svg>
