<?xml version="1.0" encoding="UTF-8"?>
<svg version="1.1" xmlns="http://www.w3.org/2000/svg" width="1280" height="1280">
<path d="M0 0 C1.2766897 -0.00339833 1.2766897 -0.00339833 2.57917112 -0.00686532 C5.41790195 -0.01317202 8.25658462 -0.01237812 11.09532166 -0.0115509 C13.13585471 -0.01454438 15.1763872 -0.01794734 17.21691895 -0.02172852 C22.74979172 -0.03055122 28.28264902 -0.03290584 33.81552815 -0.0335443 C37.27251232 -0.03425552 40.72949256 -0.03639114 44.18647575 -0.03904152 C56.24691391 -0.04828755 68.30734101 -0.05237713 80.36778259 -0.05158997 C91.6109902 -0.05098861 102.85414993 -0.06155369 114.09734541 -0.07733363 C123.7527044 -0.09040235 133.40804771 -0.09577418 143.06341547 -0.09513456 C148.82927189 -0.09487947 154.59508569 -0.09773672 160.3609333 -0.10831261 C165.78065442 -0.11798288 171.20029206 -0.11808011 176.6200161 -0.11079597 C178.6090113 -0.10974897 180.59801167 -0.11211989 182.58699799 -0.11815643 C185.30183093 -0.12586251 188.01637456 -0.12124076 190.73120117 -0.11352539 C191.51826653 -0.11866895 192.30533189 -0.12381252 193.11624771 -0.12911195 C197.54404455 -0.10130095 201.23031396 0.34575269 205.30210876 2.13371277 C206.93911017 5.40771558 206.45387729 9.03138025 206.45600891 12.63015747 C206.46258229 13.96486732 206.46258229 13.96486732 206.46928847 15.32654101 C206.48270706 18.32598771 206.48886212 21.32540501 206.49497986 24.32487488 C206.50287822 26.46805963 206.51114701 28.61124305 206.51976013 30.75442505 C206.54600433 37.80662257 206.56128713 44.85882612 206.57554626 51.91105652 C206.58090438 54.33481411 206.58628189 56.75857167 206.59167862 59.18232918 C206.61330815 69.25939767 206.63204754 79.33646454 206.64330101 89.41355038 C206.65955833 103.8782103 206.69277867 118.34260236 206.74970186 132.80716127 C206.78832477 142.96597554 206.80792444 153.12471793 206.81322157 163.28360373 C206.81688466 169.35750469 206.82900788 175.43112012 206.86132431 181.50494194 C206.89127145 187.21524812 206.89776461 192.92509399 206.88594055 198.63546181 C206.88571871 200.73538295 206.894114 202.83532464 206.91159439 204.93517303 C206.93410542 207.79410668 206.92607575 210.65134539 206.91011047 213.51028442 C206.92399256 214.34840839 206.93787465 215.18653235 206.95217741 216.05005401 C206.90334757 219.57938262 206.84801225 221.5814536 204.31014538 224.14886761 C200.36463425 225.44064628 196.67111401 225.54820038 192.56552124 225.5146637 C191.68610762 225.51934367 190.806694 225.52402364 189.90063149 225.52884543 C186.9541443 225.5408106 184.00812089 225.53133221 181.06163025 225.52189636 C178.94918038 225.52596135 176.83673264 225.53130282 174.72428894 225.53782654 C168.98684318 225.55151368 163.24955909 225.54619587 157.51211047 225.53668928 C151.51217887 225.52910097 145.51226124 225.5361359 139.5123291 225.54084778 C129.43710338 225.54630731 119.36194361 225.53910805 109.28672791 225.52482605 C97.63109347 225.50849477 85.97561643 225.51379078 74.31998581 225.53030527 C64.31904229 225.54390918 54.31814621 225.54584528 44.31719643 225.53798926 C38.3412134 225.5333073 32.3653044 225.53270237 26.3893261 225.54259872 C20.77260323 225.55125031 15.15608378 225.5452795 9.53938293 225.52791595 C7.47537639 225.52394164 5.41135279 225.52510124 3.34735298 225.53170395 C0.53523999 225.53987203 -2.27621647 225.52965528 -5.08828735 225.5146637 C-5.90977927 225.52135586 -6.73127119 225.52804803 -7.57765681 225.53494298 C-10.8507537 225.50097394 -13.2642368 225.367796 -16.17349148 223.79740334 C-19.56130487 220.1000312 -18.8433231 215.42312903 -18.83833313 210.72029114 C-18.84130425 209.85145904 -18.84427537 208.98262694 -18.84733653 208.0874666 C-18.85603498 205.16488405 -18.85753274 202.24234241 -18.85902405 199.31974792 C-18.86365136 197.22892163 -18.8686759 195.13809619 -18.87406921 193.04727173 C-18.88720243 187.35927885 -18.89363982 181.67129778 -18.89807987 175.9832921 C-18.90100874 172.43186184 -18.90511317 168.88043483 -18.90958405 165.3290062 C-18.92326059 154.22367194 -18.93292682 143.11834508 -18.93678594 132.01300299 C-18.94126906 119.18156159 -18.95882815 106.35022659 -18.98778653 93.51881754 C-19.00937964 83.60793069 -19.01948893 73.69707382 -19.02082705 63.78616369 C-19.02187666 57.8632005 -19.02781772 51.94033731 -19.04564667 46.01739883 C-19.06208663 40.44750537 -19.06430268 34.87778752 -19.05550766 29.30787849 C-19.05473513 27.2620236 -19.05910826 25.21615943 -19.06896591 23.17032814 C-19.08162219 20.38037506 -19.07584308 17.59104991 -19.06538391 14.80110168 C-19.07344032 13.98894026 -19.08149672 13.17677884 -19.08979726 12.34000647 C-19.05010956 7.82267854 -18.8787613 4.49112108 -15.69789124 1.13371277 C-10.57319604 -0.17708318 -5.26885255 -0.01039627 0 0 Z M1.30210876 23.13371277 C1.20225608 25.49688746 1.16768233 27.83089072 1.17512512 30.19462585 C1.17356513 30.9420648 1.17200514 31.68950374 1.17039788 32.45959234 C1.16638508 34.98314689 1.16957859 37.50664207 1.17271423 40.03019714 C1.17136032 41.83165523 1.16958044 43.63311303 1.16740417 45.43457031 C1.16282871 50.3414534 1.16461987 55.24831557 1.16778326 60.15519905 C1.17030628 65.27836796 1.16796949 70.40153501 1.16639709 75.52470398 C1.16457523 84.12989119 1.16698216 92.73506983 1.17173767 101.34025574 C1.17718032 111.30420477 1.17541768 121.26813335 1.16991127 131.23208189 C1.16538062 139.77047765 1.16472935 148.30886724 1.16734993 156.84726381 C1.16891298 161.95407732 1.16910573 167.0608812 1.16581345 172.16769409 C1.16293544 176.96761729 1.16490912 181.76751399 1.1707077 186.56743431 C1.17203568 188.33437748 1.17164055 190.10132285 1.16944504 191.86826515 C1.166735 194.2698073 1.17011284 196.67126312 1.17512512 199.07279968 C1.1728944 199.78124826 1.17066368 200.48969684 1.16836536 201.21961355 C0.90660651 204.45630899 0.90660651 204.45630899 2.30210876 207.13371277 C4.65268084 207.23355651 6.97392404 207.26814041 9.32505798 207.26069641 C10.06841337 207.2622564 10.81176876 207.26381639 11.57765007 207.26542366 C14.08738519 207.26943641 16.59706062 207.26624296 19.10679626 207.2631073 C20.89840226 207.26446122 22.69000798 207.2662411 24.48161316 207.26841736 C29.36163764 207.27299281 34.24164108 207.27120168 39.12166595 207.26803827 C44.21680765 207.26551524 49.31194748 207.26785205 54.40708923 207.26942444 C62.96519801 207.2712463 71.52329817 207.26883939 80.08140564 207.26408386 C89.99082314 207.25864121 99.90022007 207.26040386 109.80963707 207.26591027 C118.3013241 207.27044092 126.79300492 207.27109218 135.28469276 207.2684716 C140.36356061 207.26690856 145.44241878 207.26671579 150.52128601 207.27000809 C155.29494444 207.27288611 160.06857622 207.27091238 164.84223175 207.26511383 C166.59949957 207.26378586 168.35676961 207.26418097 170.11403656 207.2663765 C172.50244169 207.26908657 174.89076003 207.26570866 177.27915955 207.26069641 C177.98371717 207.26292713 178.6882748 207.26515785 179.41418266 207.26745617 C182.63716658 207.5267883 182.63716658 207.5267883 185.30210876 206.13371277 C185.40196145 203.77053808 185.4365352 201.43653482 185.42909241 199.07279968 C185.4306524 198.32536074 185.43221239 197.5779218 185.43381965 196.80783319 C185.43783244 194.28427865 185.43463894 191.76078347 185.4315033 189.23722839 C185.43285721 187.43577031 185.43463709 185.6343125 185.43681335 183.83285522 C185.44138882 178.92597213 185.43959766 174.01910996 185.43643427 169.11222649 C185.43391125 163.98905758 185.43624804 158.86589053 185.43782043 153.74272156 C185.4396423 145.13753435 185.43723537 136.53235571 185.43247986 127.9271698 C185.42703721 117.96322076 185.42879985 107.99929219 185.43430626 98.03534365 C185.43883691 89.49694788 185.43948818 80.9585583 185.43686759 72.42016172 C185.43530455 67.31334822 185.4351118 62.20654434 185.43840408 57.09973145 C185.44128209 52.29980824 185.4393084 47.49991155 185.43350983 42.69999123 C185.43218185 40.93304806 185.43257698 39.16610268 185.43477249 37.39916039 C185.43748253 34.99761824 185.43410469 32.59616242 185.42909241 30.19462585 C185.43132313 29.48617728 185.43355385 28.7777287 185.43585217 28.04781199 C185.69761102 24.81111655 185.69761102 24.81111655 184.30210876 22.13371277 C181.95153669 22.03386902 179.63029349 21.99928513 177.27915955 22.00672913 C176.16412646 22.00438914 176.16412646 22.00438914 175.02656746 22.00200188 C172.51683234 21.99798913 170.00715691 22.00118258 167.49742126 22.00431824 C165.70581527 22.00296432 163.91420955 22.00118444 162.12260437 21.99900818 C157.24257989 21.99443273 152.36257645 21.99622386 147.48255157 21.99938726 C142.38740988 22.00191029 137.29227005 21.99957349 132.1971283 21.9980011 C123.63901952 21.99617923 115.08091936 21.99858615 106.52281189 22.00334167 C96.61339439 22.00878433 86.70399746 22.00702168 76.79458046 22.00151527 C68.30289343 21.99698462 59.81121261 21.99633336 51.31952477 21.99895394 C46.24065692 22.00051698 41.16179875 22.00070975 36.08293152 21.99741745 C31.30927309 21.99453943 26.53564131 21.99651315 21.76198578 22.00231171 C20.00471796 22.00363968 18.24744792 22.00324457 16.49018097 22.00104904 C14.10177584 21.99833897 11.7134575 22.00171688 9.32505798 22.00672913 C8.26822154 22.00338304 8.26822154 22.00338304 7.19003487 21.99996936 C3.96705095 21.74063724 3.96705095 21.74063724 1.30210876 23.13371277 Z " fill="#FDFDFD" transform="translate(564.6978912353516,471.8662872314453)"/>
<path d="M0 0 C0.85464844 0.05542969 1.70929687 0.11085938 2.58984375 0.16796875 C5.9016382 1.03123271 6.98454695 2.08481813 9.0625 4.8125 C9.44684033 7.62369071 9.58642572 10.03978035 9.54351807 12.84832764 C9.54693577 13.66437226 9.55035347 14.48041687 9.55387473 15.32119012 C9.56047028 18.05920918 9.53845031 20.79625075 9.51660156 23.53417969 C9.51547345 25.49533566 9.51610625 27.45649333 9.51837158 29.41764832 C9.51952105 34.7459014 9.49597394 40.0737956 9.46807575 45.40196514 C9.44310094 50.96866228 9.44072319 56.5353673 9.43597412 62.10211182 C9.42353283 72.64539157 9.39069553 83.18850578 9.35057616 93.73171258 C9.30589441 105.73397201 9.28388045 117.73623928 9.26379442 129.73856115 C9.22196397 154.42996595 9.15158943 179.12122371 9.0625 203.8125 C10.60447162 203.80696924 10.60447162 203.80696924 12.17759418 203.80132675 C37.16414459 203.71261902 62.15067464 203.64684007 87.13734913 203.60525131 C99.22061056 203.58460592 111.30376812 203.55644754 123.38696289 203.51074219 C133.9158571 203.47093497 144.44467611 203.44508159 154.97364348 203.43614602 C160.55123208 203.43092091 166.12860548 203.41859897 171.70612526 203.38957977 C176.9517934 203.36250729 182.1971569 203.35403844 187.44288826 203.36006927 C189.37187605 203.35896537 191.30087363 203.35096308 193.22980118 203.3356781 C195.85656732 203.31587775 198.48217194 203.32052396 201.10896301 203.33148193 C202.26313971 203.31400488 202.26313971 203.31400488 203.44063312 203.29617476 C208.58375324 203.35446933 208.58375324 203.35446933 211.00881481 205.67459488 C213.60165968 210.93542267 212.99569195 215.32284784 211.828125 220.859375 C211.0625 222.8125 211.0625 222.8125 208.0625 224.8125 C205.16990965 224.99460339 202.37576639 225.05748201 199.48376465 225.02850342 C198.59718721 225.02753985 197.71060977 225.02657628 196.79716635 225.02558351 C193.8145351 225.01983177 190.83217573 224.99962437 187.84960938 224.97949219 C185.71613322 224.97234283 183.58265403 224.96605122 181.44917297 224.96055603 C175.64554803 224.94289487 169.84205405 224.91244707 164.03849983 224.87922192 C157.97405667 224.84608529 151.90957444 224.82277104 145.84509277 224.7979126 C135.65954188 224.75451505 125.47405951 224.70262942 115.28857422 224.64599609 C103.50126307 224.58058267 91.71395449 224.52956973 79.92654371 224.48605418 C69.81862462 224.44836747 59.71076185 224.40296013 49.60290575 224.35105062 C43.56044804 224.32002428 37.51800979 224.29169481 31.47550964 224.27028656 C25.79561767 224.24972831 20.11585876 224.2194993 14.43605614 224.18170357 C12.347457 224.16940085 10.25883471 224.16050523 8.17020607 224.15520287 C5.32707205 224.14743776 2.48427999 224.12753118 -0.35876465 224.10443115 C-1.19231555 224.10500165 -2.02586644 224.10557214 -2.88467646 224.10615993 C-6.75334626 224.06188064 -8.64360925 224.00842717 -11.9375 221.8125 C-13.21270223 217.98689332 -13.08897012 214.38579148 -13.09140015 210.39907837 C-13.0957824 209.53024627 -13.10016465 208.66141417 -13.1046797 207.76625383 C-13.11807565 204.84367877 -13.1242483 201.92113387 -13.13037109 198.99853516 C-13.13827126 196.90770837 -13.14654016 194.81688294 -13.15515137 192.72605896 C-13.18137542 185.85124007 -13.1966767 178.97641505 -13.2109375 172.1015625 C-13.21629651 169.73697277 -13.22167402 167.37238308 -13.22706985 165.00779343 C-13.24869672 155.17517182 -13.26743531 145.34255186 -13.27869225 135.50991249 C-13.29494468 121.40568373 -13.32815626 107.30172988 -13.38509309 93.19760478 C-13.42374282 83.28672006 -13.44331889 73.37590904 -13.44861281 63.46495092 C-13.45227229 57.54190445 -13.46435759 51.61915116 -13.49671555 45.69618607 C-13.52670954 40.12620979 -13.53313889 34.55670545 -13.52133179 28.98666573 C-13.52111034 26.94079775 -13.52947351 24.89490841 -13.54698563 22.84911537 C-13.56957374 20.05880014 -13.56143075 17.27021133 -13.54550171 14.47988892 C-13.56632484 13.26164679 -13.56632484 13.26164679 -13.58756864 12.0187937 C-13.53036607 7.96033014 -13.13232104 6.05943176 -10.58699989 2.83328819 C-6.90550844 0.02539434 -4.49093721 -0.35792432 0 0 Z " fill="#FEFEFE" transform="translate(513.9375,517.1875)"/>
<path d="M0 0 C3.39469228 1.38302278 6.19898673 3.04710722 9.26171875 5.03125 C11.30601586 6.33113578 13.37689629 7.5215655 15.5 8.6875 C24.34994973 13.54809415 33.09935281 18.57849278 41.73828125 23.8046875 C47.83016379 27.43274199 54.01701828 30.89986421 60.18212891 34.40136719 C64.47501734 36.84549345 68.71508861 39.36384787 72.93359375 41.93359375 C75.06850113 43.19404307 77.22807281 44.31690756 79.4375 45.4375 C82.375 47.375 82.375 47.375 83.5625 49.75 C83.29062709 53.55622078 81.70908021 55.38268647 79.375 58.375 C77.11074924 59.91703284 75.03310633 61.19210526 72.625 62.4375 C71.36268179 63.12389871 70.10095814 63.81139202 68.83984375 64.5 C67.69644531 65.11875 66.55304688 65.7375 65.375 66.375 C61.81256816 68.49678682 58.33413455 70.74355729 54.87109375 73.0234375 C49.18662674 76.72683137 43.4489264 79.8836499 37.34765625 82.84375 C33.42043166 84.86670932 29.78120318 87.24444213 26.08203125 89.65234375 C19.48408057 93.85103964 12.52120266 97.38096627 5.5 100.8125 C4.45070313 101.32683594 3.40140625 101.84117187 2.3203125 102.37109375 C-0.93001618 103.4789644 -2.45007115 103.66377774 -5.625 102.375 C-7.33591784 99.63064531 -7.87619137 97.51617895 -7.88569641 94.30760193 C-7.89278122 93.50709412 -7.89986603 92.7065863 -7.90716553 91.88182068 C-7.90468811 91.01259476 -7.90221069 90.14336884 -7.8996582 89.24780273 C-7.90476913 88.3254483 -7.90988007 87.40309387 -7.91514587 86.45278931 C-7.92904397 83.4046581 -7.92808529 80.35675287 -7.92578125 77.30859375 C-7.92966732 75.19157324 -7.9340018 73.07455351 -7.93876648 70.95753479 C-7.94622862 66.5215502 -7.94593689 62.08564521 -7.94067383 57.6496582 C-7.93487131 51.95748977 -7.95182922 46.26564589 -7.9750185 40.57353115 C-7.98972766 36.20272407 -7.99063153 31.83199573 -7.98750877 27.46116829 C-7.98802315 25.3619529 -7.99328249 23.26273324 -8.00332069 21.16354179 C-8.01561668 18.23307856 -8.00893522 15.30325524 -7.99731445 12.37280273 C-8.00495819 11.50155258 -8.01260193 10.63030243 -8.02047729 9.73265076 C-7.96820636 3.78824886 -7.96820636 3.78824886 -6.22661114 1.6912241 C-3.78626641 -0.31428177 -3.16933091 -0.7546026 0 0 Z " fill="#FEFEFE" transform="translate(625.625,533.625)"/>
</svg>
