<?xml version="1.0" encoding="UTF-8"?>
<svg version="1.1" xmlns="http://www.w3.org/2000/svg" width="360" height="180">
<path d="M0 0 C0.76441406 0.07605469 1.52882812 0.15210937 2.31640625 0.23046875 C4.79302133 0.91005558 5.80173561 1.87362271 7.4375 3.8125 C8.0975 2.4925 8.7575 1.1725 9.4375 -0.1875 C11.08324566 -0.21438151 12.72911413 -0.23384123 14.375 -0.25 C15.29152344 -0.26160156 16.20804688 -0.27320312 17.15234375 -0.28515625 C19.4375 -0.1875 19.4375 -0.1875 20.4375 0.8125 C20.50994053 2.83214199 20.52127188 4.85417124 20.5 6.875 C20.49097656 7.97972656 20.48195312 9.08445312 20.47265625 10.22265625 C20.46105469 11.07730469 20.44945312 11.93195313 20.4375 12.8125 C21.20707031 12.62042969 21.97664063 12.42835937 22.76953125 12.23046875 C25.4375 11.8125 25.4375 11.8125 28.125 13.125 C30.4375 14.8125 30.4375 14.8125 32.4375 16.8125 C33.0975 15.8225 33.7575 14.8325 34.4375 13.8125 C39.81780889 11.98866648 43.81349152 11.37892921 49.4375 12.8125 C51.375 14.375 51.375 14.375 52.4375 15.8125 C53.0975 14.8225 53.7575 13.8325 54.4375 12.8125 C57.38814148 12.5916436 60.12118231 12.53189011 63.0625 12.625 C63.86429687 12.63853516 64.66609375 12.65207031 65.4921875 12.66601562 C67.47424378 12.70140949 69.45595551 12.75521766 71.4375 12.8125 C71.39625 11.719375 71.355 10.62625 71.3125 9.5 C71.4375 5.8125 71.4375 5.8125 73.4375 2.8125 C80.3125 3.6875 80.3125 3.6875 81.4375 4.8125 C81.57865161 7.48308851 81.47997107 10.13682238 81.4375 12.8125 C85.41057208 12.89703345 89.12595903 12.74797903 93.0625 12.1875 C97.65188549 11.64114459 100.30676338 12.44274075 104.1875 14.9375 C106.22718883 17.99703325 106.13998798 21.18285333 106.4375 24.8125 C104.7875 25.8025 103.1375 26.7925 101.4375 27.8125 C102.076875 28.286875 102.71625 28.76125 103.375 29.25 C106.2859621 32.86664989 106.65846594 36.22950279 106.4375 40.8125 C104.87568681 44.482761 103.77839404 45.5852373 100.4375 47.8125 C96.11818502 48.25521404 91.77700474 48.1366403 87.4375 48.125 C86.23609375 48.14111328 85.0346875 48.15722656 83.796875 48.17382812 C82.64703125 48.17447266 81.4971875 48.17511719 80.3125 48.17578125 C79.25804687 48.17876221 78.20359375 48.18174316 77.1171875 48.18481445 C74.4375 47.8125 74.4375 47.8125 72.61499023 46.45629883 C69.36666379 41.92157315 70.46055744 35.70616055 70.875 30.4375 C70.92720703 29.70144531 70.97941406 28.96539062 71.03320312 28.20703125 C71.16167723 26.40839371 71.29870949 24.61037091 71.4375 22.8125 C69.1275 23.4725 66.8175 24.1325 64.4375 24.8125 C64.39991577 25.80431274 64.39991577 25.80431274 64.36157227 26.81616211 C64.24596898 29.79432305 64.12308246 32.7721392 64 35.75 C63.96068359 36.79091797 63.92136719 37.83183594 63.88085938 38.90429688 C63.83896484 39.89365234 63.79707031 40.88300781 63.75390625 41.90234375 C63.71724854 42.81878662 63.68059082 43.73522949 63.64282227 44.67944336 C63.4375 46.8125 63.4375 46.8125 62.4375 47.8125 C59.76691149 47.95365161 57.11317762 47.85497107 54.4375 47.8125 C53.4475 45.8325 53.4475 45.8325 52.4375 43.8125 C52.004375 44.4725 51.57125 45.1325 51.125 45.8125 C47.44010219 48.55474953 44.57854274 48.25225418 40.09375 48.24609375 C37.09400389 47.75642931 35.68412334 46.81008726 33.4375 44.8125 C33.1075 45.3075 32.7775 45.8025 32.4375 46.3125 C29.36141386 48.61956461 26.16271439 48.20304667 22.4375 47.8125 C21.4475 47.4825 20.4575 47.1525 19.4375 46.8125 C18.4475 47.3075 18.4475 47.3075 17.4375 47.8125 C10.96691176 48.16544118 10.96691176 48.16544118 7.4375 45.8125 C6.4475 46.4725 5.4575 47.1325 4.4375 47.8125 C-0.60519701 48.49330368 -5.79687793 48.80048471 -10.1875 45.9375 C-12.5625 43.8125 -12.5625 43.8125 -13.5625 41.8125 C-13.63200541 40.27226004 -13.64702357 38.72915012 -13.625 37.1875 C-13.61597656 36.37023437 -13.60695312 35.55296875 -13.59765625 34.7109375 C-13.58605469 34.08445313 -13.57445312 33.45796875 -13.5625 32.8125 C-8.27019231 30.59711538 -8.27019231 30.59711538 -4.6875 31.6875 C-3.98625 32.05875 -3.285 32.43 -2.5625 32.8125 C-2.5625 34.7925 -2.5625 36.7725 -2.5625 38.8125 C-1.5725 38.3175 -1.5725 38.3175 -0.5625 37.8125 C-1.08776647 33.78545707 -2.12245874 31.71472859 -4.875 28.75 C-5.50277344 28.06550781 -6.13054687 27.38101563 -6.77734375 26.67578125 C-8.14685564 25.24633448 -9.53769986 23.83730014 -10.9375 22.4375 C-13.8779932 19.4970068 -13.80766722 17.04978408 -13.9375 13 C-13.90648929 8.68434329 -13.89224135 7.2704741 -11.3125 3.6875 C-7.32608604 0.96949048 -4.89679155 -0.57170663 0 0 Z M7.4375 16.8125 C4.33823181 17.13448966 4.33823181 17.13448966 1.4375 17.8125 C2.39382999 19.10565061 3.35263851 20.39696853 4.3125 21.6875 C5.11300781 22.76644531 5.11300781 22.76644531 5.9296875 23.8671875 C7.43623162 25.89502632 7.43623162 25.89502632 9.4375 27.8125 C9.49149736 26.35457116 9.53029177 24.89607288 9.5625 23.4375 C9.59730469 22.21933594 9.59730469 22.21933594 9.6328125 20.9765625 C9.65120051 18.59907757 9.65120051 18.59907757 7.4375 16.8125 Z M20.4375 20.8125 C20.4375 24.1125 20.4375 27.4125 20.4375 30.8125 C20.7675 30.8125 21.0975 30.8125 21.4375 30.8125 C21.4375 27.5125 21.4375 24.2125 21.4375 20.8125 C21.1075 20.8125 20.7775 20.8125 20.4375 20.8125 Z M81.4375 21.8125 C81.4375 27.0925 81.4375 32.3725 81.4375 37.8125 C82.7575 37.1525 84.0775 36.4925 85.4375 35.8125 C87.09890763 35.13283324 88.76450041 34.46311095 90.4375 33.8125 C89.65375 32.94625 88.87 32.08 88.0625 31.1875 C85.60363272 28.26193553 84.41299896 25.53713238 83.4375 21.8125 C82.7775 21.8125 82.1175 21.8125 81.4375 21.8125 Z M42.4375 22.8125 C43.4375 25.8125 43.4375 25.8125 43.4375 25.8125 Z " fill="#353535" transform="translate(161.5625,66.1875)"/>
<path d="M0 0 C4.35667281 2.01446156 7.22543072 4.4934194 9 9 C9.63471033 13.04878377 10.0174425 17.23960488 7.9140625 20.87890625 C6.67286529 22.31022904 5.33963716 23.66036284 4 25 C3.505 26.485 3.505 26.485 3 28 C3.61875 28.2475 4.2375 28.495 4.875 28.75 C7.44896927 30.26409957 7.89331396 31.26215496 9 34 C9.70698159 38.05834622 9.83964211 42.05556563 8.18359375 45.890625 C3.32479746 52.40963694 -5.03721122 56.13345 -12 60 C-13.44439453 60.83337891 -13.44439453 60.83337891 -14.91796875 61.68359375 C-20.23631069 64.59425221 -23.93509274 65.8086543 -30 65 C-34.6489842 63.30133269 -37.66153882 61.40709992 -40 57 C-40.90132047 51.0782403 -41.08785446 45.75868571 -37.5 40.75 C-36.2625 39.38875 -36.2625 39.38875 -35 38 C-35.825 37.236875 -36.65 36.47375 -37.5 35.6875 C-40.61171992 31.92490456 -40.79662815 28.44051928 -40.51953125 23.671875 C-39.62373148 19.06490475 -37.71397344 16.79192795 -34 14 C-30.47035759 11.8062292 -26.90551847 9.75582996 -23.2421875 7.796875 C-20.61101905 6.33863707 -18.34841163 4.8565146 -16 3 C-10.83362971 -0.32123804 -5.99514006 -1.0228675 0 0 Z " fill="#F40304" transform="translate(131,58)"/>
<path d="M0 0 C0.76441406 0.07605469 1.52882812 0.15210937 2.31640625 0.23046875 C4.79302133 0.91005558 5.80173561 1.87362271 7.4375 3.8125 C8.0975 2.4925 8.7575 1.1725 9.4375 -0.1875 C11.08324566 -0.21438151 12.72911413 -0.23384123 14.375 -0.25 C15.29152344 -0.26160156 16.20804688 -0.27320312 17.15234375 -0.28515625 C19.4375 -0.1875 19.4375 -0.1875 20.4375 0.8125 C20.50994053 2.83214199 20.52127188 4.85417124 20.5 6.875 C20.49097656 7.97972656 20.48195312 9.08445312 20.47265625 10.22265625 C20.46105469 11.07730469 20.44945312 11.93195313 20.4375 12.8125 C21.20707031 12.62042969 21.97664063 12.42835937 22.76953125 12.23046875 C25.4375 11.8125 25.4375 11.8125 28.125 13.125 C30.4375 14.8125 30.4375 14.8125 32.4375 16.8125 C33.0975 15.8225 33.7575 14.8325 34.4375 13.8125 C37.06106462 12.82734622 39.68274123 12.39011071 42.4375 11.8125 C42.9325 12.8025 42.9325 12.8025 43.4375 13.8125 C40.7975 14.4725 38.1575 15.1325 35.4375 15.8125 C34.24485795 20.5830682 34.25349414 24.92069705 34.25 29.8125 C34.23163086 31.16601562 34.23163086 31.16601562 34.21289062 32.546875 C34.21095703 33.41828125 34.20902344 34.2896875 34.20703125 35.1875 C34.20292236 35.97898438 34.19881348 36.77046875 34.19458008 37.5859375 C34.46778407 40.09007863 35.10454703 41.68399476 36.4375 43.8125 C39.08208379 45.13479189 41.11511301 44.90927194 44.0625 44.875 C45.06539062 44.86597656 46.06828125 44.85695312 47.1015625 44.84765625 C47.87242187 44.83605469 48.64328125 44.82445312 49.4375 44.8125 C51.61561675 39.23546719 51.8264943 34.18604234 52.00390625 28.29492188 C52.08242341 26.46342374 52.25238435 24.6363099 52.4375 22.8125 C53.4275 22.3175 53.4275 22.3175 54.4375 21.8125 C54.6123936 25.20767814 54.71853765 28.60169487 54.8125 32 C54.86277344 32.95970703 54.91304688 33.91941406 54.96484375 34.90820312 C55.10775014 41.79152777 55.10775014 41.79152777 53.27294922 44.58642578 C50.02857203 47.5365284 47.10764625 48.45768804 42.8125 48.3125 C41.89210937 48.3021875 40.97171875 48.291875 40.0234375 48.28125 C37.09163945 47.74980624 35.64891467 46.76435896 33.4375 44.8125 C33.1075 45.3075 32.7775 45.8025 32.4375 46.3125 C29.36141386 48.61956461 26.16271439 48.20304667 22.4375 47.8125 C21.4475 47.4825 20.4575 47.1525 19.4375 46.8125 C18.4475 47.3075 18.4475 47.3075 17.4375 47.8125 C10.96691176 48.16544118 10.96691176 48.16544118 7.4375 45.8125 C6.4475 46.4725 5.4575 47.1325 4.4375 47.8125 C-0.60519701 48.49330368 -5.79687793 48.80048471 -10.1875 45.9375 C-12.5625 43.8125 -12.5625 43.8125 -13.5625 41.8125 C-13.63200541 40.27226004 -13.64702357 38.72915012 -13.625 37.1875 C-13.61597656 36.37023437 -13.60695312 35.55296875 -13.59765625 34.7109375 C-13.58605469 34.08445313 -13.57445312 33.45796875 -13.5625 32.8125 C-8.27019231 30.59711538 -8.27019231 30.59711538 -4.6875 31.6875 C-3.98625 32.05875 -3.285 32.43 -2.5625 32.8125 C-2.5625 34.7925 -2.5625 36.7725 -2.5625 38.8125 C-1.5725 38.3175 -1.5725 38.3175 -0.5625 37.8125 C-1.08776647 33.78545707 -2.12245874 31.71472859 -4.875 28.75 C-5.50277344 28.06550781 -6.13054687 27.38101563 -6.77734375 26.67578125 C-8.14685564 25.24633448 -9.53769986 23.83730014 -10.9375 22.4375 C-13.8779932 19.4970068 -13.80766722 17.04978408 -13.9375 13 C-13.90648929 8.68434329 -13.89224135 7.2704741 -11.3125 3.6875 C-7.32608604 0.96949048 -4.89679155 -0.57170663 0 0 Z M7.4375 16.8125 C4.33823181 17.13448966 4.33823181 17.13448966 1.4375 17.8125 C2.39382999 19.10565061 3.35263851 20.39696853 4.3125 21.6875 C5.11300781 22.76644531 5.11300781 22.76644531 5.9296875 23.8671875 C7.43623162 25.89502632 7.43623162 25.89502632 9.4375 27.8125 C9.49149736 26.35457116 9.53029177 24.89607288 9.5625 23.4375 C9.59730469 22.21933594 9.59730469 22.21933594 9.6328125 20.9765625 C9.65120051 18.59907757 9.65120051 18.59907757 7.4375 16.8125 Z M20.4375 20.8125 C20.4375 24.1125 20.4375 27.4125 20.4375 30.8125 C20.7675 30.8125 21.0975 30.8125 21.4375 30.8125 C21.4375 27.5125 21.4375 24.2125 21.4375 20.8125 C21.1075 20.8125 20.7775 20.8125 20.4375 20.8125 Z " fill="#0B0B0B" transform="translate(161.5625,66.1875)"/>
<path d="M0 0 C2 2 2 2 2.1953125 3.9453125 C2.13020833 5.96354167 2.06510417 7.98177083 2 10 C1.34 10 0.68 10 0 10 C0 11.32 0 12.64 0 14 C-0.66 14 -1.32 14 -2 14 C-2 14.66 -2 15.32 -2 16 C-3.32 16 -4.64 16 -6 16 C-6 17.32 -6 18.64 -6 20 C-4.68 20.33 -3.36 20.66 -2 21 C-2 21.99 -2 22.98 -2 24 C-0.68 24.66 0.64 25.32 2 26 C2 29.3 2 32.6 2 36 C1.34 36 0.68 36 0 36 C0 36.66 0 37.32 0 38 C-0.66 38 -1.32 38 -2 38 C-2 38.66 -2 39.32 -2 40 C-2.66 40 -3.32 40 -4 40 C-4 40.66 -4 41.32 -4 42 C-5.32 42 -6.64 42 -8 42 C-8 42.66 -8 43.32 -8 44 C-8.66 44 -9.32 44 -10 44 C-10 44.66 -10 45.32 -10 46 C-11.6232687 46.6708712 -13.24867578 47.33657029 -14.875 48 C-15.77992187 48.37125 -16.68484375 48.7425 -17.6171875 49.125 C-20 50 -20 50 -22 50 C-22 50.66 -22 51.32 -22 52 C-25.4766338 54.14336161 -28.21229195 54.21277626 -32.25 54.125 C-33.32765625 54.10695312 -34.4053125 54.08890625 -35.515625 54.0703125 C-36.74539062 54.03550781 -36.74539062 54.03550781 -38 54 C-38 53.34 -38 52.68 -38 52 C-38.66 52 -39.32 52 -40 52 C-40 50.02 -40 48.04 -40 46 C-40.66 46 -41.32 46 -42 46 C-42.28571429 37.42857143 -42.28571429 37.42857143 -40 34 C-38.02 34 -36.04 34 -34 34 C-34 32.02 -34 30.04 -34 28 C-32.68 28 -31.36 28 -30 28 C-30 29.98 -30 31.96 -30 34 C-29.34 34 -28.68 34 -28 34 C-28 26.74 -28 19.48 -28 12 C-27.34 12 -26.68 12 -26 12 C-26 12.66 -26 13.32 -26 14 C-24.576875 13.9690625 -24.576875 13.9690625 -23.125 13.9375 C-20 14 -20 14 -18 15 C-17.7525 15.66 -17.505 16.32 -17.25 17 C-16.09834868 19.36247285 -16.09834868 19.36247285 -12.875 19.75 C-11.92625 19.8325 -10.9775 19.915 -10 20 C-10 18.68 -10 17.36 -10 16 C-9.01 15.67 -8.02 15.34 -7 15 C-6.67 13.35 -6.34 11.7 -6 10 C-5.34 10 -4.68 10 -4 10 C-4.04125 9.236875 -4.0825 8.47375 -4.125 7.6875 C-4 5 -4 5 -2 2 C-1.34 2 -0.68 2 0 2 C0 1.34 0 0.68 0 0 Z " fill="#F50405" transform="translate(136,66)"/>
<path d="M0 0 C2.0536788 3.48232493 2.16929571 6.41443571 2.4375 10.4375 C0.7875 11.4275 -0.8625 12.4175 -2.5625 13.4375 C-1.923125 13.911875 -1.28375 14.38625 -0.625 14.875 C2.2859621 18.49164989 2.65846594 21.85450279 2.4375 26.4375 C0.87568681 30.107761 -0.22160596 31.2102373 -3.5625 33.4375 C-7.88181498 33.88021404 -12.22299526 33.7616403 -16.5625 33.75 C-17.76390625 33.76611328 -18.9653125 33.78222656 -20.203125 33.79882812 C-21.35296875 33.79947266 -22.5028125 33.80011719 -23.6875 33.80078125 C-24.74195313 33.80376221 -25.79640625 33.80674316 -26.8828125 33.80981445 C-29.5625 33.4375 -29.5625 33.4375 -31.38671875 32.11401367 C-33.08171899 29.69716014 -33.24129336 27.32835978 -33.5625 24.4375 C-32.9025 24.1075 -32.2425 23.7775 -31.5625 23.4375 C-30.9025 25.7475 -30.2425 28.0575 -29.5625 30.4375 C-26.2625 30.4375 -22.9625 30.4375 -19.5625 30.4375 C-19.5625 29.1175 -19.5625 27.7975 -19.5625 26.4375 C-21.2125 26.4375 -22.8625 26.4375 -24.5625 26.4375 C-24.5625 19.5075 -24.5625 12.5775 -24.5625 5.4375 C-22.9125 5.4375 -21.2625 5.4375 -19.5625 5.4375 C-19.8925 3.1275 -20.2225 0.8175 -20.5625 -1.5625 C-13.75048561 -2.69783573 -6.13662435 -3.74184411 0 0 Z M-22.5625 7.4375 C-22.5625 12.7175 -22.5625 17.9975 -22.5625 23.4375 C-21.2425 22.7775 -19.9225 22.1175 -18.5625 21.4375 C-16.90109237 20.75783324 -15.23549959 20.08811095 -13.5625 19.4375 C-14.34625 18.57125 -15.13 17.705 -15.9375 16.8125 C-18.39636728 13.88693553 -19.58700104 11.16213238 -20.5625 7.4375 C-21.2225 7.4375 -21.8825 7.4375 -22.5625 7.4375 Z " fill="#282828" transform="translate(265.5625,80.5625)"/>
<path d="M0 0 C0 0.66 0 1.32 0 2 C0.61875 2.226875 1.2375 2.45375 1.875 2.6875 C4.75668137 4.46736202 5.02411196 5.75850405 6 9 C6.30339365 11.81758789 6.32480182 14.60562184 6.3125 17.4375 C6.32861328 18.17548828 6.34472656 18.91347656 6.36132812 19.67382812 C6.3656203 24.50252208 5.65769181 27.81623698 3 32 C-0.4392532 33.7196266 -4.23164562 33.38219964 -8 33 C-11.28931514 31.27310955 -11.8140267 30.5579199 -13 27 C-13.22745382 23.69140709 -13.18515349 20.37811642 -13.1875 17.0625 C-13.19974609 16.15564453 -13.21199219 15.24878906 -13.22460938 14.31445312 C-13.22750977 13.00057617 -13.22750977 13.00057617 -13.23046875 11.66015625 C-13.23457764 10.86230713 -13.23868652 10.06445801 -13.24291992 9.24243164 C-12.97106507 6.73289715 -12.32604829 5.13762043 -11 3 C-9.16015625 1.953125 -9.16015625 1.953125 -7.0625 1.25 C-6.37285156 1.00765625 -5.68320313 0.7653125 -4.97265625 0.515625 C-3 0 -3 0 0 0 Z M-4 10 C-3 13 -3 13 -3 13 Z " fill="#F6F6F6" transform="translate(208,79)"/>
<path d="M0 0 C2.625 1.4375 2.625 1.4375 4 4 C4.30266213 7.0318396 4.23343035 9.9654054 4 13 C2.02 13 0.04 13 -2 13 C-2.33 10.69 -2.66 8.38 -3 6 C-4.32 6 -5.64 6 -7 6 C-7.40687132 9.32278247 -7.67206571 11.92967314 -5.83984375 14.84765625 C-4.29316697 16.64749752 -2.69174359 18.33605501 -1 20 C5.1480916 26.1480916 5.1480916 26.1480916 5.25 31.8125 C5.21352335 36.01947379 4.78677436 38.67730749 2 42 C-1.72789104 43.86394552 -5.94037972 43.55445363 -10 43 C-13.125 40.9375 -13.125 40.9375 -15 38 C-15.3125 34.1875 -15.3125 34.1875 -15 31 C-12.69 31 -10.38 31 -8 31 C-7.67 32.98 -7.34 34.96 -7 37 C-5.68 37 -4.36 37 -3 37 C-2.3510372 31.22428337 -2.3510372 31.22428337 -5.125 26.4375 C-6.07375 25.633125 -7.0225 24.82875 -8 24 C-9.10449436 22.7898124 -10.18753134 21.55974582 -11.25 20.3125 C-11.75015625 19.73113281 -12.2503125 19.14976563 -12.765625 18.55078125 C-15.53742351 15.06849008 -15.40312771 11.80718708 -15.328125 7.48828125 C-15 5 -15 5 -13.125 1.875 C-8.7176002 -0.76943988 -5.01524266 -0.87957038 0 0 Z " fill="#ECECEC" transform="translate(165,69)"/>
<path d="M0 0 C1.98 0 3.96 0 6 0 C6.33 4.62 6.66 9.24 7 14 C7.66 13.01 8.32 12.02 9 11 C10.27875 11.2475 11.5575 11.495 12.875 11.75 C13.59429687 11.88921875 14.31359375 12.0284375 15.0546875 12.171875 C17 13 17 13 18.109375 14.65820312 C19.24850805 17.65342357 19.22552771 20.09406286 19.1953125 23.296875 C19.18886719 24.50214844 19.18242187 25.70742187 19.17578125 26.94921875 C19.15902344 28.20347656 19.14226562 29.45773438 19.125 30.75 C19.11597656 32.01972656 19.10695312 33.28945312 19.09765625 34.59765625 C19.07409005 37.73196093 19.04118832 40.86588541 19 44 C16.69 44 14.38 44 12 44 C11.67 35.42 11.34 26.84 11 18 C9.68 18.33 8.36 18.66 7 19 C6.67 26.92 6.34 34.84 6 43 C4.02 43 2.04 43 0 43 C0 28.81 0 14.62 0 0 Z " fill="#FBFBFB" transform="translate(173,68)"/>
<path d="M0 0 C2 2 2 2 2.1953125 3.9453125 C2.13020833 5.96354167 2.06510417 7.98177083 2 10 C1.34 10 0.68 10 0 10 C0 11.32 0 12.64 0 14 C-0.66 14 -1.32 14 -2 14 C-2 14.66 -2 15.32 -2 16 C-3.32 16 -4.64 16 -6 16 C-6 17.32 -6 18.64 -6 20 C-4.68 20.33 -3.36 20.66 -2 21 C-2 21.99 -2 22.98 -2 24 C-0.68 24.66 0.64 25.32 2 26 C2 29.3 2 32.6 2 36 C1.34 36 0.68 36 0 36 C0 36.66 0 37.32 0 38 C-0.66 38 -1.32 38 -2 38 C-2 37.34 -2 36.68 -2 36 C-3.32 36 -4.64 36 -6 36 C-6 34.68 -6 33.36 -6 32 C-4.02 32 -2.04 32 0 32 C0 30.02 0 28.04 0 26 C-0.66 26 -1.32 26 -2 26 C-2 26.66 -2 27.32 -2 28 C-3.98 28.33 -5.96 28.66 -8 29 C-8 29.99 -8 30.98 -8 32 C-9.32 32 -10.64 32 -12 32 C-12 31.34 -12 30.68 -12 30 C-13.98 30 -15.96 30 -18 30 C-18 30.66 -18 31.32 -18 32 C-20.475 32.495 -20.475 32.495 -23 33 C-23 33.33 -23 33.66 -23 34 C-24.65 34 -26.3 34 -28 34 C-28 26.74 -28 19.48 -28 12 C-27.34 12 -26.68 12 -26 12 C-26 12.66 -26 13.32 -26 14 C-24.576875 13.9690625 -24.576875 13.9690625 -23.125 13.9375 C-20 14 -20 14 -18 15 C-17.7525 15.66 -17.505 16.32 -17.25 17 C-16.09834868 19.36247285 -16.09834868 19.36247285 -12.875 19.75 C-11.92625 19.8325 -10.9775 19.915 -10 20 C-10 18.68 -10 17.36 -10 16 C-9.01 15.67 -8.02 15.34 -7 15 C-6.67 13.35 -6.34 11.7 -6 10 C-5.34 10 -4.68 10 -4 10 C-4.04125 9.236875 -4.0825 8.47375 -4.125 7.6875 C-4 5 -4 5 -2 2 C-1.34 2 -0.68 2 0 2 C0 1.34 0 0.68 0 0 Z " fill="#F00509" transform="translate(136,66)"/>
<path d="M0 0 C4.35667281 2.01446156 7.22543072 4.4934194 9 9 C9.63471033 13.04878377 10.0174425 17.23960488 7.9140625 20.87890625 C6.67286529 22.31022904 5.33963716 23.66036284 4 25 C3.505 26.485 3.505 26.485 3 28 C3.61875 28.2475 4.2375 28.495 4.875 28.75 C7.44896927 30.26409957 7.89331396 31.26215496 9 34 C9.70698159 38.05834622 9.83964211 42.05556563 8.18359375 45.890625 C3.32479746 52.40963694 -5.03721122 56.13345 -12 60 C-13.44439453 60.83337891 -13.44439453 60.83337891 -14.91796875 61.68359375 C-20.23631069 64.59425221 -23.93509274 65.8086543 -30 65 C-34.6489842 63.30133269 -37.66153882 61.40709992 -40 57 C-40.90132047 51.0782403 -41.08785446 45.75868571 -37.5 40.75 C-36.2625 39.38875 -36.2625 39.38875 -35 38 C-35.825 37.236875 -36.65 36.47375 -37.5 35.6875 C-40.61171992 31.92490456 -40.79662815 28.44051928 -40.51953125 23.671875 C-39.62373148 19.06490475 -37.71397344 16.79192795 -34 14 C-30.47035759 11.8062292 -26.90551847 9.75582996 -23.2421875 7.796875 C-20.61101905 6.33863707 -18.34841163 4.8565146 -16 3 C-10.83362971 -0.32123804 -5.99514006 -1.0228675 0 0 Z M-13 4 C-13 4.66 -13 5.32 -13 6 C-14.423125 6.2165625 -14.423125 6.2165625 -15.875 6.4375 C-18.8934494 6.82935399 -18.8934494 6.82935399 -21 8 C-21 8.66 -21 9.32 -21 10 C-21.66 10 -22.32 10 -23 10 C-23 10.66 -23 11.32 -23 12 C-24.1446875 12.2165625 -24.1446875 12.2165625 -25.3125 12.4375 C-28.08172908 12.9632594 -28.08172908 12.9632594 -31 14 C-31 14.66 -31 15.32 -31 16 C-32.32 16.33 -33.64 16.66 -35 17 C-35 18.65 -35 20.3 -35 22 C-35.99 22 -36.98 22 -38 22 C-38.29341888 27.67276511 -38.00559652 30.99067246 -35 36 C-33.68 36 -32.36 36 -31 36 C-32.1993793 39.41361802 -33.33297472 41.56488996 -36 44 C-37.14352916 46.28705831 -37.10334439 47.59264762 -37.0625 50.125 C-37.041875 51.40375 -37.02125 52.6825 -37 54 C-36.34 54 -35.68 54 -35 54 C-35 55.98 -35 57.96 -35 60 C-34.34 60 -33.68 60 -33 60 C-33 60.66 -33 61.32 -33 62 C-31.08364783 62.05423638 -29.16685075 62.09289963 -27.25 62.125 C-26.18265625 62.14820313 -25.1153125 62.17140625 -24.015625 62.1953125 C-21.07529894 62.00487687 -19.47638122 61.52670104 -17 60 C-17 59.34 -17 58.68 -17 58 C-13 56.66666667 -9 55.33333333 -5 54 C-5 53.34 -5 52.68 -5 52 C-4.34 52 -3.68 52 -3 52 C-3 51.34 -3 50.68 -3 50 C-1.68 50 -0.36 50 1 50 C1 49.34 1 48.68 1 48 C1.66 48 2.32 48 3 48 C3 47.34 3 46.68 3 46 C3.66 46 4.32 46 5 46 C5 45.34 5 44.68 5 44 C5.66 44 6.32 44 7 44 C7 40.7 7 37.4 7 34 C5.68 33.34 4.36 32.68 3 32 C3 31.01 3 30.02 3 29 C1.68 28.67 0.36 28.34 -1 28 C-1 26.68 -1 25.36 -1 24 C0.32 24 1.64 24 3 24 C3 23.34 3 22.68 3 22 C3.66 22 4.32 22 5 22 C5 20.68 5 19.36 5 18 C5.66 18 6.32 18 7 18 C7.37552165 11.68731397 7.37552165 11.68731397 5 6 C4.34 6 3.68 6 3 6 C3 5.34 3 4.68 3 4 C2.34 4 1.68 4 1 4 C1 3.34 1 2.68 1 2 C-0.58294782 1.94562393 -2.16644256 1.90703729 -3.75 1.875 C-4.63171875 1.85179687 -5.5134375 1.82859375 -6.421875 1.8046875 C-9.1135858 2.00860498 -10.69904974 2.63448279 -13 4 Z " fill="#440304" transform="translate(131,58)"/>
<path d="M0 0 C0 0.66 0 1.32 0 2 C0.99 2.33 1.98 2.66 3 3 C4.4783226 5.95664519 4.06032783 8.74229737 4 12 C2.02 12 0.04 12 -2 12 C-2.33 10.35 -2.66 8.7 -3 7 C-3.99 7 -4.98 7 -6 7 C-5.69184125 10.25527699 -5.39115786 11.64285587 -2.93359375 13.88671875 C-1.69802734 14.77810547 -1.69802734 14.77810547 -0.4375 15.6875 C3.7831721 19.22264893 3.7831721 19.22264893 4.734375 22.6328125 C4.81335568 25.3418498 4.83093586 27.41537631 4 30 C1.96338063 32.03661937 0.62048809 32.88857432 -2.21875 33.3984375 C-5.65800549 33.36310268 -8.35959398 33.2655342 -11.5625 31.9375 C-13.7214109 29.02766357 -13.26484554 26.5092034 -13 23 C-11.02 23 -9.04 23 -7 23 C-6.67 24.32 -6.34 25.64 -6 27 C-4.68 27.33 -3.36 27.66 -2 28 C-3.12397551 23.33999923 -3.12397551 23.33999923 -6.625 20.25 C-7.40875 19.8375 -8.1925 19.425 -9 19 C-9 18.34 -9 17.68 -9 17 C-9.66 17 -10.32 17 -11 17 C-13.06520632 13.90219052 -13.29477024 13.0459519 -13.3125 9.5 C-13.32925781 8.7265625 -13.34601563 7.953125 -13.36328125 7.15625 C-12.90640667 4.44447829 -12.18778683 3.63098522 -10 2 C-8.02734375 1.26953125 -8.02734375 1.26953125 -5.9375 0.8125 C-5.24527344 0.65394531 -4.55304688 0.49539062 -3.83984375 0.33203125 C-2 0 -2 0 0 0 Z " fill="#ECECEC" transform="translate(261,79)"/>
<path d="M0 0 C4.7517398 0.43197635 6.92000054 1.32769295 10 5 C10.66 4.01 11.32 3.02 12 2 C14.62356462 1.01484622 17.24524123 0.57761071 20 0 C20.33 0.66 20.66 1.32 21 2 C18.36 2.66 15.72 3.32 13 4 C11.80735795 8.7705682 11.81599414 13.10819705 11.8125 18 C11.80025391 18.90234375 11.78800781 19.8046875 11.77539062 20.734375 C11.77345703 21.60578125 11.77152344 22.4771875 11.76953125 23.375 C11.76336792 24.56222656 11.76336792 24.56222656 11.75708008 25.7734375 C12.03028407 28.27757863 12.66704703 29.87149476 14 32 C16.64458379 33.32229189 18.67761301 33.09677194 21.625 33.0625 C22.62789062 33.05347656 23.63078125 33.04445312 24.6640625 33.03515625 C25.43492187 33.02355469 26.20578125 33.01195312 27 33 C29.17811675 27.42296719 29.3889943 22.37354234 29.56640625 16.48242188 C29.64492341 14.65092374 29.81488435 12.8238099 30 11 C30.66 10.67 31.32 10.34 32 10 C32.1748936 13.39517814 32.28103765 16.78919487 32.375 20.1875 C32.42527344 21.14720703 32.47554687 22.10691406 32.52734375 23.09570312 C32.67025014 29.97902777 32.67025014 29.97902777 30.83544922 32.77392578 C27.59107203 35.7240284 24.67014625 36.64518804 20.375 36.5 C19.45460937 36.4896875 18.53421875 36.479375 17.5859375 36.46875 C14.65413945 35.93730624 13.21141467 34.95185896 11 33 C10.67 33.495 10.34 33.99 10 34.5 C6.93819934 36.7963505 3.65144849 36.364444 0 36 C-1.32 35.67 -2.64 35.34 -4 35 C-4 26.09 -4 17.18 -4 8 C-2.68 7.67 -1.36 7.34 0 7 C1 8 1 8 1.11352539 10.50024414 C1.10828857 11.58426514 1.10305176 12.66828613 1.09765625 13.78515625 C1.09443359 14.95498047 1.09121094 16.12480469 1.08789062 17.33007812 C1.07951172 18.56177734 1.07113281 19.79347656 1.0625 21.0625 C1.05798828 22.29806641 1.05347656 23.53363281 1.04882812 24.80664062 C1.03699608 27.87114117 1.02051173 30.93554721 1 34 C3.31 34 5.62 34 8 34 C7.86138974 29.56224325 7.71288136 25.12487223 7.5625 20.6875 C7.52318359 19.42486328 7.48386719 18.16222656 7.44335938 16.86132812 C7.40146484 15.65283203 7.35957031 14.44433594 7.31640625 13.19921875 C7.27974854 12.08377686 7.24309082 10.96833496 7.20532227 9.8190918 C7.11068791 6.92126429 7.11068791 6.92126429 6 4 C2.99152582 2.77479736 2.99152582 2.77479736 0 2 C0 1.34 0 0.68 0 0 Z M-2 9 C-2 12.3 -2 15.6 -2 19 C-1.67 19 -1.34 19 -1 19 C-1 15.7 -1 12.4 -1 9 C-1.33 9 -1.66 9 -2 9 Z " fill="#141414" transform="translate(184,78)"/>
<path d="M0 0 C1.67542976 0.28604898 3.34385343 0.61781233 5 1 C5.33 3.31 5.66 5.62 6 8 C6.99 8 7.98 8 9 8 C9.33 10.31 9.66 12.62 10 15 C8.35 15 6.7 15 5 15 C5 21.93 5 28.86 5 36 C6.65 36 8.3 36 10 36 C10 37.32 10 38.64 10 40 C6.78548731 41.60725635 3.56387464 41.05748185 0 41 C-3.86382803 33.27234393 -3.5027986 25.45088408 -3 17 C-2.67 16.34 -2.34 15.68 -2 15 C-2.66 15 -3.32 15 -4 15 C-4 13.35 -4 11.7 -4 10 C-3.34 9.67 -2.68 9.34 -2 9 C-1.5720382 7.13690908 -1.5720382 7.13690908 -1.4375 5 C-1.09589041 1.09589041 -1.09589041 1.09589041 0 0 Z " fill="#DBDBDB" transform="translate(236,71)"/>
<path d="M0 0 C1.67542976 0.28604898 3.34385343 0.61781233 5 1 C5 3.31 5 5.62 5 8 C6.98 8 8.96 8 11 8 C11 8.66 11 9.32 11 10 C9.35 10.33 7.7 10.66 6 11 C6.433125 11.48210937 6.86625 11.96421875 7.3125 12.4609375 C7.869375 13.09257813 8.42625 13.72421875 9 14.375 C9.556875 15.00148438 10.11375 15.62796875 10.6875 16.2734375 C12 18 12 18 12 20 C12.66 20 13.32 20 14 20 C14 25.94 14 31.88 14 38 C16.31 38 18.62 38 21 38 C21 38.66 21 39.32 21 40 C14.375 40.25 14.375 40.25 11 38 C10.01 38.66 9.02 39.32 8 40 C2.95730299 40.68080368 -2.23437793 40.98798471 -6.625 38.125 C-9 36 -9 36 -10 34 C-10.06950541 32.45976004 -10.08452357 30.91665012 -10.0625 29.375 C-10.05347656 28.55773437 -10.04445312 27.74046875 -10.03515625 26.8984375 C-10.02355469 26.27195312 -10.01195312 25.64546875 -10 25 C-4.70769231 22.78461538 -4.70769231 22.78461538 -1.125 23.875 C-0.42375 24.24625 0.2775 24.6175 1 25 C1 26.98 1 28.96 1 31 C2.32 30.67 3.64 30.34 5 30 C4.67 30.99 4.34 31.98 4 33 C2.35 32.67 0.7 32.34 -1 32 C-1 30.02 -1 28.04 -1 26 C-3.31 26 -5.62 26 -8 26 C-7.74445946 27.46109063 -7.46999628 28.91888096 -7.1875 30.375 C-7.03667969 31.18710938 -6.88585937 31.99921875 -6.73046875 32.8359375 C-6.12455058 35.35820641 -6.12455058 35.35820641 -3 37 C-0.58849742 37.31662439 -0.58849742 37.31662439 2 37.25 C3.299375 37.25773437 3.299375 37.25773437 4.625 37.265625 C7.265795 37.15414552 7.265795 37.15414552 10 35 C11.6908613 29.9274161 11.87642675 24.3553969 10 19.3125 C7.49033018 16.41069427 4.69722775 13.99166614 1.7421875 11.55078125 C0 10 0 10 -1 8 C-1.125 4.4375 -1.125 4.4375 -1 1 C-0.67 0.67 -0.34 0.34 0 0 Z " fill="#0C0C0C" transform="translate(158,74)"/>
<path d="M0 0 C0 2.64 0 5.28 0 8 C-1.98 8.66 -3.96 9.32 -6 10 C-6.33 17.26 -6.66 24.52 -7 32 C-8.98 32 -10.96 32 -13 32 C-13 21.77 -13 11.54 -13 1 C-11.35 1 -9.7 1 -8 1 C-8 2.32 -8 3.64 -8 5 C-7.34 5 -6.68 5 -6 5 C-5.814375 4.0409375 -5.814375 4.0409375 -5.625 3.0625 C-5.41875 2.381875 -5.2125 1.70125 -5 1 C-3 0 -3 0 0 0 Z " fill="#F9F9F9" transform="translate(230,80)"/>
<path d="M0 0 C1.32719886 6.96779403 1.08825381 13.92988911 1 21 C2.65 21 4.3 21 6 21 C6 22.32 6 23.64 6 25 C2.74696956 26.62651522 -0.39225602 26.11453156 -4 26 C-5 25 -5 25 -5.11352539 22.68334961 C-5.10828857 21.68311768 -5.10305176 20.68288574 -5.09765625 19.65234375 C-5.09443359 18.57275391 -5.09121094 17.49316406 -5.08789062 16.38085938 C-5.07951172 15.24455078 -5.07113281 14.10824219 -5.0625 12.9375 C-5.05798828 11.79732422 -5.05347656 10.65714844 -5.04882812 9.48242188 C-5.03699747 6.65489649 -5.0205141 3.8274736 -5 1 C-3 0 -3 0 0 0 Z " fill="#F8F8F8" transform="translate(240,86)"/>
<path d="M0 0 C0.66 0.33 1.32 0.66 2 1 C2.99 0.67 3.98 0.34 5 0 C5.06058594 1.20398438 5.12117187 2.40796875 5.18359375 3.6484375 C5.26799732 5.22397077 5.35264541 6.79949096 5.4375 8.375 C5.47681641 9.1690625 5.51613281 9.963125 5.55664062 10.78125 C5.68893404 15.02601221 5.68893404 15.02601221 7 19 C7.99 19.66 8.98 20.32 10 21 C9.34 21 8.68 21 8 21 C8 22.32 8 23.64 8 25 C5.1875 24.8125 5.1875 24.8125 2 24 C-1.7384873 19.61963785 -1.38847361 15.2023983 -1.25 9.75 C-1.24484375 8.92242187 -1.2396875 8.09484375 -1.234375 7.2421875 C-1.15453696 1.15453696 -1.15453696 1.15453696 0 0 Z " fill="#F6F6F6" transform="translate(196,87)"/>
<path d="M0 0 C0.66 0.33 1.32 0.66 2 1 C2.66 1 3.32 1 4 1 C5.30475618 3.60951236 5.11301572 5.52701285 5.09765625 8.4453125 C5.09443359 9.52167969 5.09121094 10.59804687 5.08789062 11.70703125 C5.07951172 12.83496094 5.07113281 13.96289062 5.0625 15.125 C5.05798828 16.26066406 5.05347656 17.39632812 5.04882812 18.56640625 C5.03701615 21.37765638 5.02054507 24.1888023 5 27 C3.02 27 1.04 27 -1 27 C-1.02892385 22.87501462 -1.04677267 18.75005515 -1.0625 14.625 C-1.07087891 13.449375 -1.07925781 12.27375 -1.08789062 11.0625 C-1.09111328 9.94101563 -1.09433594 8.81953125 -1.09765625 7.6640625 C-1.10289307 6.62717285 -1.10812988 5.5902832 -1.11352539 4.52197266 C-1 2 -1 2 0 0 Z " fill="#FCFCFC" transform="translate(186,84)"/>
<path d="M0 0 C1.64574566 -0.02688151 3.29161413 -0.04634123 4.9375 -0.0625 C5.85402344 -0.07410156 6.77054688 -0.08570312 7.71484375 -0.09765625 C10 0 10 0 11 1 C11.15179378 3.30901696 11.22181122 5.62367069 11.25 7.9375 C11.28867188 9.83822266 11.28867188 9.83822266 11.328125 11.77734375 C11.21984375 12.84082031 11.1115625 13.90429688 11 15 C10.01 15.66 9.02 16.32 8 17 C8 12.05 8 7.1 8 2 C6.02 2 4.04 2 2 2 C2 16.19 2 30.38 2 45 C3.98 45 5.96 45 8 45 C8 37.08 8 29.16 8 21 C8.33 21 8.66 21 9 21 C9 29.58 9 38.16 9 47 C5.04 46.505 5.04 46.505 1 46 C0.35315713 30.65984609 -0.1683227 15.35477092 0 0 Z " fill="#686868" transform="translate(171,66)"/>
<path d="M0 0 C4.36365291 2.01768905 7.21104351 4.49447995 9 9 C9.78753142 13.4525815 9.8784529 17.41163458 7.65625 21.4296875 C6.18352709 23.38174004 4.67279677 25.21767487 3 27 C2.34 26.67 1.68 26.34 1 26 C1 25.34 1 24.68 1 24 C1.66 24 2.32 24 3 24 C3 23.34 3 22.68 3 22 C3.66 22 4.32 22 5 22 C5 20.68 5 19.36 5 18 C5.66 18 6.32 18 7 18 C6.34 14.04 5.68 10.08 5 6 C4.34 6 3.68 6 3 6 C3 5.34 3 4.68 3 4 C2.34 4 1.68 4 1 4 C1 3.34 1 2.68 1 2 C-0.58367747 2.14204741 -2.16693318 2.28880153 -3.75 2.4375 C-4.63171875 2.51871094 -5.5134375 2.59992187 -6.421875 2.68359375 C-8.69350452 2.96238465 -10.79851823 3.38790577 -13 4 C-13 4.66 -13 5.32 -13 6 C-15.64 6.66 -18.28 7.32 -21 8 C-21 8.66 -21 9.32 -21 10 C-21.66 10 -22.32 10 -23 10 C-23 10.66 -23 11.32 -23 12 C-25.90600261 13.25664978 -27.79604584 14 -31 14 C-31 14.66 -31 15.32 -31 16 C-31.99 16 -32.98 16 -34 16 C-34 15.34 -34 14.68 -34 14 C-33.03578125 13.45730469 -32.0715625 12.91460937 -31.078125 12.35546875 C-29.80200123 11.6329575 -28.52596412 10.91029317 -27.25 10.1875 C-26.61578125 9.83107422 -25.9815625 9.47464844 -25.328125 9.10742188 C-22.04751382 7.24499157 -18.97362346 5.33544856 -16 3 C-10.83362971 -0.32123804 -5.99514006 -1.0228675 0 0 Z " fill="#2D0503" transform="translate(131,58)"/>
<path d="M0 0 C3.83325416 1.45399296 5.28279605 3.3080115 7 7 C7.5 9.625 7.5 9.625 7 12 C4.5 13.8125 4.5 13.8125 2 15 C2.639375 15.474375 3.27875 15.94875 3.9375 16.4375 C6.8484621 20.05414989 7.22096594 23.41700279 7 28 C5.43818681 31.670261 4.34089404 32.7727373 1 35 C0.01 35 -0.98 35 -2 35 C-2 34.34 -2 33.68 -2 33 C-0.7625 32.505 -0.7625 32.505 0.5 32 C3.12255877 30.27733369 3.12255877 30.27733369 3.68359375 27.8984375 C3.98488777 24.90403849 3.90250079 22.88716687 3 20 C0.54896766 17.33492202 -1.98909769 15.24116726 -4.91015625 13.10546875 C-5.59980469 12.41066406 -6.28945312 11.71585938 -7 11 C-6.80859375 8.23828125 -6.80859375 8.23828125 -6 6 C-4.02 6.495 -4.02 6.495 -2 7 C-2 8.65 -2 10.3 -2 12 C-0.02 12 1.96 12 4 12 C3.71872579 10.51882199 3.42466268 9.04006751 3.125 7.5625 C2.96257812 6.73878906 2.80015625 5.91507812 2.6328125 5.06640625 C2.42398437 4.38449219 2.21515625 3.70257813 2 3 C1.34 2.67 0.68 2.34 0 2 C0 1.34 0 0.68 0 0 Z " fill="#111111" transform="translate(261,79)"/>
<path d="M0 0 C3.52892447 1.41156979 6.54862203 2.77384533 9.8125 4.625 C10.99779297 5.29402344 10.99779297 5.29402344 12.20703125 5.9765625 C12.79871094 6.31429687 13.39039062 6.65203125 14 7 C12.53824146 10.88694884 10.69873837 12.00815228 7 13.75 C6.113125 14.17796875 5.22625 14.6059375 4.3125 15.046875 C2 16 2 16 0 16 C0 10.72 0 5.44 0 0 Z " fill="#F3E7E2" transform="translate(110,82)"/>
<path d="M0 0 C0.66 0.66 1.32 1.32 2 2 C1.34 2 0.68 2 0 2 C0 3.65 0 5.3 0 7 C-0.99 7 -1.98 7 -3 7 C-2.68872484 8.58357459 -2.37592711 10.16684993 -2.0625 11.75 C-1.88847656 12.63171875 -1.71445313 13.5134375 -1.53515625 14.421875 C-1.07631512 16.63235053 -0.56663926 18.81512068 0 21 C1.32 21 2.64 21 4 21 C3.67 22.65 3.34 24.3 3 26 C2.01 26.33 1.02 26.66 0 27 C-0.66 30.96 -1.32 34.92 -2 39 C-1.34 39 -0.68 39 0 39 C0 40.32 0 41.64 0 43 C-0.66 43 -1.32 43 -2 43 C-2 42.34 -2 41.68 -2 41 C-2.99 41 -3.98 41 -5 41 C-5.86140345 30.41430867 -5.86140345 30.41430867 -2.5 25.8125 C-1.675 24.884375 -0.85 23.95625 0 23 C-0.825 22.236875 -1.65 21.47375 -2.5 20.6875 C-5.6333084 16.91857761 -5.70310149 13.40827977 -5.5078125 8.63671875 C-4.72467016 4.57040276 -3.00277978 2.77757129 0 0 Z " fill="#5C0607" transform="translate(96,73)"/>
<path d="M0 0 C3.26619706 0.36291078 5.65859817 1.69109346 7.94604492 4.04956055 C10.45777592 8.69774655 9.48479318 14.68876582 9.3125 19.8125 C9.28994141 21.07771484 9.26738281 22.34292969 9.24414062 23.64648438 C9.18529078 26.76552619 9.1031137 29.88215902 9 33 C10.98 33 12.96 33 15 33 C15 25.74 15 18.48 15 11 C15.66 11 16.32 11 17 11 C17.02887236 14.81248426 17.04675492 18.6249407 17.0625 22.4375 C17.07087891 23.52611328 17.07925781 24.61472656 17.08789062 25.73632812 C17.09272461 27.28803711 17.09272461 27.28803711 17.09765625 28.87109375 C17.10551147 30.30859985 17.10551147 30.30859985 17.11352539 31.77514648 C17 34 17 34 16 35 C13.32941149 35.14115161 10.67567762 35.04247107 8 35 C7.24636948 31.64908229 6.88020063 28.56890188 6.90234375 25.13671875 C6.90556641 24.25048828 6.90878906 23.36425781 6.91210938 22.45117188 C6.92048828 21.53916016 6.92886719 20.62714844 6.9375 19.6875 C6.94201172 18.75615234 6.94652344 17.82480469 6.95117188 16.86523438 C6.96290766 14.57675627 6.97932637 12.28841192 7 10 C6.34 9.67 5.68 9.34 5 9 C4 7 3 5 2 3 C1.34 2.67 0.68 2.34 0 2 C0 1.34 0 0.68 0 0 Z " fill="#515151" transform="translate(208,79)"/>
<path d="M0 0 C0 0.66 0 1.32 0 2 C-3.3 2.66 -6.6 3.32 -10 4 C-10.02705729 5.77074917 -10.04642195 7.54161711 -10.0625 9.3125 C-10.07410156 10.29863281 -10.08570313 11.28476563 -10.09765625 12.30078125 C-10.12329862 15.09963849 -10.12329862 15.09963849 -9 18 C-8.34 18 -7.68 18 -7 18 C-7 18.66 -7 19.32 -7 20 C-6.21625 20.268125 -5.4325 20.53625 -4.625 20.8125 C-2 22 -2 22 0 25 C0 26.32 0 27.64 0 29 C-1.65 28.67 -3.3 28.34 -5 28 C-5 26.68 -5 25.36 -5 24 C-6.65 24 -8.3 24 -10 24 C-9.67 23.01 -9.34 22.02 -9 21 C-9.8971875 19.88625 -9.8971875 19.88625 -10.8125 18.75 C-13.43537779 15.45266793 -14.0453781 13.05714309 -15 9 C-14.67 8.67 -14.34 8.34 -14 8 C-13.95907063 5.66702567 -13.95758277 3.33294775 -14 1 C-9.27616037 0.34843591 -4.78025483 -0.11950637 0 0 Z " fill="#0D0D0D" transform="translate(259,78)"/>
<path d="M0 0 C0 0.66 0 1.32 0 2 C0.99 2.33 1.98 2.66 3 3 C4.4783226 5.95664519 4.06032783 8.74229737 4 12 C2.02 12 0.04 12 -2 12 C-2.33 10.35 -2.66 8.7 -3 7 C-5.86724686 7.57344937 -6.8614515 7.8614515 -9 10 C-9.12375 9.21625 -9.2475 8.4325 -9.375 7.625 C-9.79117993 4.85942178 -9.79117993 4.85942178 -12 3 C-8.2080182 0.81231819 -4.37268114 0 0 0 Z " fill="#E9E9E9" transform="translate(261,79)"/>
<path d="M0 0 C3.82321537 3.69988584 5.15404392 5.47894114 5.25 10.8125 C5.22561502 15.02500523 4.7039031 17.62012113 2 21 C1.01 20.67 0.02 20.34 -1 20 C-0.34 18.35 0.32 16.7 1 15 C-0.32 14.67 -1.64 14.34 -3 14 C-3 11 -3 8 -3 5 C-2.01 4.34 -1.02 3.68 0 3 C0 2.01 0 1.02 0 0 Z " fill="#E7E7E7" transform="translate(165,90)"/>
<path d="M0 0 C1.98 0.495 1.98 0.495 4 1 C4 7.6 4 14.2 4 21 C2.68 21.33 1.36 21.66 0 22 C-1.58937556 20.41062444 -1.12981143 18.76100154 -1.1328125 16.5625 C-1.13410156 15.66789062 -1.13539063 14.77328125 -1.13671875 13.8515625 C-1.13091797 12.44003906 -1.13091797 12.44003906 -1.125 11 C-1.12886719 10.05898437 -1.13273438 9.11796875 -1.13671875 8.1484375 C-1.13542969 7.25382812 -1.13414062 6.35921875 -1.1328125 5.4375 C-1.13112061 4.19806641 -1.13112061 4.19806641 -1.12939453 2.93359375 C-1 1 -1 1 0 0 Z M1 4 C2 7 2 7 2 7 Z " fill="#0F0F0F" transform="translate(203,85)"/>
<path d="M0 0 C0.66 0 1.32 0 2 0 C2 0.66 2 1.32 2 2 C3.423125 1.9690625 3.423125 1.9690625 4.875 1.9375 C8 2 8 2 10 3 C10.28875 3.66 10.5775 4.32 10.875 5 C11.8234856 7.20005805 11.8234856 7.20005805 14.125 7.75 C14.74375 7.8325 15.3625 7.915 16 8 C16 8.66 16 9.32 16 10 C16.66 10 17.32 10 18 10 C17.67 11.32 17.34 12.64 17 14 C16.34 13.67 15.68 13.34 15 13 C15.33 12.34 15.66 11.68 16 11 C15.360625 10.773125 14.72125 10.54625 14.0625 10.3125 C9.855805 8.50963071 5.9810729 6.25792194 2 4 C2 9.28 2 14.56 2 20 C2.99 20.33 3.98 20.66 5 21 C5 21.33 5 21.66 5 22 C3.35 22 1.7 22 0 22 C0 14.74 0 7.48 0 0 Z " fill="#DE282D" transform="translate(108,78)"/>
<path d="M0 0 C1.27875 0.2475 2.5575 0.495 3.875 0.75 C4.95394531 0.95882812 4.95394531 0.95882812 6.0546875 1.171875 C8 2 8 2 9.109375 3.65820312 C10.24850805 6.65342357 10.22552771 9.09406286 10.1953125 12.296875 C10.18886719 13.50214844 10.18242187 14.70742187 10.17578125 15.94921875 C10.15902344 17.20347656 10.14226562 18.45773438 10.125 19.75 C10.11597656 21.01972656 10.10695312 22.28945312 10.09765625 23.59765625 C10.07409005 26.73196093 10.04118832 29.86588541 10 33 C7.69 33 5.38 33 3 33 C3 32.67 3 32.34 3 32 C4.98 32 6.96 32 9 32 C8.67 24.08 8.34 16.16 8 8 C7.01 8 6.02 8 5 8 C4.67 7.67 4.34 7.34 4 7 C0.36805359 6.80850919 0.36805359 6.80850919 -3 8 C-3.33 6.35 -3.66 4.7 -4 3 C-3.01 2.67 -2.02 2.34 -1 2 C-0.67 1.34 -0.34 0.68 0 0 Z " fill="#D0D0D0" transform="translate(182,79)"/>
<path d="M0 0 C0 1.98 0 3.96 0 6 C1.32 5.67 2.64 5.34 4 5 C3.67 5.99 3.34 6.98 3 8 C1.35 7.67 -0.3 7.34 -2 7 C-2 5.02 -2 3.04 -2 1 C-4.31 1 -6.62 1 -9 1 C-8.74445946 2.46109063 -8.46999628 3.91888096 -8.1875 5.375 C-8.03667969 6.18710938 -7.88585937 6.99921875 -7.73046875 7.8359375 C-7.12455058 10.35820641 -7.12455058 10.35820641 -4 12 C-1.67612053 12.39387788 0.65793749 12.73486085 3 13 C3 13.66 3 14.32 3 15 C-2.70035501 15.4560284 -5.54784247 14.60412752 -10 11 C-11.20272819 8.59454362 -11.10071472 7.05003047 -11.0625 4.375 C-11.05347656 3.55773437 -11.04445312 2.74046875 -11.03515625 1.8984375 C-11.02355469 1.27195312 -11.01195312 0.64546875 -11 0 C-6.80715834 -2.50457356 -4.54961843 -1.57486792 0 0 Z " fill="#262626" transform="translate(159,99)"/>
<path d="M0 0 C4.7517398 0.43197635 6.92000054 1.32769295 10 5 C10.66 4.01 11.32 3.02 12 2 C14.62356462 1.01484622 17.24524123 0.57761071 20 0 C20.33 0.66 20.66 1.32 21 2 C18.36 2.66 15.72 3.32 13 4 C12.24884679 7.00461285 11.83472225 9.305555 11.68359375 12.328125 C11.64169922 13.12734375 11.59980469 13.9265625 11.55664062 14.75 C11.49766602 15.9875 11.49766602 15.9875 11.4375 17.25 C11.39431641 18.09046875 11.35113281 18.9309375 11.30664062 19.796875 C11.20091457 21.86440671 11.09998705 23.93218281 11 26 C10.67 26 10.34 26 10 26 C9.67 22.7 9.34 19.4 9 16 C8.67 16 8.34 16 8 16 C7.34 12.04 6.68 8.08 6 4 C4.02 3.34 2.04 2.68 0 2 C0 1.34 0 0.68 0 0 Z " fill="#252525" transform="translate(184,78)"/>
<path d="M0 0 C3.23830467 0 4.31591712 0.29194726 7 2 C9.25 4.625 9.25 4.625 11 7 C9.68 8.32 8.36 9.64 7 11 C4.36 9.02 1.72 7.04 -1 5 C-0.67 3.35 -0.34 1.7 0 0 Z " fill="#EEEEEE" transform="translate(155,85)"/>
<path d="M0 0 C0.66 0.66 1.32 1.32 2 2 C2.33 1.01 2.66 0.02 3 -1 C3.66 -1 4.32 -1 5 -1 C5 4.94 5 10.88 5 17 C4.34 17 3.68 17 3 17 C1.47881367 13.95762735 1.66488582 10.77519668 1.4765625 7.41015625 C0.91711199 4.5808041 0.33410881 3.66192781 -2 2 C-4.04100238 1.42982192 -4.04100238 1.42982192 -6.1875 1.3125 C-8.0746875 1.1578125 -8.0746875 1.1578125 -10 1 C-10 0.67 -10 0.34 -10 0 C-3.42391304 -1.3451087 -3.42391304 -1.3451087 0 0 Z " fill="#141414" transform="translate(167,68)"/>
<path d="M0 0 C0.33 0.99 0.66 1.98 1 3 C1.66 3.66 2.32 4.32 3 5 C1 6 1 6 -1.5 6.375 C-4.34474481 6.78838835 -4.34474481 6.78838835 -6 10 C-6 9.34 -6 8.68 -6 8 C-7.32 7.67 -8.64 7.34 -10 7 C-9.6875 4.625 -9.6875 4.625 -9 2 C-5.5647952 -0.29013653 -4.014669 -0.17842973 0 0 Z " fill="#F3F3F3" transform="translate(161,69)"/>
<path d="M0 0 C2.875 -0.125 2.875 -0.125 6 0 C8 2 8 2 8.125 4.625 C8.08375 5.40875 8.0425 6.1925 8 7 C2.25 10 2.25 10 0 10 C0 6.7 0 3.4 0 0 Z " fill="#FEF2E5" transform="translate(110,88)"/>
<path d="M0 0 C1.98 0 3.96 0 6 0 C6.103125 0.61875 6.20625 1.2375 6.3125 1.875 C6.87525373 4.36526484 6.87525373 4.36526484 10 6 C9.34 6 8.68 6 8 6 C7.34 7.32 6.68 8.64 6 10 C1.125 8.125 1.125 8.125 0 7 C-0.04092937 4.66702567 -0.04241723 2.33294775 0 0 Z " fill="#EFEFEF" transform="translate(248,102)"/>
<path d="M0 0 C0.48396854 7.38052027 0.48396854 7.38052027 -1.5625 10 C-4.7985497 11.32761013 -7.53906866 11.19966912 -11 11 C-9.63016497 7.83884224 -9.0109362 7.0072908 -6 5 C-5.34 4.01 -4.68 3.02 -4 2 C-1 0 -1 0 0 0 Z " fill="#F2F2F2" transform="translate(265,101)"/>
<path d="M0 0 C0.66 0.66 1.32 1.32 2 2 C0.68 2.33 -0.64 2.66 -2 3 C-2 3.66 -2 4.32 -2 5 C-4.64 5.66 -7.28 6.32 -10 7 C-10 7.66 -10 8.32 -10 9 C-10.66 9 -11.32 9 -12 9 C-12 9.66 -12 10.32 -12 11 C-14.90600261 12.25664978 -16.79604584 13 -20 13 C-20 13.66 -20 14.32 -20 15 C-20.99 15 -21.98 15 -23 15 C-23 14.34 -23 13.68 -23 13 C-22.03578125 12.45730469 -21.0715625 11.91460937 -20.078125 11.35546875 C-18.80200123 10.6329575 -17.52596412 9.91029317 -16.25 9.1875 C-15.61578125 8.83107422 -14.9815625 8.47464844 -14.328125 8.10742188 C-11.04311029 6.24249165 -8.0067428 4.29605814 -5 2 C-3.35202764 1.28837557 -1.68834592 0.60968047 0 0 Z " fill="#490405" transform="translate(120,59)"/>
<path d="M0 0 C0.66 0 1.32 0 2 0 C1.75 1.875 1.75 1.875 1 4 C-1.0625 5.25 -1.0625 5.25 -3 6 C-3 6.66 -3 7.32 -3 8 C-4.32 8 -5.64 8 -7 8 C-7 7.34 -7 6.68 -7 6 C-8.98 6 -10.96 6 -13 6 C-13 6.66 -13 7.32 -13 8 C-14.98 8 -16.96 8 -19 8 C-16.500036 5.500036 -14.28077846 4.32492976 -11 3 C-7.625 3.3125 -7.625 3.3125 -5 4 C-5 3.34 -5 2.68 -5 2 C-3.35 2 -1.7 2 0 2 C0 1.34 0 0.68 0 0 Z " fill="#E60903" transform="translate(131,90)"/>
<path d="M0 0 C1.32 0.33 2.64 0.66 4 1 C3.67 1.33 3.34 1.66 3 2 C2.76321284 4.69235776 2.57801975 7.36498156 2.4375 10.0625 C2.39431641 10.82111328 2.35113281 11.57972656 2.30664062 12.36132812 C2.20026367 14.24065438 2.09960066 16.12030244 2 18 C3.32 17.67 4.64 17.34 6 17 C5.67 17.99 5.34 18.98 5 20 C3.35 20.33 1.7 20.66 0 21 C0 14.07 0 7.14 0 0 Z " fill="#222222" transform="translate(241,86)"/>
<path d="M0 0 C0.99 0.33 1.98 0.66 3 1 C2.67 1.66 2.34 2.32 2 3 C2.66 3 3.32 3 4 3 C3.67 9.6 3.34 16.2 3 23 C2.67 23 2.34 23 2 23 C1.67 17.72 1.34 12.44 1 7 C0.01 7.33 -0.98 7.66 -2 8 C-2.66 7.67 -3.32 7.34 -4 7 C-3.39816251 4.97954558 -2.72693904 2.97888961 -2 1 C-1.34 0.67 -0.68 0.34 0 0 Z " fill="#D8D8D8" transform="translate(199,81)"/>
<path d="M0 0 C0.33 0 0.66 0 1 0 C1 6.93 1 13.86 1 21 C-0.65 21.33 -2.3 21.66 -4 22 C-3.68160156 21.34515625 -3.36320313 20.6903125 -3.03515625 20.015625 C-1.74897818 16.26872133 -1.58203833 12.67016162 -1.4375 8.75 C-1.12190083 1.12190083 -1.12190083 1.12190083 0 0 Z " fill="#151515" transform="translate(215,88)"/>
<path d="M0 0 C3.56050965 0.30518654 5.00035037 1.00028808 7.8125 3.3125 C10 6 10 6 10 10 C8.35 9.67 6.7 9.34 5 9 C5 7.68 5 6.36 5 5 C3.35 5 1.7 5 0 5 C0.33 4.01 0.66 3.02 1 2 C0.67 1.34 0.34 0.68 0 0 Z " fill="#0C0C0C" transform="translate(249,97)"/>
<path d="M0 0 C0.66 0.33 1.32 0.66 2 1 C2 4.3 2 7.6 2 11 C1.34 11 0.68 11 0 11 C0 11.66 0 12.32 0 13 C-0.66 13 -1.32 13 -2 13 C-2 12.34 -2 11.68 -2 11 C-3.32 11 -4.64 11 -6 11 C-6 9.68 -6 8.36 -6 7 C-4.02 7 -2.04 7 0 7 C0 4.69 0 2.38 0 0 Z " fill="#DB0A0F" transform="translate(136,91)"/>
<path d="M0 0 C1.32 0.99 2.64 1.98 4 3 C3.01 3 2.02 3 1 3 C1 4.98 1 6.96 1 9 C-1.31 9 -3.62 9 -6 9 C-6.33 7.68 -6.66 6.36 -7 5 C-5.35 5 -3.7 5 -2 5 C-1.34 3.35 -0.68 1.7 0 0 Z " fill="#FAFAFA" transform="translate(164,103)"/>
<path d="M0 0 C2 0 2 0 4.4375 2.1875 C7.79839752 5.87628996 9.90025707 8.23787487 10.1875 13.3125 C10.125625 14.199375 10.06375 15.08625 10 16 C9.34 16 8.68 16 8 16 C7.71125 14.865625 7.4225 13.73125 7.125 12.5625 C6.75375 11.386875 6.3825 10.21125 6 9 C5.34 8.67 4.68 8.34 4 8 C4 7.01 4 6.02 4 5 C2.68 4.67 1.36 4.34 0 4 C0 2.68 0 1.36 0 0 Z " fill="#360405" transform="translate(130,82)"/>
<path d="M0 0 C0 0.66 0 1.32 0 2 C0.99 2.33 1.98 2.66 3 3 C2.01 4.485 2.01 4.485 1 6 C-2.33333333 6 -5.66666667 6 -9 6 C-6.55559393 1.46038873 -5.37318307 0 0 0 Z " fill="#F2F2F2" transform="translate(208,79)"/>
<path d="M0 0 C6.72 0.72 6.72 0.72 8 2 C8.14115161 4.67058851 8.04247107 7.32432238 8 10 C7.01 10.495 7.01 10.495 6 11 C5.67 8.36 5.34 5.72 5 3 C3.68 3 2.36 3 1 3 C0.34 4.65 -0.32 6.3 -1 8 C-1.33 8 -1.66 8 -2 8 C-1.125 1.125 -1.125 1.125 0 0 Z " fill="#0E0E0E" transform="translate(235,69)"/>
<path d="M0 0 C1.65 0 3.3 0 5 0 C5 1.32 5 2.64 5 4 C5.66 4 6.32 4 7 4 C7 4.99 7 5.98 7 7 C6.34 7 5.68 7 5 7 C4.67 7.66 4.34 8.32 4 9 C4 8.01 4 7.02 4 6 C3.34 5.67 2.68 5.34 2 5 C2.33 6.65 2.66 8.3 3 10 C0.64551835 7.44931155 0.01672076 6.28982642 -0.1875 2.75 C-0.125625 1.8425 -0.06375 0.935 0 0 Z " fill="#EFEFEF" transform="translate(217,81)"/>
<path d="M0 0 C0 0.66 0 1.32 0 2 C-0.86625 2.309375 -0.86625 2.309375 -1.75 2.625 C-4.80335058 4.49093646 -6.11394355 7.00832426 -8 10 C-8.33 10 -8.66 10 -9 10 C-9.12375 9.21625 -9.2475 8.4325 -9.375 7.625 C-9.79117993 4.85942178 -9.79117993 4.85942178 -12 3 C-8.2080182 0.81231819 -4.37268114 0 0 0 Z " fill="#DFDFDF" transform="translate(261,79)"/>
<path d="M0 0 C0.66 0 1.32 0 2 0 C1.8089771 8.12715629 1.8089771 8.12715629 -1.375 11.5625 C-4 13 -4 13 -7 13 C-7 12.34 -7 11.68 -7 11 C-6.21625 10.62875 -5.4325 10.2575 -4.625 9.875 C-0.78117411 7.12941008 -0.82296013 4.56368802 0 0 Z " fill="#0C0C0C" transform="translate(266,101)"/>
<path d="M0 0 C0.66 0 1.32 0 2 0 C2 1.32 2 2.64 2 4 C1.34 4 0.68 4 0 4 C0 4.66 0 5.32 0 6 C-1.32 6 -2.64 6 -4 6 C-4 7.32 -4 8.64 -4 10 C-4.66 10 -5.32 10 -6 10 C-6 9.34 -6 8.68 -6 8 C-6.66 8 -7.32 8 -8 8 C-8 7.34 -8 6.68 -8 6 C-6.20963542 5.0234375 -4.41927083 4.046875 -2.62890625 3.0703125 C-0.83381685 2.08589976 -0.83381685 2.08589976 0 0 Z " fill="#E40912" transform="translate(134,76)"/>
<path d="M0 0 C0 1.32 0 2.64 0 4 C-1.32 4 -2.64 4 -4 4 C-4 5.32 -4 6.64 -4 8 C-4.66 8 -5.32 8 -6 8 C-6 7.34 -6 6.68 -6 6 C-7.32 5.67 -8.64 5.34 -10 5 C-8.68 4.67 -7.36 4.34 -6 4 C-6 3.34 -6 2.68 -6 2 C-2.25 0 -2.25 0 0 0 Z " fill="#D10A15" transform="translate(106,70)"/>
<path d="M0 0 C0 2.64 0 5.28 0 8 C-1.65 8 -3.3 8 -5 8 C-4.34 7.67 -3.68 7.34 -3 7 C-3.66 5.02 -4.32 3.04 -5 1 C-3 0 -3 0 0 0 Z " fill="#EDEDED" transform="translate(230,80)"/>
<path d="M0 0 C0.99 0 1.98 0 3 0 C3 3.96 3 7.92 3 12 C-0.67952474 7.09396701 -0.29124516 5.82490317 0 0 Z " fill="#CE0D18" transform="translate(93,80)"/>
<path d="M0 0 C0.89203125 0.01804688 1.7840625 0.03609375 2.703125 0.0546875 C3.71632812 0.08949219 3.71632812 0.08949219 4.75 0.125 C4.75 0.785 4.75 1.445 4.75 2.125 C1.45 2.125 -1.85 2.125 -5.25 2.125 C-5.25 2.785 -5.25 3.445 -5.25 4.125 C-6.57 4.125 -7.89 4.125 -9.25 4.125 C-9.25 3.465 -9.25 2.805 -9.25 2.125 C-6.03817851 0.21891902 -3.71117397 -0.09766247 0 0 Z " fill="#BD0F13" transform="translate(127.25,59.875)"/>
<path d="M0 0 C0.99 0 1.98 0 3 0 C3 0.66 3 1.32 3 2 C3.66 2 4.32 2 5 2 C5 2.66 5 3.32 5 4 C5.66 4 6.32 4 7 4 C7 4.66 7 5.32 7 6 C8.32 6.33 9.64 6.66 11 7 C9.375 7.8125 9.375 7.8125 7 8 C1.33333333 4 1.33333333 4 0 0 Z " fill="#330101" transform="translate(91,114)"/>
<path d="M0 0 C0.33 0 0.66 0 1 0 C1 1.65 1 3.3 1 5 C1.99 5 2.98 5 4 5 C3.67 5.99 3.34 6.98 3 8 C1.15234375 8.73046875 1.15234375 8.73046875 -1.0625 9.1875 C-1.79597656 9.34605469 -2.52945313 9.50460938 -3.28515625 9.66796875 C-3.85105469 9.77753906 -4.41695312 9.88710937 -5 10 C-5 9.01 -5 8.02 -5 7 C-3.35 7 -1.7 7 0 7 C0 4.69 0 2.38 0 0 Z " fill="#0B0B0B" transform="translate(230,81)"/>
<path d="M0 0 C4.4729103 1.98796013 8.16161102 4.24337546 10.3125 8.75 C10.6528125 9.86375 10.6528125 9.86375 11 11 C7.584241 9.55661511 5.63973737 7.75105832 3.25 4.9375 C2.63640625 4.22464844 2.0228125 3.51179688 1.390625 2.77734375 C0 1 0 1 0 0 Z " fill="#2A2A2A" transform="translate(152,89)"/>
<path d="M0 0 C0.268125 0.61875 0.53625 1.2375 0.8125 1.875 C1.95556848 4.2995233 1.95556848 4.2995233 5 6 C4.34 6 3.68 6 3 6 C2.34 7.32 1.68 8.64 1 10 C0.34 9.67 -0.32 9.34 -1 9 C-0.67 8.34 -0.34 7.68 0 7 C-0.66 7 -1.32 7 -2 7 C-1.34 4.69 -0.68 2.38 0 0 Z " fill="#DDDDDD" transform="translate(253,102)"/>
<path d="M0 0 C3.83325416 1.45399296 5.28279605 3.3080115 7 7 C7.1875 9.8125 7.1875 9.8125 7 12 C6.01 12.495 6.01 12.495 5 13 C4.87625 11.39125 4.87625 11.39125 4.75 9.75 C3.93299965 5.66499825 3.0438363 4.65108323 0 2 C0 1.34 0 0.68 0 0 Z " fill="#090909" transform="translate(261,79)"/>
<path d="M0 0 C0.33 0.99 0.66 1.98 1 3 C-0.28965176 4.37562854 -1.62689293 5.70766393 -3 7 C-3.66 7 -4.32 7 -5 7 C-5 5.35 -5 3.7 -5 2 C-3.35 1.34 -1.7 0.68 0 0 Z " fill="#E8E8E8" transform="translate(212,105)"/>
<path d="M0 0 C0.66 0.66 1.32 1.32 2 2 C0.72125 2.2475 -0.5575 2.495 -1.875 2.75 C-5.26747318 3.51990586 -5.26747318 3.51990586 -7.5 6.125 C-7.665 6.74375 -7.83 7.3625 -8 8 C-8.33 7.01 -8.66 6.02 -9 5 C-6.42595029 1.13892543 -4.38979741 1.05680308 0 0 Z " fill="#313131" transform="translate(203,78)"/>
<path d="M0 0 C0 1.98 0 3.96 0 6 C-1.65 6.66 -3.3 7.32 -5 8 C-5 6.02 -5 4.04 -5 2 C-1.125 0 -1.125 0 0 0 Z " fill="#F9F9F9" transform="translate(265,101)"/>
<path d="M0 0 C1.32 0 2.64 0 4 0 C6 2 6 2 6 6 C4.68 6 3.36 6 2 6 C2 4.68 2 3.36 2 2 C1.34 2 0.68 2 0 2 C0 1.34 0 0.68 0 0 Z " fill="#F4F6FB" transform="translate(112,88)"/>
<path d="M0 0 C0.66 0 1.32 0 2 0 C2 0.66 2 1.32 2 2 C4.97 2.495 4.97 2.495 8 3 C8 3.33 8 3.66 8 4 C0.25 5.125 0.25 5.125 -2 4 C-2 3.34 -2 2.68 -2 2 C-1.34 2 -0.68 2 0 2 C0 1.34 0 0.68 0 0 Z " fill="#F20417" transform="translate(126,84)"/>
<path d="M0 0 C1.98 0 3.96 0 6 0 C6 1.32 6 2.64 6 4 C4.1875 4.6875 4.1875 4.6875 2 5 C0.25 3.5625 0.25 3.5625 -1 2 C-0.67 1.34 -0.34 0.68 0 0 Z " fill="#F6F6F6" transform="translate(256,81)"/>
<path d="M0 0 C1.65 1.65 3.3 3.3 5 5 C4.01 6.485 4.01 6.485 3 8 C2.01 7.67 1.02 7.34 0 7 C0 4.69 0 2.38 0 0 Z " fill="#FBFBFB" transform="translate(161,87)"/>
<path d="M0 0 C3.53586014 3.17320782 5.58578031 5.16743695 6 10 C3.66666667 7.66666667 1.33333333 5.33333333 -1 3 C-0.67 2.01 -0.34 1.02 0 0 Z " fill="#141414" transform="translate(165,87)"/>
<path d="M0 0 C1.134375 0.020625 2.26875 0.04125 3.4375 0.0625 C3.1075 0.7225 2.7775 1.3825 2.4375 2.0625 C0.7875 2.0625 -0.8625 2.0625 -2.5625 2.0625 C-2.5625 3.3825 -2.5625 4.7025 -2.5625 6.0625 C-3.2225 6.0625 -3.8825 6.0625 -4.5625 6.0625 C-4.605221 4.39638095 -4.60313832 2.72867115 -4.5625 1.0625 C-3.5625 0.0625 -3.5625 0.0625 0 0 Z " fill="#5A5A5A" transform="translate(219.5625,78.9375)"/>
<path d="M0 0 C0.66 0.33 1.32 0.66 2 1 C0.1875 3 0.1875 3 -2 5 C-2.99 5 -3.98 5 -5 5 C-5 5.66 -5 6.32 -5 7 C-5.99 7 -6.98 7 -8 7 C-8 6.34 -8 5.68 -8 5 C-6.3203125 3.67578125 -6.3203125 3.67578125 -4.125 2.3125 C-3.40570313 1.85488281 -2.68640625 1.39726563 -1.9453125 0.92578125 C-1.30335937 0.62027344 -0.66140625 0.31476563 0 0 Z " fill="#380203" transform="translate(105,67)"/>
<path d="M0 0 C1.75 1.4375 1.75 1.4375 3 3 C3 3.66 3 4.32 3 5 C2.34 5 1.68 5 1 5 C0.62875 4.525625 0.2575 4.05125 -0.125 3.5625 C-3.10178935 1.08184221 -6.18902265 1.31237519 -10 1 C-10 0.67 -10 0.34 -10 0 C-3.30798479 -1.36882129 -3.30798479 -1.36882129 0 0 Z " fill="#3E3E3E" transform="translate(167,68)"/>
<path d="M0 0 C0 0.66 0 1.32 0 2 C-0.66 2 -1.32 2 -2 2 C-2 2.66 -2 3.32 -2 4 C-3.98 4 -5.96 4 -8 4 C-8 3.34 -8 2.68 -8 2 C-4.91190305 0.23537317 -3.76687864 0 0 0 Z " fill="#C10E13" transform="translate(118,64)"/>
<path d="M0 0 C2.31 0 4.62 0 7 0 C7.33 0.99 7.66 1.98 8 3 C5.36 3 2.72 3 0 3 C0 2.01 0 1.02 0 0 Z " fill="#640706" transform="translate(101,120)"/>
<path d="M0 0 C0.33 0 0.66 0 1 0 C1.144375 1.093125 1.28875 2.18625 1.4375 3.3125 C1.88288104 6.93122987 1.88288104 6.93122987 3 10 C3.66 10.33 4.32 10.66 5 11 C2.13275314 10.42655063 1.1385485 10.1385485 -1 8 C-0.96712417 5.27130593 -0.43602229 2.7033382 0 0 Z " fill="#252525" transform="translate(247,86)"/>
<path d="M0 0 C0 0.99 0 1.98 0 3 C-1.32 3 -2.64 3 -4 3 C-4 3.66 -4 4.32 -4 5 C-5.98 5 -7.96 5 -10 5 C-7.30495181 2.30495181 -3.91639523 0 0 0 Z " fill="#D62729" transform="translate(122,93)"/>
<path d="M0 0 C1.98 0 3.96 0 6 0 C6 0.66 6 1.32 6 2 C5.34 2 4.68 2 4 2 C4 2.66 4 3.32 4 4 C2.68 4 1.36 4 0 4 C0 2.68 0 1.36 0 0 Z " fill="#CB0D0E" transform="translate(122,108)"/>
<path d="M0 0 C1.98 0 3.96 0 6 0 C6 0.66 6 1.32 6 2 C5.34 2 4.68 2 4 2 C4 2.66 4 3.32 4 4 C2.68 4 1.36 4 0 4 C0 2.68 0 1.36 0 0 Z " fill="#E60717" transform="translate(128,104)"/>
<path d="M0 0 C2.79828356 0.38597015 3.8205884 0.80136573 5.75 2.9375 C7 5 7 5 7 7 C3.63983107 5.87994369 2.30935087 4.62788203 0 2 C0 1.34 0 0.68 0 0 Z " fill="#212121" transform="translate(208,79)"/>
<path d="M0 0 C-0.625 1.9375 -0.625 1.9375 -2 4 C-5.125 4.75 -5.125 4.75 -8 5 C-8 4.34 -8 3.68 -8 3 C-2.25 0 -2.25 0 0 0 Z " fill="#161616" transform="translate(170,109)"/>
<path d="M0 0 C0.33 1.32 0.66 2.64 1 4 C-0.98 4.99 -0.98 4.99 -3 6 C-3.33 5.34 -3.66 4.68 -4 4 C-3.67 3.01 -3.34 2.02 -3 1 C-2.01 0.67 -1.02 0.34 0 0 Z " fill="#EDEDED" transform="translate(168,105)"/>
<path d="M0 0 C0.66 0 1.32 0 2 0 C2 1.32 2 2.64 2 4 C3.32 4.33 4.64 4.66 6 5 C5 6 5 6 2.4375 6.0625 C1.2309375 6.0315625 1.2309375 6.0315625 0 6 C0 4.02 0 2.04 0 0 Z " fill="#F3E9EC" transform="translate(112,90)"/>
<path d="M0 0 C1.65 0 3.3 0 5 0 C5 0.66 5 1.32 5 2 C5.66 2 6.32 2 7 2 C6.67 3.32 6.34 4.64 6 6 C5.34 5.67 4.68 5.34 4 5 C4.33 4.34 4.66 3.68 5 3 C2.525 2.01 2.525 2.01 0 1 C0 0.67 0 0.34 0 0 Z " fill="#D12F2A" transform="translate(119,86)"/>
<path d="M0 0 C0.66 0 1.32 0 2 0 C6 5.41176471 6 5.41176471 6 8 C5.34 8 4.68 8 4 8 C4 7.01 4 6.02 4 5 C2.68 4.67 1.36 4.34 0 4 C0 2.68 0 1.36 0 0 Z " fill="#77090A" transform="translate(130,82)"/>
<path d="M0 0 C1.98 0.99 1.98 0.99 4 2 C3.67 4.97 3.34 7.94 3 11 C2.67 11 2.34 11 2 11 C1.77213542 9.01432292 1.54427083 7.02864583 1.31640625 5.04296875 C1.02829265 2.80603607 1.02829265 2.80603607 0 0 Z " fill="#242424" transform="translate(263,96)"/>
<path d="M0 0 C0 0.66 0 1.32 0 2 C-3 4 -3 4 -7 4 C-7 3.34 -7 2.68 -7 2 C-4.35261084 0.5393715 -3.10551666 0 0 0 Z " fill="#290201" transform="translate(115,118)"/>
<path d="M0 0 C0.66 0 1.32 0 2 0 C2 1.32 2 2.64 2 4 C0.68 4.33 -0.64 4.66 -2 5 C-2.33 3.68 -2.66 2.36 -3 1 C-2.01 1.33 -1.02 1.66 0 2 C0 1.34 0 0.68 0 0 Z " fill="#F8F8F8" transform="translate(254,92)"/>
<path d="M0 0 C1.66666667 0 3.33333333 0 5 0 C4.6875 1.9375 4.6875 1.9375 4 4 C3.01 4.33 2.02 4.66 1 5 C0.34 4.34 -0.32 3.68 -1 3 C-0.67 2.01 -0.34 1.02 0 0 Z " fill="#FAFAFA" transform="translate(155,85)"/>
<path d="M0 0 C0.99 0 1.98 0 3 0 C3 0.66 3 1.32 3 2 C3.99 2.33 4.98 2.66 6 3 C5.01 4.485 5.01 4.485 4 6 C3.01 5.67 2.02 5.34 1 5 C0.67 3.35 0.34 1.7 0 0 Z " fill="#DBDBDB" transform="translate(205,79)"/>
</svg>
