<?xml version="1.0" encoding="UTF-8"?>
<svg version="1.1" xmlns="http://www.w3.org/2000/svg" width="865" height="192">
<path d="M0 0 C9.3225 -0.0825 18.645 -0.165 28.25 -0.25 C32.62813965 -0.30462402 32.62813965 -0.30462402 37.09472656 -0.36035156 C39.44335192 -0.37204885 41.79198548 -0.3822382 44.140625 -0.390625 C45.33155762 -0.41108887 46.52249023 -0.43155273 47.74951172 -0.45263672 C58.77161904 -0.45716697 68.46717287 1.76817614 77.02734375 9.0078125 C84.44850564 16.50245124 87.39670406 24.40866121 87.375 34.8125 C87.37338867 35.61131592 87.37177734 36.41013184 87.37011719 37.2331543 C87.24540025 43.22262386 86.38162889 47.93929843 83 53 C82.13375 54.36125 82.13375 54.36125 81.25 55.75 C79.17829819 57.82170181 77.33932208 59.12454399 74.859375 60.640625 C74.13717773 61.08438477 73.41498047 61.52814453 72.67089844 61.98535156 C72.11950195 62.32018555 71.56810547 62.65501953 71 63 C71.30703857 63.47308594 71.61407715 63.94617188 71.93041992 64.43359375 C73.35013296 66.62195142 74.76882055 68.81097214 76.1875 71 C76.91163086 72.11568359 76.91163086 72.11568359 77.65039062 73.25390625 C78.3706543 74.36572266 78.3706543 74.36572266 79.10546875 75.5 C79.58677246 76.2425 80.06807617 76.985 80.56396484 77.75 C82.39911471 80.62533853 84.16499424 83.54107313 85.9152832 86.46875 C86.93568963 88.16423901 86.93568963 88.16423901 89 89 C89.36907471 87.15365967 89.36907471 87.15365967 89.74560547 85.27001953 C91.08571583 79.25775519 93.07039778 73.49941763 95.0703125 67.6796875 C95.47023407 66.503992 95.87015564 65.32829651 96.28219604 64.11697388 C97.55869628 60.36812033 98.84181545 56.62157012 100.125 52.875 C100.96396071 50.41290317 101.8025059 47.9506647 102.640625 45.48828125 C105.08239703 38.321607 107.5391485 31.16014151 110 24 C110.59234436 22.27263611 110.59234436 22.27263611 111.19665527 20.51037598 C112.31272597 17.25838291 113.43293796 14.00785041 114.5546875 10.7578125 C114.88977325 9.78053192 115.22485901 8.80325134 115.57009888 7.7963562 C115.87680511 6.9111026 116.18351135 6.025849 116.49951172 5.11376953 C116.76657928 4.33921417 117.03364685 3.56465881 117.30880737 2.76663208 C118 1 118 1 119 0 C120.38160115 -0.0927833 121.76788038 -0.11747043 123.15258789 -0.11352539 C124.03342545 -0.11344986 124.914263 -0.11337433 125.8217926 -0.11329651 C126.77907761 -0.10813522 127.73636261 -0.10297394 128.72265625 -0.09765625 C130.18547279 -0.09553383 130.18547279 -0.09553383 131.67784119 -0.09336853 C134.80609143 -0.08775133 137.93427123 -0.07519593 141.0625 -0.0625 C143.17773334 -0.05748722 145.29296781 -0.05292393 147.40820312 -0.04882812 C152.60549296 -0.03777631 157.80274145 -0.02102146 163 0 C163.39011009 1.15486908 163.39011009 1.15486908 163.7881012 2.33306885 C166.27186552 9.68527915 168.75669617 17.03712788 171.24264622 24.3885994 C172.51983005 28.1656147 173.79663937 31.94275564 175.07250977 35.72021484 C176.31000517 39.38400748 177.54859254 43.04742945 178.78785515 46.71062469 C179.25413759 48.08951121 179.72006391 49.46851822 180.1855793 50.84766388 C184.03908526 62.26282318 188.01946626 73.62704645 192 85 C192.33 57.28 192.66 29.56 193 1 C205.54 1 218.08 1 231 1 C236.5424683 9.62161735 242.02448348 18.22818359 247.3125 27 C248.49487437 28.9590698 249.67843335 30.91742521 250.86328125 32.875 C251.62572144 34.13957031 251.62572144 34.13957031 252.40356445 35.4296875 C254.20375085 38.32804542 256.10741124 41.16111686 258 44 C258.33 29.81 258.66 15.62 259 1 C271.54 1 284.08 1 297 1 C297.33 30.04 297.66 59.08 298 89 C304.880994 68.64478469 304.880994 68.64478469 311.75976562 48.28881836 C316.02830532 35.66269879 320.30411808 23.03900577 324.65625 10.44140625 C324.98516235 9.48338608 325.31407471 8.52536591 325.6529541 7.53831482 C325.95117065 6.67948196 326.24938721 5.82064911 326.55664062 4.93579102 C326.81336548 4.19345718 327.07009033 3.45112335 327.33459473 2.68629456 C328 1 328 1 329 0 C330.38160115 -0.0927833 331.76788038 -0.11747043 333.15258789 -0.11352539 C334.03342545 -0.11344986 334.914263 -0.11337433 335.8217926 -0.11329651 C336.77907761 -0.10813522 337.73636261 -0.10297394 338.72265625 -0.09765625 C340.18547279 -0.09553383 340.18547279 -0.09553383 341.67784119 -0.09336853 C344.80609143 -0.08775133 347.93427123 -0.07519593 351.0625 -0.0625 C353.17773334 -0.05748722 355.29296781 -0.05292393 357.40820312 -0.04882812 C362.60549296 -0.03777631 367.80274145 -0.02102146 373 0 C373.37345551 1.10490532 373.37345551 1.10490532 373.75445557 2.23213196 C376.66327458 10.83761537 379.57333402 19.44267872 382.48394012 28.04755783 C383.24601605 30.30072101 384.00794105 32.55393518 384.76983643 34.80715942 C391.91118701 55.93678461 391.91118701 55.93678461 399.1328125 77.0390625 C399.56672302 78.29903297 399.56672302 78.29903297 400.00939941 79.5844574 C401.28421816 83.2830499 402.56335905 86.9800769 403.84863281 90.67504883 C404.27756836 91.91536865 404.70650391 93.15568848 405.1484375 94.43359375 C405.51114746 95.47572021 405.87385742 96.51784668 406.24755859 97.59155273 C407 100 407 100 407 102 C403.72108075 103.63945963 400.09386466 103.12030178 396.4921875 103.09765625 C395.65156769 103.0962413 394.81094788 103.09482635 393.94485474 103.09336853 C391.25486725 103.08776237 388.56496241 103.07520886 385.875 103.0625 C384.05338662 103.05748579 382.23177193 103.05292275 380.41015625 103.04882812 C375.94007223 103.03779094 371.47005014 103.0205222 367 103 C364.8523591 98.33121544 363.87711743 95.2627046 363 90 C354.75 90 346.5 90 338 90 C337.34 92.97 336.68 95.94 336 99 C335.34 100.32 334.68 101.64 334 103 C323.78092113 103.05418388 313.56294471 103.06463684 303.34379578 103.01881409 C297.88852559 102.9973034 292.43572555 103.0179083 286.98072815 103.07398987 C283.60563276 103.09966134 280.23138562 103.08760341 276.85629272 103.06613159 C275.25176633 103.06372254 273.6471349 103.07701459 272.0428772 103.10647583 C259.71137992 103.31909063 259.71137992 103.31909063 255.95825195 100.42626953 C254.32307297 98.04365132 253.19815006 95.63009097 252 93 C250.62030674 90.70812411 249.2217268 88.43749599 247.80078125 86.171875 C247.05669206 84.94946688 246.31518145 83.72548569 245.57617188 82.5 C245.20419678 81.88382812 244.83222168 81.26765625 244.44897461 80.6328125 C243.88641968 79.70082031 243.88641968 79.70082031 243.3125 78.75 C242.54640575 77.48426495 241.78013078 76.21863926 241.01367188 74.953125 C237.99965156 69.97439513 234.99435528 64.99059214 232 60 C231.67 73.53 231.34 87.06 231 101 C228.20935283 102.39532359 225.82483026 102.21877249 222.703125 102.31640625 C221.72891098 102.34764587 221.72891098 102.34764587 220.73501587 102.3795166 C218.57347183 102.44626526 216.41180585 102.50489239 214.25 102.5625 C213.5112262 102.58367889 212.77245239 102.60485779 212.0112915 102.62667847 C193.67631461 103.1460474 175.34040908 103.09870232 157 103 C154.8523591 98.33121544 153.87711743 95.2627046 153 90 C144.75 90 136.5 90 128 90 C127.34 92.97 126.68 95.94 126 99 C125.01 100.98 125.01 100.98 124 103 C100.24 103 76.48 103 52 103 C47.66666667 94.33333333 43.33333333 85.66666667 39 77 C38.96241577 78.1281311 38.96241577 78.1281311 38.92407227 79.27905273 C38.80849486 82.66539196 38.68559655 86.05142613 38.5625 89.4375 C38.52318359 90.62150391 38.48386719 91.80550781 38.44335938 93.02539062 C38.38051758 94.71245117 38.38051758 94.71245117 38.31640625 96.43359375 C38.27974854 97.47572021 38.24309082 98.51784668 38.20532227 99.59155273 C38 102 38 102 37 103 C24.79 103 12.58 103 0 103 C0 69.01 0 35.02 0 0 Z M38 28 C38 33.61 38 39.22 38 45 C45.43460682 44.84669794 45.43460682 44.84669794 47.9375 42.25 C49.14823289 39.68609505 49.8611193 37.84705444 50 35 C48.37844371 31.51365399 47.23546708 30.15697806 44 28 C42.02 28 40.04 28 38 28 Z M140 42 C139.1606242 45.10256512 138.3295495 48.20729444 137.5 51.3125 C137.26152344 52.19357422 137.02304688 53.07464844 136.77734375 53.98242188 C136.55175781 54.82998047 136.32617188 55.67753906 136.09375 56.55078125 C135.88427734 57.33106689 135.67480469 58.11135254 135.45898438 58.9152832 C134.89249166 61.13253096 134.89249166 61.13253096 135 64 C138.63 64 142.26 64 146 64 C144.73654179 56.51643983 143.11453104 49.28808366 141 42 C140.67 42 140.34 42 140 42 Z M350 42 C349.1606242 45.10256512 348.3295495 48.20729444 347.5 51.3125 C347.26152344 52.19357422 347.02304687 53.07464844 346.77734375 53.98242188 C346.55175781 54.82998047 346.32617188 55.67753906 346.09375 56.55078125 C345.88427734 57.33106689 345.67480469 58.11135254 345.45898438 58.9152832 C344.89249166 61.13253096 344.89249166 61.13253096 345 64 C348.63 64 352.26 64 356 64 C354.73654179 56.51643983 353.11453104 49.28808366 351 42 C350.67 42 350.34 42 350 42 Z " fill="#FE9700" transform="translate(96,8)"/>
<path d="M0 0 C0.77943466 0.00222061 1.55886932 0.00444122 2.36192322 0.00672913 C3.24276077 0.00680466 4.12359833 0.00688019 5.03112793 0.00695801 C5.98841293 0.01211929 6.94569794 0.01728058 7.93199158 0.02259827 C9.39480812 0.02472069 9.39480812 0.02472069 10.88717651 0.02688599 C14.01542675 0.03250319 17.14360656 0.04505859 20.27183533 0.05775452 C22.38706867 0.0627673 24.50230313 0.06733059 26.61753845 0.07142639 C31.81482829 0.0824782 37.01207678 0.09923305 42.20933533 0.12025452 C42.41041397 0.71318298 42.61149261 1.30611145 42.81866455 1.91700745 C44.97682833 8.28043382 47.1359377 14.64353886 49.29551697 21.00648499 C50.09359479 23.35829624 50.89145767 25.71018044 51.68907166 28.06214905 C58.14530135 47.09922455 64.67447112 66.10974045 71.20933533 85.12025452 C71.53933533 57.07025452 71.86933533 29.02025452 72.20933533 0.12025452 C84.74933533 0.12025452 97.28933533 0.12025452 110.20933533 0.12025452 C110.23188403 13.40213163 110.25024906 26.68399614 110.2611475 39.96588802 C110.26637691 46.13250372 110.27347559 52.2991057 110.28477478 58.4657135 C110.29560162 64.41141457 110.30161173 70.35710241 110.30421257 76.30281258 C110.30606719 78.57672395 110.30968849 80.85063456 110.31506538 83.12454033 C110.32227311 86.29752572 110.32332638 89.47045568 110.32286072 92.64344788 C110.32645599 93.59362793 110.33005127 94.54380798 110.33375549 95.52278137 C110.32338749 102.00620236 110.32338749 102.00620236 109.20933533 103.12025452 C106.93941646 103.2146543 104.66651565 103.23767678 102.39463806 103.23377991 C101.32640305 103.23399895 101.32640305 103.23399895 100.23658752 103.23422241 C97.8720042 103.23352322 95.50749871 103.22573058 93.14292908 103.21791077 C91.5076807 103.21604661 89.87243176 103.2146227 88.23718262 103.21362305 C83.92498747 103.20979769 79.6128258 103.19996727 75.30064392 103.18891907 C70.90367587 103.17870532 66.50670243 103.17412551 62.10972595 103.16908264 C53.47624702 103.15834501 44.84279533 103.14126839 36.20933533 103.12025452 C34.06169443 98.45146995 33.08645276 95.38295912 32.20933533 90.12025452 C23.95933533 90.12025452 15.70933533 90.12025452 7.20933533 90.12025452 C6.54933533 93.42025452 5.88933533 96.72025452 5.20933533 100.12025452 C4.54933533 101.11025452 3.88933533 102.10025452 3.20933533 103.12025452 C0.22982543 103.38679397 -2.53952287 103.46793235 -5.51722717 103.41322327 C-6.38004303 103.40897842 -7.24285889 103.40473358 -8.13182068 103.40036011 C-10.89341665 103.38353844 -13.6542885 103.3458805 -16.41566467 103.30775452 C-18.28544582 103.29271216 -20.15523837 103.27902298 -22.02503967 103.26673889 C-26.61386126 103.23362358 -31.20214011 103.18181791 -35.79066467 103.12025452 C-35.24328538 97.61285493 -34.19979742 92.65288458 -32.38563538 87.41346741 C-32.14153427 86.68858124 -31.89743317 85.96369507 -31.64593506 85.21684265 C-30.84338822 82.83966048 -30.03005528 80.46632705 -29.21644592 78.09291077 C-28.64868452 76.4189276 -28.08157273 74.74472397 -27.51507568 73.0703125 C-26.02325361 68.66705319 -24.52210748 64.26702719 -23.01911926 59.86756897 C-21.80885698 56.32008997 -20.6050099 52.77045152 -19.40157795 49.22065067 C-14.79961 35.64656753 -10.1921458 22.07435435 -5.46327209 8.5438385 C-5.20951718 7.81155816 -4.95576227 7.07927782 -4.69431782 6.32480717 C-2.53184494 0.17002948 -2.53184494 0.17002948 0 0 Z M19.20933533 43.12025452 C18.3720079 46.24419843 17.54015551 49.36957426 16.70933533 52.49525452 C16.47085876 53.38470764 16.2323822 54.27416077 15.98667908 55.19056702 C15.76109314 56.04134827 15.5355072 56.89212952 15.30308533 57.76869202 C15.09361267 58.55421448 14.88414001 59.33973694 14.6683197 60.14906311 C14.13374212 62.1075828 14.13374212 62.1075828 14.20933533 64.12025452 C17.83933533 64.12025452 21.46933533 64.12025452 25.20933533 64.12025452 C24.00847013 56.91506332 22.46922717 50.06565543 20.20933533 43.12025452 C19.87933533 43.12025452 19.54933533 43.12025452 19.20933533 43.12025452 Z " fill="#FEFEFE" transform="translate(741.7906646728516,7.8797454833984375)"/>
<path d="M0 0 C9.69375 -0.0825 19.3875 -0.165 29.375 -0.25 C32.41638184 -0.28641602 35.45776367 -0.32283203 38.59130859 -0.36035156 C41.02701107 -0.3720442 43.46272141 -0.38223466 45.8984375 -0.390625 C47.76495972 -0.4213208 47.76495972 -0.4213208 49.66918945 -0.45263672 C61.74657802 -0.45743409 70.73722129 2.96350864 79.625 11.25 C87.18754139 19.03004811 88.31974644 27.46772711 88.31030273 37.93554688 C88.1118265 48.77256626 85.38104326 57.08232714 77.5625 64.86328125 C66.0489842 74.46372811 52.19376623 72.5351478 38 72 C38.00523682 72.90355225 38.01047363 73.80710449 38.01586914 74.73803711 C38.03287686 78.07951489 38.04543333 81.42094692 38.05493164 84.76245117 C38.05997101 86.21070073 38.06680253 87.65894517 38.07543945 89.10717773 C38.08752247 91.18474588 38.09323211 93.26224697 38.09765625 95.33984375 C38.10289307 96.59144287 38.10812988 97.84304199 38.11352539 99.13256836 C38 102 38 102 37 103 C24.79 103 12.58 103 0 103 C0 69.01 0 35.02 0 0 Z M38 28 C38 33.28 38 38.56 38 44 C44.11595191 43.75846148 44.11595191 43.75846148 49.5625 41.375 C51.59145852 38.02280766 51.54964081 35.84748569 51 32 C49.71107713 29.37716666 49.71107713 29.37716666 47 28 C43.91795892 27.67641221 41.11556103 27.8167317 38 28 Z " fill="#FE9700" transform="translate(5,8)"/>
<path d="M0 0 C1.09602539 0.00281982 2.19205078 0.00563965 3.32128906 0.00854492 C14.48342706 0.22913081 24.41651083 2.3972607 33.9375 8.5 C33.29204701 14.30907689 31.25531238 19.4190594 29.125 24.8125 C28.78146484 25.73095703 28.43792969 26.64941406 28.08398438 27.59570312 C27.74044922 28.46775391 27.39691406 29.33980469 27.04296875 30.23828125 C26.73512451 31.03274658 26.42728027 31.82721191 26.11010742 32.64575195 C24.9375 34.5 24.9375 34.5 22.95825195 35.32641602 C20.06466682 35.57497697 18.4563971 34.51500114 15.9375 33.125 C10.93043208 30.39248427 7.3982539 29.3623585 1.6875 29.4375 C0.79546875 29.44652344 -0.0965625 29.45554687 -1.015625 29.46484375 C-1.69109375 29.47644531 -2.3665625 29.48804687 -3.0625 29.5 C-2.77703067 32.01328216 -2.77703067 32.01328216 -1.0625 34.5 C2.0134477 35.79980784 5.23101579 36.36547395 8.5 37 C18.15805428 38.93304274 26.14976312 41.74613692 32.6484375 49.4609375 C36.30827789 55.25013957 37.47106792 60.06715981 37.375 66.8125 C37.36742676 67.55943115 37.35985352 68.3063623 37.35205078 69.07592773 C37.17021617 75.19791426 36.05600067 80.16237816 32.9375 85.5 C32.53660156 86.20382813 32.13570312 86.90765625 31.72265625 87.6328125 C26.07008359 96.25093778 16.5100476 101.1665327 6.77734375 103.83984375 C-11.91849128 107.05408192 -29.59883456 103.85435536 -46.0625 94.5 C-45.51623739 87.8892966 -43.24521258 82.23328039 -40.75 76.125 C-40.1631543 74.61099609 -40.1631543 74.61099609 -39.56445312 73.06640625 C-39.17580078 72.10863281 -38.78714844 71.15085937 -38.38671875 70.1640625 C-38.03697998 69.29217285 -37.68724121 68.4202832 -37.3269043 67.52197266 C-36.0625 65.5 -36.0625 65.5 -34.08105469 64.62329102 C-30.90123934 64.42907152 -29.19513489 66.03372426 -26.625 67.8125 C-21.12812043 71.58157042 -17.13445081 73.78893787 -10.375 73.6875 C-9.42238281 73.68105469 -8.46976563 73.67460938 -7.48828125 73.66796875 C-5.05319221 73.65549623 -5.05319221 73.65549623 -3.0625 72.5 C-3.0625 71.18 -3.0625 69.86 -3.0625 68.5 C-3.86171875 68.32984375 -4.6609375 68.1596875 -5.484375 67.984375 C-31.8000502 62.17762977 -31.8000502 62.17762977 -39.8984375 49.68359375 C-43.67290678 42.60329735 -43.08455256 32.21621845 -41.4140625 24.5078125 C-37.77262847 14.51721144 -30.55926335 7.95900662 -21.0625 3.5 C-14.06378003 0.49631153 -7.56686882 -0.04340128 0 0 Z " fill="#FEFEFE" transform="translate(674.0625,7.5)"/>
<path d="M0 0 C14.19 0 28.38 0 43 0 C45.97 6.6 48.94 13.2 52 20 C56.41240922 14.43489789 56.41240922 14.43489789 62 0 C76.19 0 90.38 0 105 0 C104.07134934 3.71460266 102.95881328 6.14458636 101.11328125 9.453125 C100.51088623 10.53650146 99.90849121 11.61987793 99.2878418 12.73608398 C98.62962798 13.90752053 97.97117528 15.07882287 97.3125 16.25 C96.64022838 17.45312119 95.96811106 18.65632862 95.29614258 19.85961914 C90.10509172 29.13161363 84.78600904 38.32684276 79.39379883 47.48339844 C78.8448999 48.41571289 78.29600098 49.34802734 77.73046875 50.30859375 C77.24989014 51.12126709 76.76931152 51.93394043 76.27416992 52.77124023 C74.1663103 56.45827808 72.75615657 59.07123664 72.69702148 63.38549805 C72.68037949 64.24286057 72.66373749 65.10022308 72.64659119 65.98356628 C72.63817703 66.9003566 72.62976288 67.81714691 72.62109375 68.76171875 C72.60409927 69.70811722 72.5871048 70.65451569 72.56959534 71.6295929 C72.51650664 74.64882774 72.47617088 77.66804873 72.4375 80.6875 C72.39362034 83.71759455 72.34699224 86.7475809 72.29469299 89.77754211 C72.26264971 91.66270322 72.23578681 93.5479605 72.21446228 95.43327332 C72.20097244 96.28117935 72.1874826 97.12908539 72.17358398 98.00268555 C72.15931618 99.12709297 72.15931618 99.12709297 72.14476013 100.2742157 C72 102 72 102 71 103 C68.26105915 103.08858646 65.5474673 103.11523479 62.80859375 103.09765625 C61.98875504 103.0962413 61.16891632 103.09482635 60.32423401 103.09336853 C57.69528618 103.08775289 55.06642227 103.07519779 52.4375 103.0625 C50.65950643 103.05748701 48.88151154 103.05292376 47.10351562 103.04882812 C42.73564455 103.03777839 38.36783652 103.02050331 34 103 C34.04302246 101.79279297 34.08604492 100.58558594 34.13037109 99.34179688 C35.27045768 66.63471067 35.27045768 66.63471067 21.15429688 38.00683594 C17.31671523 32.65057398 14.15118196 26.88982605 10.88720703 21.1725769 C9.08835935 18.03255852 7.25587371 14.91254257 5.421875 11.79296875 C4.80924805 10.7464917 4.19662109 9.70001465 3.56542969 8.62182617 C2.42784224 6.71656236 1.23090153 4.84635229 0 3 C0 2.01 0 1.02 0 0 Z " fill="#FE9700" transform="translate(491,8)"/>
</svg>
