<?xml version="1.0" encoding="UTF-8"?>
<svg version="1.1" xmlns="http://www.w3.org/2000/svg" width="1280" height="1280">
<path d="M0 0 C2.20403659 1.82766812 3.94090831 3.45610329 5.8125 5.5625 C6.83945948 6.65509038 7.87079345 7.74358397 8.90625 8.828125 C9.41929687 9.36630859 9.93234375 9.90449219 10.4609375 10.45898438 C13.58384976 13.58585972 17.09613187 16.2432888 20.55078125 18.98828125 C22.6787565 20.73613971 24.59233995 22.5198398 26.5 24.5 C30.09385033 28.22220213 34.08269354 31.37323292 38.109375 34.61328125 C40.99237572 36.99370482 43.75078833 39.46679782 46.5 42 C49.9932038 45.21690519 53.5399663 48.28636362 57.25 51.25 C61.86886591 54.97148625 66.19368918 58.92782185 70.5 63 C75.54999634 67.77147603 80.68821867 72.30971257 86.11328125 76.65625 C94.53485971 83.49379678 102.82498013 90.55044136 110.359375 98.36328125 C111.93526611 99.93542024 113.56625987 101.31000475 115.3125 102.6875 C118.66653346 105.57352879 120.63483984 108.1664894 121.50928116 112.55715847 C122.0387211 120.9810442 122.11861541 129.38178517 122.06933594 137.81860352 C122.06409065 139.37213511 122.05926571 140.92566817 122.05482483 142.47920227 C122.0412994 146.66041243 122.02085881 150.84155915 121.99825954 155.02272916 C121.98433026 157.63730499 121.97171592 160.25188401 121.9595108 162.86646843 C121.91661823 171.99280531 121.86733968 181.11908586 121.81298828 190.24536133 C121.7625449 198.74904462 121.72744028 207.25270271 121.69905448 215.75648552 C121.67387724 223.07058439 121.63730763 230.38457013 121.59196877 237.69857162 C121.56515919 242.06193646 121.54316417 246.4251992 121.53295135 250.78863716 C121.52303958 254.88217021 121.49902693 258.97537645 121.46401787 263.06876945 C121.45360383 264.57200836 121.4483101 266.07529254 121.44845009 267.5785675 C121.44786094 269.62632672 121.4272104 271.6740512 121.40545654 273.72169495 C121.39954876 274.86849008 121.39364098 276.01528521 121.38755417 277.1968317 C121 280 121 280 119.64164066 281.85005474 C115.21584105 284.9502626 108.94431257 284.15338501 103.74731445 284.16113281 C102.538909 284.16858017 102.538909 284.16858017 101.30609131 284.17617798 C98.65847911 284.19070772 96.01092665 284.19758309 93.36328125 284.203125 C91.51816304 284.20888021 89.67304483 284.2146379 87.82792664 284.22039795 C83.96885908 284.23087905 80.1098122 284.23674187 76.25073242 284.24023438 C71.30073218 284.24573959 66.35100417 284.26982265 61.40108967 284.29820633 C57.59475389 284.31679744 53.78848451 284.32203623 49.98210716 284.32357025 C48.15640956 284.32660091 46.33071323 284.3346433 44.5050602 284.34775543 C41.95799292 284.36475634 39.41160249 284.36295152 36.86450195 284.35644531 C36.10860275 284.3656601 35.35270355 284.37487488 34.57389832 284.3843689 C29.45196262 284.34325662 29.45196262 284.34325662 27.30558586 282.71312618 C25.02391716 279.71923164 25.61248438 276.01322598 25.65942383 272.39770508 C25.65898575 271.51944565 25.65854767 270.64118622 25.65809631 269.73631287 C25.66018799 266.83049363 25.68353694 263.92524982 25.70703125 261.01953125 C25.71262585 259.00599991 25.71689659 256.99246449 25.71989441 254.97892761 C25.73135384 249.676979 25.76083055 244.37527657 25.79400635 239.07342529 C25.83007628 232.71333148 25.84386315 226.35315539 25.86136627 219.99298859 C25.89046715 210.32848778 25.94794689 200.66452726 26 191 C4.55 191 -16.9 191 -39 191 C-38.94199219 197.46207031 -38.88398437 203.92414063 -38.82421875 210.58203125 C-38.79867833 214.66994689 -38.77460933 218.75776451 -38.75585938 222.84570312 C-38.72594134 229.33785366 -38.69050655 235.82965245 -38.62280273 242.3215332 C-38.56857274 247.55405727 -38.53859834 252.78620431 -38.52561378 258.01898766 C-38.51635771 260.01777777 -38.49828306 262.01654669 -38.47134972 264.01517677 C-38.43517902 266.80981048 -38.43004959 269.6028759 -38.43237305 272.39770508 C-38.41439667 273.22848572 -38.39642029 274.05926636 -38.37789917 274.91522217 C-38.41011665 278.48414 -38.4412005 280.44908772 -41.04321289 283.01437378 C-44.70570376 284.23524187 -48.05969933 284.41244912 -51.8762207 284.37231445 C-52.65413971 284.37596512 -53.43205872 284.37961578 -54.23355103 284.38337708 C-56.79785191 284.39146341 -59.36151686 284.37788491 -61.92578125 284.36328125 C-63.71551005 284.36276225 -65.50523942 284.36328148 -67.29496765 284.36479187 C-71.04495767 284.36470222 -74.7947324 284.35429085 -78.54467773 284.33618164 C-83.33612555 284.31354408 -88.12725757 284.31294234 -92.91874409 284.31969929 C-96.61550164 284.32305246 -100.31218809 284.31638304 -104.00893211 284.30657005 C-105.77465632 284.30273728 -107.54038846 284.30156181 -109.3061161 284.3031559 C-111.78276042 284.3035296 -114.25901095 284.29082016 -116.7355957 284.2746582 C-117.45638809 284.27713562 -118.17718048 284.27961304 -118.91981506 284.28216553 C-123.91105972 284.23056611 -128.3010364 283.76817419 -133 282 C-134.94691788 277.71481099 -135.25251241 273.89139085 -135.26069641 269.22685242 C-135.26452196 268.57062403 -135.26834751 267.91439564 -135.27228898 267.23828155 C-135.28255685 265.05289577 -135.27863876 262.86777578 -135.2746582 260.68237305 C-135.27900819 259.10990151 -135.2841923 257.5374321 -135.29014587 255.96496582 C-135.30351798 251.70243211 -135.30411641 247.43998718 -135.30158257 243.17743659 C-135.3005114 239.61401592 -135.30540012 236.0506131 -135.310188 232.48719627 C-135.32127754 224.07649287 -135.32172405 215.66583413 -135.31567383 207.25512695 C-135.30963718 198.59141356 -135.32193845 189.92786269 -135.3432439 181.26417702 C-135.36088576 173.81513426 -135.36685708 166.3661431 -135.36360615 158.91708022 C-135.36179687 154.47291603 -135.36439371 150.02886772 -135.37832069 145.58472252 C-135.39093611 141.40267675 -135.38891999 137.22088334 -135.37590981 133.03884125 C-135.37355233 131.50907365 -135.37624882 129.97928808 -135.38453293 128.44954109 C-135.47356073 110.72315543 -135.47356073 110.72315543 -130.31762695 103.71240234 C-129.71394287 103.17566895 -129.11025879 102.63893555 -128.48828125 102.0859375 C-127.81216797 101.46976563 -127.13605469 100.85359375 -126.43945312 100.21875 C-125.73755859 99.6103125 -125.03566406 99.001875 -124.3125 98.375 C-123.62994141 97.75882813 -122.94738281 97.14265625 -122.24414062 96.5078125 C-120.17955794 94.6518326 -118.09344771 92.82331752 -116 91 C-114.97084473 90.09544067 -114.97084473 90.09544067 -113.92089844 89.17260742 C-109.8529927 85.59932868 -105.75863884 82.05949622 -101.625 78.5625 C-101.07263672 78.09440918 -100.52027344 77.62631836 -99.95117188 77.14404297 C-95.73300222 73.58389805 -91.42718414 70.1454732 -87.09375 66.7265625 C-85.27688565 65.22832735 -83.62949848 63.69581528 -82 62 C-81.34 61.34 -80.68 60.68 -80 60 C-79.34 60 -78.68 60 -78 60 C-77.80019531 59.45472656 -77.60039063 58.90945313 -77.39453125 58.34765625 C-75.42592478 55.03355964 -72.62235548 52.86239133 -69.6875 50.4375 C-69.06883057 49.91663818 -68.45016113 49.39577637 -67.81274414 48.85913086 C-65.88014443 47.23337093 -63.94044412 45.61638407 -62 44 C-60.20275126 42.49406877 -58.40748721 40.98585816 -56.61450195 39.47485352 C-55.52947517 38.5610553 -54.44221364 37.64990122 -53.35229492 36.74194336 C-50.06168781 33.980383 -47.02083925 31.05135278 -44 28 C-42.00334402 26.32932867 -40.00348966 24.66247014 -38 23 C-37.38125 22.38125 -36.7625 21.7625 -36.125 21.125 C-33.68356731 18.68356731 -31.097773 16.46182388 -28.484375 14.20703125 C-26.54367119 12.48297834 -24.64839211 10.73499814 -22.765625 8.94921875 C-21.91182251 8.14387695 -21.91182251 8.14387695 -21.04077148 7.32226562 C-19.90713928 6.2499671 -18.77883124 5.17200572 -17.65649414 4.08789062 C-11.83306231 -1.40173646 -7.67341053 -3.35390319 0 0 Z " fill="#FEFEFE" transform="translate(644,446)"/>
</svg>
