<?xml version="1.0" encoding="UTF-8"?>
<svg version="1.1" xmlns="http://www.w3.org/2000/svg" width="1280" height="1280">
<path d="M0 0 C28.05 0 56.1 0 85 0 C85 1.32 85 2.64 85 4 C90.28 4 95.56 4 101 4 C101.33 5.32 101.66 6.64 102 8 C103.25659424 7.99214478 103.25659424 7.99214478 104.53857422 7.98413086 C107.64338936 7.96709986 110.74818071 7.95455518 113.85302734 7.94506836 C115.85906551 7.93755964 117.86508202 7.9248553 119.87109375 7.91210938 C121.75634766 7.90727539 121.75634766 7.90727539 123.6796875 7.90234375 C125.42354736 7.89448853 125.42354736 7.89448853 127.20263672 7.88647461 C130 8 130 8 132 9 C132 10.32 132 11.64 132 13 C136.29 13 140.58 13 145 13 C145 14.32 145 15.64 145 17 C148.96 17 152.92 17 157 17 C157.33 18.32 157.66 19.64 158 21 C160.31 21 162.62 21 165 21 C165.33 22.32 165.66 23.64 166 25 C166.97582031 24.98839844 167.95164062 24.97679687 168.95703125 24.96484375 C170.22933594 24.95582031 171.50164062 24.94679687 172.8125 24.9375 C174.07707031 24.92589844 175.34164063 24.91429687 176.64453125 24.90234375 C180 25 180 25 183 26 C183 27.32 183 28.64 183 30 C184.65 30.33 186.3 30.66 188 31 C188 31.99 188 32.98 188 34 C190.64 34 193.28 34 196 34 C196 35.32 196 36.64 196 38 C197.670625 37.9690625 197.670625 37.9690625 199.375 37.9375 C203 38 203 38 205 39 C205 39.99 205 40.98 205 42 C208.96 42.495 208.96 42.495 213 43 C213 44.32 213 45.64 213 47 C215.64 47 218.28 47 221 47 C221.33 48.32 221.66 49.64 222 51 C223.32 51.33 224.64 51.66 226 52 C226 52.99 226 53.98 226 55 C227.32 55.33 228.64 55.66 230 56 C230 57.32 230 58.64 230 60 C232.97 60 235.94 60 239 60 C239 61.32 239 62.64 239 64 C240.32 64 241.64 64 243 64 C243 65.32 243 66.64 243 68 C245.31 68 247.62 68 250 68 C250.2475 68.639375 250.495 69.27875 250.75 69.9375 C251.81562433 72.18741541 251.81562433 72.18741541 254.125 72.75 C254.74375 72.8325 255.3625 72.915 256 73 C256 74.32 256 75.64 256 77 C257.32 77 258.64 77 260 77 C260 78.32 260 79.64 260 81 C261.32 81 262.64 81 264 81 C264.33 82.32 264.66 83.64 265 85 C266.32 85.33 267.64 85.66 269 86 C269 86.99 269 87.98 269 89 C270.32 89.33 271.64 89.66 273 90 C273 91.32 273 92.64 273 94 C274.32 94 275.64 94 277 94 C277 95.32 277 96.64 277 98 C278.32 98 279.64 98 281 98 C281.33 99.32 281.66 100.64 282 102 C283.32 102.33 284.64 102.66 286 103 C286 103.99 286 104.98 286 106 C287.32 106.33 288.64 106.66 290 107 C290 108.32 290 109.64 290 111 C291.32 111 292.64 111 294 111 C294 112.32 294 113.64 294 115 C296.475 115.495 296.475 115.495 299 116 C299 116.99 299 117.98 299 119 C300.32 119.33 301.64 119.66 303 120 C303 121.32 303 122.64 303 124 C304.32 124 305.64 124 307 124 C307 125.32 307 126.64 307 128 C308.32 128 309.64 128 311 128 C311 129.32 311 130.64 311 132 C312.32 132 313.64 132 315 132 C316.4783226 134.95664519 316.06032783 137.74229737 316 141 C317.32 141 318.64 141 320 141 C320 142.32 320 143.64 320 145 C321.32 145 322.64 145 324 145 C324 147.64 324 150.28 324 153 C324.9590625 153.1546875 324.9590625 153.1546875 325.9375 153.3125 C326.618125 153.539375 327.29875 153.76625 328 154 C328.33 154.99 328.66 155.98 329 157 C331.00016466 158.20882096 331.00016466 158.20882096 333 159 C333 159.99 333 160.98 333 162 C334.32 162.33 335.64 162.66 337 163 C337 165.31 337 167.62 337 170 C338.32 170.33 339.64 170.66 341 171 C341 173.64 341 176.28 341 179 C342.32 179 343.64 179 345 179 C345.33 181.97 345.66 184.94 346 188 C347.32 188.33 348.64 188.66 350 189 C350 191.31 350 193.62 350 196 C351.32 196.33 352.64 196.66 354 197 C354 200.96 354 204.92 354 209 C355.32 209 356.64 209 358 209 C358 211.64 358 214.28 358 217 C359.32 217.33 360.64 217.66 362 218 C362.33 219.32 362.66 220.64 363 222 C364.32 222.33 365.64 222.66 367 223 C367 228.28 367 233.56 367 239 C368.32 239 369.64 239 371 239 C371.33 242.96 371.66 246.92 372 251 C372.99 251.33 373.98 251.66 375 252 C375 260.25 375 268.5 375 277 C376.32 277 377.64 277 379 277 C380.53266582 280.06533164 380.10276471 283.26754272 380.0625 286.625 C380.05798828 287.33140625 380.05347656 288.0378125 380.04882812 288.765625 C380.03703875 290.51045275 380.01910324 292.255237 380 294 C381.32 294.33 382.64 294.66 384 295 C384 322.72 384 350.44 384 379 C382.68 379.33 381.36 379.66 380 380 C380.02320313 381.05960938 380.04640625 382.11921875 380.0703125 383.2109375 C380.08906944 384.5989513 380.10726972 385.9869727 380.125 387.375 C380.14175781 388.07367187 380.15851562 388.77234375 380.17578125 389.4921875 C380.19344267 391.32897486 380.10303261 393.16601963 380 395 C379.34 395.66 378.68 396.32 378 397 C377.01 397 376.02 397 375 397 C375 406.57 375 416.14 375 426 C373.68 426.33 372.36 426.66 371 427 C371 429.64 371 432.28 371 435 C370.01 435.33 369.02 435.66 368 436 C367.67 442.27 367.34 448.54 367 455 C365.68 455.66 364.36 456.32 363 457 C362.30367785 458.95365445 362.30367785 458.95365445 362.25 461.125 C362.1675 462.40375 362.085 463.6825 362 465 C360.68 465 359.36 465 358 465 C358 466.32 358 467.64 358 469 C356.68 469.33 355.36 469.66 354 470 C354 474.95 354 479.9 354 485 C352.68 485.66 351.36 486.32 350 487 C349.19471111 489.05000871 349.19471111 489.05000871 349 491 C348.01 491 347.02 491 346 491 C346.0309375 492.5778125 346.0309375 492.5778125 346.0625 494.1875 C346.01103198 497.32704904 345.73482813 499.96883396 345 503 C343.68 503.33 342.36 503.66 341 504 C340.67 505.32 340.34 506.64 340 508 C339.01 508 338.02 508 337 508 C337.12375 509.60875 337.12375 509.60875 337.25 511.25 C337 515 337 515 335.0625 517.3125 C334.381875 517.869375 333.70125 518.42625 333 519 C332.67 519.66 332.34 520.32 332 521 C330.68 521 329.36 521 328 521 C327.67 522.32 327.34 523.64 327 525 C326.01 525 325.02 525 324 525 C324 530.28 324 535.56 324 541 C325.98 541 327.96 541 330 541 C330.99 541.66 331.98 542.32 333 543 C333 543.99 333 544.98 333 546 C334.32 546 335.64 546 337 546 C337 547.32 337 548.64 337 550 C338.32 550 339.64 550 341 550 C341 551.32 341 552.64 341 554 C342.32 554 343.64 554 345 554 C345.33 554.99 345.66 555.98 346 557 C348.00016466 558.20882096 348.00016466 558.20882096 350 559 C350 560.32 350 561.64 350 563 C351.32 563 352.64 563 354 563 C354 564.32 354 565.64 354 567 C355.32 567 356.64 567 358 567 C358 568.32 358 569.64 358 571 C359.32 571 360.64 571 362 571 C362.33 572.65 362.66 574.3 363 576 C364.32 576 365.64 576 367 576 C367 577.32 367 578.64 367 580 C369.64 580 372.28 580 375 580 C375 581.32 375 582.64 375 584 C376.32 584 377.64 584 379 584 C379.33 585.32 379.66 586.64 380 588 C381.32 588.33 382.64 588.66 384 589 C384 590.32 384 591.64 384 593 C385.32 593 386.64 593 388 593 C388 594.32 388 595.64 388 597 C389.32 597 390.64 597 392 597 C392 598.32 392 599.64 392 601 C393.65 601.33 395.3 601.66 397 602 C397 602.99 397 603.98 397 605 C398.32 605.33 399.64 605.66 401 606 C401 607.32 401 608.64 401 610 C402.32 610 403.64 610 405 610 C405 611.32 405 612.64 405 614 C407.64 614 410.28 614 413 614 C413.33 615.32 413.66 616.64 414 618 C415.32 618.33 416.64 618.66 418 619 C418 619.99 418 620.98 418 622 C419.32 622.33 420.64 622.66 422 623 C422 624.32 422 625.64 422 627 C423.32 627 424.64 627 426 627 C426.33 629.64 426.66 632.28 427 635 C429.31 635 431.62 635 434 635 C434.33 636.32 434.66 637.64 435 639 C436.32 639.33 437.64 639.66 439 640 C439 641.32 439 642.64 439 644 C440.65 644.33 442.3 644.66 444 645 C444 645.99 444 646.98 444 648 C445.32 648.33 446.64 648.66 448 649 C448 649.99 448 650.98 448 652 C449.32 652.33 450.64 652.66 452 653 C452 654.32 452 655.64 452 657 C453.32 657 454.64 657 456 657 C456 658.32 456 659.64 456 661 C457.65 661.33 459.3 661.66 461 662 C461 662.99 461 663.98 461 665 C463.31 665 465.62 665 468 665 C468.33 666.32 468.66 667.64 469 669 C470.32 669.33 471.64 669.66 473 670 C473 671.32 473 672.64 473 674 C474.65 674.33 476.3 674.66 478 675 C478 675.99 478 676.98 478 678 C479.32 678 480.64 678 482 678 C482 679.32 482 680.64 482 682 C483.32 682 484.64 682 486 682 C486 683.32 486 684.64 486 686 C487.32 686.33 488.64 686.66 490 687 C490.33 688.32 490.66 689.64 491 691 C492.32 691 493.64 691 495 691 C495 692.32 495 693.64 495 695 C497.31 695 499.62 695 502 695 C502.33 696.32 502.66 697.64 503 699 C503.598125 699.103125 504.19625 699.20625 504.8125 699.3125 C507.30869017 700.09701691 508.25731865 701.09889308 510 703 C510.66 703.33 511.32 703.66 512 704 C512 705.32 512 706.64 512 708 C513.32 708 514.64 708 516 708 C516 710.64 516 713.28 516 716 C517.6396875 715.87625 517.6396875 715.87625 519.3125 715.75 C523 716 523 716 524.75 717.9375 C525.1625 718.618125 525.575 719.29875 526 720 C526.99 720.33 527.98 720.66 529 721 C529 722.32 529 723.64 529 725 C530.32 725 531.64 725 533 725 C535.4177019 736.59379374 535.23061826 748.02809229 535.125 759.8125 C535.11494637 761.77668813 535.10582475 763.74088125 535.09765625 765.70507812 C535.07584026 770.47017779 535.04144282 775.23503228 535 780 C534.34 780 533.68 780 533 780 C533 782.97 533 785.94 533 789 C532.01 789.33 531.02 789.66 530 790 C528.79117904 792.00016466 528.79117904 792.00016466 528 794 C527.01 794 526.02 794 525 794 C524.67 795.32 524.34 796.64 524 798 C522.68 798 521.36 798 520 798 C520 799.32 520 800.64 520 802 C518.68 802 517.36 802 516 802 C515.67 803.65 515.34 805.3 515 807 C514.01 807 513.02 807 512 807 C511.67 808.32 511.34 809.64 511 811 C505.72 811 500.44 811 495 811 C494.67 812.32 494.34 813.64 494 815 C487.4 815 480.8 815 474 815 C473.67 813.68 473.34 812.36 473 811 C467.72 811 462.44 811 457 811 C456.67 809.68 456.34 808.36 456 807 C454.68 806.67 453.36 806.34 452 806 C451.67 804.68 451.34 803.36 451 802 C448.69 802 446.38 802 444 802 C443.67 800.68 443.34 799.36 443 798 C441.68 798 440.36 798 439 798 C439 796.68 439 795.36 439 794 C437.35 793.67 435.7 793.34 434 793 C434 792.01 434 791.02 434 790 C432.68 789.67 431.36 789.34 430 789 C430 787.68 430 786.36 430 785 C428.68 785 427.36 785 426 785 C426 783.68 426 782.36 426 781 C424.68 781 423.36 781 422 781 C421.67 779.68 421.34 778.36 421 777 C420.360625 776.896875 419.72125 776.79375 419.0625 776.6875 C418.381875 776.460625 417.70125 776.23375 417 776 C416.67 775.01 416.34 774.02 416 773 C415.01 772.67 414.02 772.34 413 772 C413 770.68 413 769.36 413 768 C410.69 768 408.38 768 406 768 C405.7525 767.360625 405.505 766.72125 405.25 766.0625 C404.18437567 763.81258459 404.18437567 763.81258459 401.875 763.25 C401.25625 763.1675 400.6375 763.085 400 763 C400 762.01 400 761.02 400 760 C398.68 759.67 397.36 759.34 396 759 C396 757.68 396 756.36 396 755 C394.68 755 393.36 755 392 755 C392 753.68 392 752.36 392 751 C390.35 750.67 388.7 750.34 387 750 C387 749.01 387 748.02 387 747 C385.68 746.67 384.36 746.34 383 746 C383 745.01 383 744.02 383 743 C381.68 742.67 380.36 742.34 379 742 C379 740.68 379 739.36 379 738 C377.68 738 376.36 738 375 738 C375 736.68 375 735.36 375 734 C373.35 733.67 371.7 733.34 370 733 C370 732.01 370 731.02 370 730 C368.68 729.67 367.36 729.34 366 729 C366 728.01 366 727.02 366 726 C364.68 725.67 363.36 725.34 362 725 C362 723.68 362 722.36 362 721 C360.68 721 359.36 721 358 721 C357.67 719.68 357.34 718.36 357 717 C354.69 717 352.38 717 350 717 C349.67 715.68 349.34 714.36 349 713 C347.68 712.67 346.36 712.34 345 712 C345 711.01 345 710.02 345 709 C343.35 708.34 341.7 707.68 340 707 C340 706.01 340 705.02 340 704 C338.68 703.67 337.36 703.34 336 703 C336 702.01 336 701.02 336 700 C334.68 699.67 333.36 699.34 332 699 C332 698.01 332 697.02 332 696 C331.360625 695.896875 330.72125 695.79375 330.0625 695.6875 C329.381875 695.460625 328.70125 695.23375 328 695 C327.67 694.01 327.34 693.02 327 692 C324.99983534 690.79117904 324.99983534 690.79117904 323 690 C323 689.01 323 688.02 323 687 C320.69 687 318.38 687 316 687 C315.67 685.68 315.34 684.36 315 683 C313.68 682.67 312.36 682.34 311 682 C311 681.01 311 680.02 311 679 C309.68 678.67 308.36 678.34 307 678 C306.67 676.68 306.34 675.36 306 674 C304.68 673.67 303.36 673.34 302 673 C302 672.01 302 671.02 302 670 C300.68 669.67 299.36 669.34 298 669 C298 668.01 298 667.02 298 666 C296.68 665.67 295.36 665.34 294 665 C294 664.01 294 663.02 294 662 C292.68 661.67 291.36 661.34 290 661 C289.67 659.68 289.34 658.36 289 657 C287.68 656.67 286.36 656.34 285 656 C285 655.01 285 654.02 285 653 C283.68 652.67 282.36 652.34 281 652 C281 651.01 281 650.02 281 649 C280.443125 648.938125 279.88625 648.87625 279.3125 648.8125 C275.98470782 647.64327572 274.26866168 645.64677196 272 643 C272 642.01 272 641.02 272 640 C270.68 640 269.36 640 268 640 C268 638.68 268 637.36 268 636 C265.69 636 263.38 636 261 636 C260.7525 635.360625 260.505 634.72125 260.25 634.0625 C259.20311706 631.80104993 259.20311706 631.80104993 256.9375 631.4375 C256.298125 631.293125 255.65875 631.14875 255 631 C254.67 630.01 254.34 629.02 254 628 C253.01 627.67 252.02 627.34 251 627 C251 625.68 251 624.36 251 623 C249.68 623 248.36 623 247 623 C247 621.68 247 620.36 247 619 C243.04 619 239.08 619 235 619 C234.67 620.32 234.34 621.64 234 623 C232.68 623 231.36 623 230 623 C229.67 624.32 229.34 625.64 229 627 C227.329375 627.12375 227.329375 627.12375 225.625 627.25 C221.94246056 627.57873787 221.94246056 627.57873787 220.5625 630.0625 C220.376875 630.701875 220.19125 631.34125 220 632 C217.69 632 215.38 632 213 632 C212.67 633.32 212.34 634.64 212 636 C209.69 636 207.38 636 205 636 C204.896875 636.639375 204.79375 637.27875 204.6875 637.9375 C204.460625 638.618125 204.23375 639.29875 204 640 C203.01 640.33 202.02 640.66 201 641 C200.67 641.99 200.34 642.98 200 644 C197.36 644.33 194.72 644.66 192 645 C192 645.99 192 646.98 192 648 C189.04335481 649.4783226 186.25770263 649.06032783 183 649 C182.67 650.32 182.34 651.64 182 653 C179.69 653 177.38 653 175 653 C174.67 654.32 174.34 655.64 174 657 C168.72 657 163.44 657 158 657 C158 658.32 158 659.64 158 661 C157.38125 661.268125 156.7625 661.53625 156.125 661.8125 C153.7004767 662.95556848 153.7004767 662.95556848 152 666 C149.3984375 666.29296875 149.3984375 666.29296875 146.375 666.1875 C145.37210938 666.16042969 144.36921875 666.13335938 143.3359375 666.10546875 C142.17964844 666.05326172 142.17964844 666.05326172 141 666 C140.34 667.32 139.68 668.64 139 670 C132.4 670 125.8 670 119 670 C118.67 671.32 118.34 672.64 118 674 C116.96359375 674.02578125 115.9271875 674.0515625 114.859375 674.078125 C113.48954199 674.13441951 112.11975195 674.19176655 110.75 674.25 C110.06808594 674.26417969 109.38617187 674.27835938 108.68359375 674.29296875 C106.38340716 674.3657465 106.38340716 674.3657465 103 675 C102.48848892 675.66254791 101.97697784 676.32509583 101.44996643 677.00772095 C97.45685875 680.25486127 93.11836012 679.53940735 88.12866211 679.48583984 C86.4671537 679.49153488 86.4671537 679.49153488 84.77207947 679.49734497 C81.10688052 679.50476081 77.44247238 679.48335371 73.77734375 679.4609375 C71.23434034 679.45855377 68.69133516 679.4576476 66.14833069 679.4581604 C60.81776069 679.45503068 55.48746549 679.43893632 50.15698242 679.41162109 C43.99369638 679.38015506 37.83065978 679.3696255 31.66729921 679.3710922 C25.73737771 679.37231277 19.8075281 679.3618863 13.87762642 679.34550858 C11.35417739 679.33913225 8.83072098 679.33519974 6.30726433 679.33372116 C2.78536251 679.32939807 -0.73622257 679.31191854 -4.25805664 679.29052734 C-5.83142792 679.2918869 -5.83142792 679.2918869 -7.43658447 679.29327393 C-8.39414139 679.28474396 -9.3516983 679.27621399 -10.33827209 679.26742554 C-11.17098664 679.26407385 -12.00370119 679.26072216 -12.86164951 679.25726891 C-15 679 -15 679 -18 677 C-18 676.01 -18 675.02 -18 674 C-21.96 674 -25.92 674 -30 674 C-30.33 672.68 -30.66 671.36 -31 670 C-37.6 670 -44.2 670 -51 670 C-51.33 668.68 -51.66 667.36 -52 666 C-55.96 666 -59.92 666 -64 666 C-64.33 664.68 -64.66 663.36 -65 662 C-66.423125 662.0309375 -66.423125 662.0309375 -67.875 662.0625 C-71 662 -71 662 -73 661 C-73 659.68 -73 658.36 -73 657 C-76.96 657 -80.92 657 -85 657 C-85.33 655.68 -85.66 654.36 -86 653 C-88.64 653 -91.28 653 -94 653 C-94 651.68 -94 650.36 -94 649 C-97.96 649 -101.92 649 -106 649 C-106.33 647.68 -106.66 646.36 -107 645 C-108.32 644.67 -109.64 644.34 -111 644 C-111.33 642.68 -111.66 641.36 -112 640 C-114.64 640 -117.28 640 -120 640 C-120 638.68 -120 637.36 -120 636 C-122.64 636 -125.28 636 -128 636 C-128.33 634.68 -128.66 633.36 -129 632 C-130.32 631.67 -131.64 631.34 -133 631 C-133 630.01 -133 629.02 -133 628 C-135.64 627.67 -138.28 627.34 -141 627 C-141 625.68 -141 624.36 -141 623 C-142.65 622.67 -144.3 622.34 -146 622 C-146 621.01 -146 620.02 -146 619 C-148.31 619 -150.62 619 -153 619 C-153.33 617.68 -153.66 616.36 -154 615 C-154.639375 614.896875 -155.27875 614.79375 -155.9375 614.6875 C-156.618125 614.460625 -157.29875 614.23375 -158 614 C-158.33 613.01 -158.66 612.02 -159 611 C-161.00016466 609.79117904 -161.00016466 609.79117904 -163 609 C-163 608.01 -163 607.02 -163 606 C-165.64 606 -168.28 606 -171 606 C-171 604.68 -171 603.36 -171 602 C-172.32 602 -173.64 602 -175 602 C-175.495 600.515 -175.495 600.515 -176 599 C-178.00016466 597.79117904 -178.00016466 597.79117904 -180 597 C-180 595.68 -180 594.36 -180 593 C-181.32 593 -182.64 593 -184 593 C-184 591.68 -184 590.36 -184 589 C-185.32 589 -186.64 589 -188 589 C-188 587.68 -188 586.36 -188 585 C-189.32 585 -190.64 585 -192 585 C-192.33 583.68 -192.66 582.36 -193 581 C-194.32 580.67 -195.64 580.34 -197 580 C-197 578.68 -197 577.36 -197 576 C-198.32 576 -199.64 576 -201 576 C-201 574.68 -201 573.36 -201 572 C-202.32 572 -203.64 572 -205 572 C-205 570.68 -205 569.36 -205 568 C-206.32 568 -207.64 568 -209 568 C-209.33 566.68 -209.66 565.36 -210 564 C-211.32 563.67 -212.64 563.34 -214 563 C-214 561.68 -214 560.36 -214 559 C-215.32 559 -216.64 559 -218 559 C-218 557.68 -218 556.36 -218 555 C-219.32 555 -220.64 555 -222 555 C-222 552.36 -222 549.72 -222 547 C-223.65 546.34 -225.3 545.68 -227 545 C-227 544.01 -227 543.02 -227 542 C-228.32 542 -229.64 542 -231 542 C-231 540.68 -231 539.36 -231 538 C-232.32 537.67 -233.64 537.34 -235 537 C-235 534.36 -235 531.72 -235 529 C-236.32 529 -237.64 529 -239 529 C-239 527.68 -239 526.36 -239 525 C-240.65 524.67 -242.3 524.34 -244 524 C-244 521.69 -244 519.38 -244 517 C-245.32 516.67 -246.64 516.34 -248 516 C-248 514.68 -248 513.36 -248 512 C-249.32 512 -250.64 512 -252 512 C-252 510.68 -252 509.36 -252 508 C-252.639375 507.896875 -253.27875 507.79375 -253.9375 507.6875 C-254.9584375 507.3471875 -254.9584375 507.3471875 -256 507 C-256.96070434 504.11788698 -257.10581883 502.30149956 -257.0625 499.3125 C-257.05347656 498.50425781 -257.04445313 497.69601562 -257.03515625 496.86328125 C-257.02355469 496.24839844 -257.01195312 495.63351562 -257 495 C-258.32 494.67 -259.64 494.34 -261 494 C-261 493.01 -261 492.02 -261 491 C-262.32 490.67 -263.64 490.34 -265 490 C-265 486.04 -265 482.08 -265 478 C-266.32 477.67 -267.64 477.34 -269 477 C-269 474.69 -269 472.38 -269 470 C-269.639375 469.87625 -270.27875 469.7525 -270.9375 469.625 C-271.9584375 469.315625 -271.9584375 469.315625 -273 469 C-274.91478606 465.17042789 -274.35898293 460.41138587 -274.5234375 456.1875 C-274.68070313 455.135625 -274.83796875 454.08375 -275 453 C-275.99 452.34 -276.98 451.68 -278 451 C-278.1875 447.375 -278.1875 447.375 -278 444 C-279.32 443.67 -280.64 443.34 -282 443 C-282.103125 441.88625 -282.20625 440.7725 -282.3125 439.625 C-282.539375 438.42875 -282.76625 437.2325 -283 436 C-283.99 435.34 -284.98 434.68 -286 434 C-286.34057617 431.93701172 -286.34057617 431.93701172 -286.29296875 429.4296875 C-286.28330078 428.53378906 -286.27363281 427.63789062 -286.26367188 426.71484375 C-286.23853516 425.77769531 -286.21339844 424.84054687 -286.1875 423.875 C-286.17396484 422.93011719 -286.16042969 421.98523438 -286.14648438 421.01171875 C-286.11106306 418.67391221 -286.06167271 416.33723763 -286 414 C-287.65 413.67 -289.3 413.34 -291 413 C-291 409.04 -291 405.08 -291 401 C-292.32 400.67 -293.64 400.34 -295 400 C-295 361.06 -295 322.12 -295 282 C-293.68 281.67 -292.36 281.34 -291 281 C-291 275.72 -291 270.44 -291 265 C-289.35 264.67 -287.7 264.34 -286 264 C-286 257.07 -286 250.14 -286 243 C-284.68 243 -283.36 243 -282 243 C-282 240.36 -282 237.72 -282 235 C-280.68 234.67 -279.36 234.34 -278 234 C-278 230.04 -278 226.08 -278 222 C-276.68 222 -275.36 222 -274 222 C-274 218.04 -274 214.08 -274 210 C-272.35 209.67 -270.7 209.34 -269 209 C-269 206.03 -269 203.06 -269 200 C-267.68 200 -266.36 200 -265 200 C-265 197.36 -265 194.72 -265 192 C-263.68 192 -262.36 192 -261 192 C-261 189.36 -261 186.72 -261 184 C-259.68 183.67 -258.36 183.34 -257 183 C-257.020625 182.05125 -257.04125 181.1025 -257.0625 180.125 C-257 177 -257 177 -256 175 C-254.68 175 -253.36 175 -252 175 C-251.67 173.35 -251.34 171.7 -251 170 C-250.01 170 -249.02 170 -248 170 C-248 167.36 -248 164.72 -248 162 C-246.68 162 -245.36 162 -244 162 C-244 159.36 -244 156.72 -244 154 C-242.35 153.67 -240.7 153.34 -239 153 C-239 151.68 -239 150.36 -239 149 C-237.68 149 -236.36 149 -235 149 C-235 146.36 -235 143.72 -235 141 C-233.68 141 -232.36 141 -231 141 C-230.67 139.35 -230.34 137.7 -230 136 C-229.01 136 -228.02 136 -227 136 C-226.67 134.68 -226.34 133.36 -226 132 C-224.68 132 -223.36 132 -222 132 C-222 129.36 -222 126.72 -222 124 C-220.68 124 -219.36 124 -218 124 C-218 122.35 -218 120.7 -218 119 C-216.68 119 -215.36 119 -214 119 C-214 117.68 -214 116.36 -214 115 C-212.68 115 -211.36 115 -210 115 C-210 113.68 -210 112.36 -210 111 C-208.35 111 -206.7 111 -205 111 C-204.67 109.35 -204.34 107.7 -204 106 C-203.01 106 -202.02 106 -201 106 C-201 104.68 -201 103.36 -201 102 C-199.68 102 -198.36 102 -197 102 C-197 100.68 -197 99.36 -197 98 C-195.68 98 -194.36 98 -193 98 C-192.505 96.02 -192.505 96.02 -192 94 C-190.68 94 -189.36 94 -188 94 C-187.67 92.35 -187.34 90.7 -187 89 C-186.01 89 -185.02 89 -184 89 C-184 87.68 -184 86.36 -184 85 C-182.68 85 -181.36 85 -180 85 C-180 83.68 -180 82.36 -180 81 C-179.360625 80.896875 -178.72125 80.79375 -178.0625 80.6875 C-177.381875 80.460625 -176.70125 80.23375 -176 80 C-175.505 78.515 -175.505 78.515 -175 77 C-172.36 77 -169.72 77 -167 77 C-166.67 75.35 -166.34 73.7 -166 72 C-165.01 72 -164.02 72 -163 72 C-162.67 70.68 -162.34 69.36 -162 68 C-160.68 68 -159.36 68 -158 68 C-158 66.68 -158 65.36 -158 64 C-156.68 64 -155.36 64 -154 64 C-154 62.68 -154 61.36 -154 60 C-151.36 60 -148.72 60 -146 60 C-145.67 58.35 -145.34 56.7 -145 55 C-143.68 55 -142.36 55 -141 55 C-141 53.68 -141 52.36 -141 51 C-138.36 51 -135.72 51 -133 51 C-133 49.68 -133 48.36 -133 47 C-130.03 47 -127.06 47 -124 47 C-124 45.68 -124 44.36 -124 43 C-123.01 42.67 -122.02 42.34 -121 42 C-120.34 40.68 -119.68 39.36 -119 38 C-115.04 38 -111.08 38 -107 38 C-107 36.68 -107 35.36 -107 34 C-105.68 34 -104.36 34 -103 34 C-103 32.68 -103 31.36 -103 30 C-100.03 30 -97.06 30 -94 30 C-94 28.68 -94 27.36 -94 26 C-91.47524538 24.73762269 -89.68799534 24.90143596 -86.875 24.9375 C-85.96492187 24.94652344 -85.05484375 24.95554688 -84.1171875 24.96484375 C-83.41851562 24.97644531 -82.71984375 24.98804688 -82 25 C-81.67 23.68 -81.34 22.36 -81 21 C-78.36 21 -75.72 21 -73 21 C-73 19.68 -73 18.36 -73 17 C-67.39 17 -61.78 17 -56 17 C-56 15.68 -56 14.36 -56 13 C-51.71 13 -47.42 13 -43 13 C-42.67 11.35 -42.34 9.7 -42 8 C-34.08 8 -26.16 8 -18 8 C-17.67 6.68 -17.34 5.36 -17 4 C-11.72 4 -6.44 4 -1 4 C-0.67 2.68 -0.34 1.36 0 0 Z M-4 60 C-4.33 60.99 -4.66 61.98 -5 63 C-15.395 63.99 -15.395 63.99 -26 65 C-26 65.99 -26 66.98 -26 68 C-34.415 68.495 -34.415 68.495 -43 69 C-43 69.99 -43 70.98 -43 72 C-43.84304688 72.03738281 -44.68609375 72.07476562 -45.5546875 72.11328125 C-47.19824219 72.21189453 -47.19824219 72.21189453 -48.875 72.3125 C-49.96554687 72.37050781 -51.05609375 72.42851562 -52.1796875 72.48828125 C-53.11039063 72.65714844 -54.04109375 72.82601562 -55 73 C-55.66 73.99 -56.32 74.98 -57 76 C-60.625 76.6875 -60.625 76.6875 -64 77 C-64.33 77.99 -64.66 78.98 -65 80 C-66.84765625 80.73046875 -66.84765625 80.73046875 -69.0625 81.1875 C-69.79597656 81.34605469 -70.52945313 81.50460937 -71.28515625 81.66796875 C-71.85105469 81.77753906 -72.41695312 81.88710938 -73 82 C-73 82.99 -73 83.98 -73 85 C-75.01822917 85.16276042 -77.03645833 85.32552083 -79.0546875 85.48828125 C-81.39519216 85.87393036 -81.39519216 85.87393036 -83 89 C-86.625 89.6875 -86.625 89.6875 -90 90 C-90.33 90.99 -90.66 91.98 -91 93 C-94.465 93.495 -94.465 93.495 -98 94 C-98.33 94.99 -98.66 95.98 -99 97 C-101.04660819 97.70572696 -103.05592534 98.0095872 -105.1875 98.375 C-105.785625 98.58125 -106.38375 98.7875 -107 99 C-107.33 99.99 -107.66 100.98 -108 102 C-108.99 102.33 -109.98 102.66 -111 103 C-111 103.99 -111 104.98 -111 106 C-113.64 106.33 -116.28 106.66 -119 107 C-119.33 108.32 -119.66 109.64 -120 111 C-120.8971875 111.1546875 -120.8971875 111.1546875 -121.8125 111.3125 C-124.06591338 111.8279009 -124.06591338 111.8279009 -125.4375 113.5 C-127 115 -127 115 -129.3125 115.25 C-132.99774513 116.2784405 -134.30924429 118.42408436 -136.5703125 121.40625 C-138 123 -138 123 -141 124 C-141.495 125.485 -141.495 125.485 -142 127 C-143.41796875 128.359375 -143.41796875 128.359375 -145.1875 129.75 C-148.44052091 132.41520604 -151.04625545 135.28076887 -153.640625 138.58203125 C-155 140 -155 140 -158 141 C-158.495 142.485 -158.495 142.485 -159 144 C-160.41796875 145.359375 -160.41796875 145.359375 -162.1875 146.75 C-165.44052091 149.41520604 -168.04625545 152.28076887 -170.640625 155.58203125 C-172 157 -172 157 -175 158 C-175.495 159.485 -175.495 159.485 -176 161 C-176.99 161.66 -177.98 162.32 -179 163 C-179.67784992 165.33010909 -180.34416793 167.66359824 -181 170 C-182.625 171.8125 -182.625 171.8125 -184 173 C-184 173.66 -184 174.32 -184 175 C-185.98 175.495 -185.98 175.495 -188 176 C-188 176.99 -188 177.98 -188 179 C-189.98 179.495 -189.98 179.495 -192 180 C-192.33 182.31 -192.66 184.62 -193 187 C-193.99 187.33 -194.98 187.66 -196 188 C-196.0928125 189.5778125 -196.0928125 189.5778125 -196.1875 191.1875 C-197.14443937 195.67775398 -198.47920336 197.14983129 -202 200 C-202.99 200.33 -203.98 200.66 -205 201 C-205.33 203.31 -205.66 205.62 -206 208 C-206.99 208.33 -207.98 208.66 -209 209 C-209.103125 210.11375 -209.20625 211.2275 -209.3125 212.375 C-209.539375 213.57125 -209.76625 214.7675 -210 216 C-211.485 216.99 -211.485 216.99 -213 218 C-213.57748803 219.96361864 -213.57748803 219.96361864 -213.6875 222.125 C-213.790625 223.40375 -213.89375 224.6825 -214 226 C-214.99 226.33 -215.98 226.66 -217 227 C-217.99 232.445 -217.99 232.445 -219 238 C-219.99 238.33 -220.98 238.66 -222 239 C-222.33 242.96 -222.66 246.92 -223 251 C-223.99 251.33 -224.98 251.66 -226 252 C-226.03738281 252.77085937 -226.07476562 253.54171875 -226.11328125 254.3359375 C-226.17902344 255.33882812 -226.24476563 256.34171875 -226.3125 257.375 C-226.37050781 258.37273437 -226.42851562 259.37046875 -226.48828125 260.3984375 C-226.74158203 261.68621094 -226.74158203 261.68621094 -227 263 C-228.485 263.99 -228.485 263.99 -230 265 C-230.47379188 268.24864757 -230.47379188 268.24864757 -230.5 271.9375 C-230.59375 275.71484375 -230.59375 275.71484375 -231 279 C-231.4935498 279.43401123 -231.98709961 279.86802246 -232.49560547 280.31518555 C-234.74057023 282.82938578 -234.41806619 284.92026288 -234.4765625 288.2421875 C-234.5075 289.47324219 -234.5384375 290.70429687 -234.5703125 291.97265625 C-234.58835937 293.26042969 -234.60640625 294.54820312 -234.625 295.875 C-234.67614071 298.41413641 -234.73069513 300.95320693 -234.7890625 303.4921875 C-234.80662598 304.61995605 -234.82418945 305.74772461 -234.84228516 306.90966797 C-234.98546833 309.71526031 -235.36484792 312.26890975 -236 315 C-236.99 315.33 -237.98 315.66 -239 316 C-239 331.18 -239 346.36 -239 362 C-238.01 362.33 -237.02 362.66 -236 363 C-234.75437773 366.16438154 -234.80388059 369.49134335 -234.68359375 372.859375 C-234.62075195 374.53193359 -234.62075195 374.53193359 -234.55664062 376.23828125 C-234.51732422 377.39714844 -234.47800781 378.55601562 -234.4375 379.75 C-234.39431641 380.92433594 -234.35113281 382.09867188 -234.30664062 383.30859375 C-234.20065206 386.20561451 -234.09858362 389.10271935 -234 392 C-233.01 392 -232.02 392 -231 392 C-230.98541748 392.62567871 -230.97083496 393.25135742 -230.95581055 393.89599609 C-230.88147196 396.72296402 -230.78476766 399.54873208 -230.6875 402.375 C-230.66494141 403.35984375 -230.64238281 404.3446875 -230.61914062 405.359375 C-230.58369141 406.30039062 -230.54824219 407.24140625 -230.51171875 408.2109375 C-230.48553467 409.08024902 -230.45935059 409.94956055 -230.43237305 410.84521484 C-230.18654782 413.38600027 -230.18654782 413.38600027 -227 415 C-226.48828125 417.6015625 -226.48828125 417.6015625 -226.3125 420.625 C-226.24675781 421.62789062 -226.18101562 422.63078125 -226.11328125 423.6640625 C-226.07589844 424.43492187 -226.03851563 425.20578125 -226 426 C-225.01 426 -224.02 426 -223 426 C-222.67 430.29 -222.34 434.58 -222 439 C-221.01 439.33 -220.02 439.66 -219 440 C-218.34 443.96 -217.68 447.92 -217 452 C-216.01 452 -215.02 452 -214 452 C-213.83723958 454.01822917 -213.67447917 456.03645833 -213.51171875 458.0546875 C-213.12606964 460.39519216 -213.12606964 460.39519216 -210 462 C-209.3125 465.625 -209.3125 465.625 -209 469 C-208.01 469.33 -207.02 469.66 -206 470 C-205.505 473.465 -205.505 473.465 -205 477 C-203.68 477.33 -202.36 477.66 -201 478 C-200.67 480.64 -200.34 483.28 -200 486 C-199.01 486.33 -198.02 486.66 -197 487 C-196.505 488.485 -196.505 488.485 -196 490 C-195.01 490.33 -194.02 490.66 -193 491 C-192.67 493.64 -192.34 496.28 -192 499 C-190.68 499 -189.36 499 -188 499 C-188 500.32 -188 501.64 -188 503 C-186.68 503 -185.36 503 -184 503 C-183.67 505.97 -183.34 508.94 -183 512 C-182.01 512.33 -181.02 512.66 -180 513 C-179.505 514.485 -179.505 514.485 -179 516 C-178.01 516.33 -177.02 516.66 -176 517 C-175.505 518.485 -175.505 518.485 -175 520 C-174.01 520.33 -173.02 520.66 -172 521 C-171.505 522.485 -171.505 522.485 -171 524 C-170.01 524.33 -169.02 524.66 -168 525 C-167.29427304 527.04660819 -166.9904128 529.05592534 -166.625 531.1875 C-166.41875 531.785625 -166.2125 532.38375 -166 533 C-165.01 533.33 -164.02 533.66 -163 534 C-162.505 535.485 -162.505 535.485 -162 537 C-161.01 537.33 -160.02 537.66 -159 538 C-158.505 539.485 -158.505 539.485 -158 541 C-157.01 541.33 -156.02 541.66 -155 542 C-154.7525 542.66 -154.505 543.32 -154.25 544 C-153.8375 544.66 -153.425 545.32 -153 546 C-149.43793339 546.81870185 -149.43793339 546.81870185 -146 547 C-145.505 548.485 -145.505 548.485 -145 550 C-144.01 550.33 -143.02 550.66 -142 551 C-141.505 552.485 -141.505 552.485 -141 554 C-139.68 554 -138.36 554 -137 554 C-136.896875 554.61875 -136.79375 555.2375 -136.6875 555.875 C-136.12474627 558.36526484 -136.12474627 558.36526484 -133 560 C-132.505 561.485 -132.505 561.485 -132 563 C-131.01 563.33 -130.02 563.66 -129 564 C-128.505 565.485 -128.505 565.485 -128 567 C-125.36 567 -122.72 567 -120 567 C-119.896875 567.639375 -119.79375 568.27875 -119.6875 568.9375 C-119.3471875 569.9584375 -119.3471875 569.9584375 -119 571 C-118.01 571.33 -117.02 571.66 -116 572 C-115.505 573.485 -115.505 573.485 -115 575 C-112.36 575.33 -109.72 575.66 -107 576 C-107 577.32 -107 578.64 -107 580 C-106.360625 580.103125 -105.72125 580.20625 -105.0625 580.3125 C-104.381875 580.539375 -103.70125 580.76625 -103 581 C-102.67 581.99 -102.34 582.98 -102 584 C-99.69 584.33 -97.38 584.66 -95 585 C-94.67 585.99 -94.34 586.98 -94 588 C-92.88625 588.0825 -91.7725 588.165 -90.625 588.25 C-89.42875 588.4975 -88.2325 588.745 -87 589 C-86.33333333 590.33333333 -85.66666667 591.66666667 -85 593 C-81.43793339 593.81870185 -81.43793339 593.81870185 -78 594 C-77.67 594.99 -77.34 595.98 -77 597 C-74.36 597.33 -71.72 597.66 -69 598 C-68.67 598.99 -68.34 599.98 -68 601 C-66.84371094 601.05607422 -66.84371094 601.05607422 -65.6640625 601.11328125 C-64.66117188 601.17902344 -63.65828125 601.24476563 -62.625 601.3125 C-61.12839844 601.39951172 -61.12839844 601.39951172 -59.6015625 601.48828125 C-58.74304688 601.65714844 -57.88453125 601.82601562 -57 602 C-56.01 603.485 -56.01 603.485 -55 605 C-52.3443272 605.58348752 -52.3443272 605.58348752 -49.375 605.6875 C-48.37210938 605.75324219 -47.36921875 605.81898438 -46.3359375 605.88671875 C-45.17964844 605.94279297 -45.17964844 605.94279297 -44 606 C-43.67 607.32 -43.34 608.64 -43 610 C-37.39 610 -31.78 610 -26 610 C-26 611.32 -26 612.64 -26 614 C-24.30230469 614.05607422 -24.30230469 614.05607422 -22.5703125 614.11328125 C-21.08850795 614.17893082 -19.60673861 614.24537851 -18.125 614.3125 C-17.37863281 614.33505859 -16.63226563 614.35761719 -15.86328125 614.38085938 C-13.900396 614.47811945 -11.94671678 614.73042294 -10 615 C-9.01 616.485 -9.01 616.485 -8 618 C-4.73282662 618.46304507 -4.73282662 618.46304507 -0.875 618.40625 C-0.1722998 618.41708618 0.53040039 618.42792236 1.25439453 618.43908691 C3.50302334 618.47341808 5.75114324 618.48895736 8 618.5 C10.95882614 618.51452882 13.91650828 618.54812776 16.875 618.59375 C18.19242188 618.60083984 19.50984375 618.60792969 20.8671875 618.61523438 C22.41792969 618.80569336 22.41792969 618.80569336 24 619 C24.66 619.99 25.32 620.98 26 622 C29.00852608 622.4181217 29.00852608 622.4181217 32.5390625 622.29296875 C33.84101562 622.28330078 35.14296875 622.27363281 36.484375 622.26367188 C37.86458923 622.23860388 39.24479756 622.21320902 40.625 622.1875 C42.01300663 622.17245517 43.40102867 622.15876641 44.7890625 622.14648438 C48.19309509 622.1110257 51.59635622 622.06160298 55 622 C55.33 621.01 55.66 620.02 56 619 C68.21 618.67 80.42 618.34 93 618 C93.33 617.01 93.66 616.02 94 615 C100.6 614.67 107.2 614.34 114 614 C114.33 612.68 114.66 611.36 115 610 C118.96 610 122.92 610 127 610 C127.66 608.68 128.32 607.36 129 606 C131.6015625 605.390625 131.6015625 605.390625 134.625 605.25 C135.62789062 605.19328125 136.63078125 605.1365625 137.6640625 605.078125 C138.43492187 605.05234375 139.20578125 605.0265625 140 605 C140.33 604.01 140.66 603.02 141 602 C144.96 601.67 148.92 601.34 153 601 C153 599.68 153 598.36 153 597 C155.64 597 158.28 597 161 597 C161.33 596.01 161.66 595.02 162 594 C164.64 593.67 167.28 593.34 170 593 C170.33 591.68 170.66 590.36 171 589 C173.31 588.67 175.62 588.34 178 588 C178.33 586.68 178.66 585.36 179 584 C181.64 584 184.28 584 187 584 C187 582.68 187 581.36 187 580 C188.32 580 189.64 580 191 580 C191.33 579.01 191.66 578.02 192 577 C194.04660819 576.29427304 196.05592534 575.9904128 198.1875 575.625 C198.785625 575.41875 199.38375 575.2125 200 575 C200.33 574.01 200.66 573.02 201 572 C203.31 571.67 205.62 571.34 208 571 C208.33 570.01 208.66 569.02 209 568 C211.0625 567.3125 211.0625 567.3125 213 567 C213 565.68 213 564.36 213 563 C214.32 563 215.64 563 217 563 C217 561.68 217 560.36 217 559 C219.64 558.67 222.28 558.34 225 558 C225.33 557.01 225.66 556.02 226 555 C228.0625 554.3125 228.0625 554.3125 230 554 C230 552.68 230 551.36 230 550 C231.32 550 232.64 550 234 550 C234 548.68 234 547.36 234 546 C235.32 546 236.64 546 238 546 C238 544.68 238 543.36 238 542 C239.32 541.67 240.64 541.34 242 541 C242.33 539.68 242.66 538.36 243 537 C244.32 537 245.64 537 247 537 C247 535.68 247 534.36 247 533 C248.32 533 249.64 533 251 533 C251 531.68 251 530.36 251 529 C252.32 529 253.64 529 255 529 C255 527.68 255 526.36 255 525 C256.32 524.67 257.64 524.34 259 524 C259.33 522.68 259.66 521.36 260 520 C261.32 520 262.64 520 264 520 C264 517.36 264 514.72 264 512 C265.32 512 266.64 512 268 512 C268.103125 511.360625 268.20625 510.72125 268.3125 510.0625 C268.539375 509.381875 268.76625 508.70125 269 508 C269.99 507.67 270.98 507.34 272 507 C272.33 504.69 272.66 502.38 273 500 C273.99 499.67 274.98 499.34 276 499 C276.73323796 496.98491642 276.73323796 496.98491642 277 495 C278.32 494.67 279.64 494.34 281 494 C281.33 491.69 281.66 489.38 282 487 C282.99 486.67 283.98 486.34 285 486 C285 484.68 285 483.36 285 482 C286.32 482 287.64 482 289 482 C289.12375 480.329375 289.12375 480.329375 289.25 478.625 C290 475 290 475 292.0625 473.5625 C292.701875 473.376875 293.34125 473.19125 294 473 C294 470.36 294 467.72 294 465 C295.32 465 296.64 465 298 465 C298.33 462.36 298.66 459.72 299 457 C299.99 456.67 300.98 456.34 302 456 C302 452.04 302 448.08 302 444 C303.32 443.67 304.64 443.34 306 443 C306.33 440.69 306.66 438.38 307 436 C308.32 435.67 309.64 435.34 311 435 C311 430.71 311 426.42 311 422 C312.32 422 313.64 422 315 422 C315 415.07 315 408.14 315 401 C316.32 401 317.64 401 319 401 C319 394.07 319 387.14 319 380 C320.32 379.67 321.64 379.34 323 379 C323 352.6 323 326.2 323 299 C322.01 298.67 321.02 298.34 320 298 C319.67 291.4 319.34 284.8 319 278 C317.68 277.67 316.36 277.34 315 277 C315 271.72 315 266.44 315 261 C313.68 260.67 312.36 260.34 311 260 C311 256.04 311 252.08 311 248 C309.68 247.34 308.36 246.68 307 246 C306.390625 243.3984375 306.390625 243.3984375 306.25 240.375 C306.19328125 239.37210938 306.1365625 238.36921875 306.078125 237.3359375 C306.05234375 236.56507813 306.0265625 235.79421875 306 235 C304.68 234.67 303.36 234.34 302 234 C302 231.69 302 229.38 302 227 C300.68 226.67 299.36 226.34 298 226 C298 222.04 298 218.08 298 214 C296.68 213.67 295.36 213.34 294 213 C294 210.36 294 207.72 294 205 C293.0409375 204.8453125 293.0409375 204.8453125 292.0625 204.6875 C291.381875 204.460625 290.70125 204.23375 290 204 C289.67 203.01 289.34 202.02 289 201 C286.98491642 200.26676204 286.98491642 200.26676204 285 200 C285 197.36 285 194.72 285 192 C283.68 192 282.36 192 281 192 C281 189.36 281 186.72 281 184 C280.13375 183.62875 280.13375 183.62875 279.25 183.25 C276.55197615 181.75109786 274.91251907 180.44011054 273 178 C272.25 174.25 272.25 174.25 272 171 C271.01 170.67 270.02 170.34 269 170 C268.67 169.01 268.34 168.02 268 167 C267.01 166.67 266.02 166.34 265 166 C264.33333333 164.66666667 263.66666667 163.33333333 263 162 C262.01 161.67 261.02 161.34 260 161 C259.67 158.69 259.34 156.38 259 154 C258.01 153.67 257.02 153.34 256 153 C255.67 152.01 255.34 151.02 255 150 C252.98491642 149.26676204 252.98491642 149.26676204 251 149 C250.67 147.68 250.34 146.36 250 145 C249.01 145 248.02 145 247 145 C247 143.68 247 142.36 247 141 C246.360625 140.896875 245.72125 140.79375 245.0625 140.6875 C244.0415625 140.3471875 244.0415625 140.3471875 243 140 C242.67 139.01 242.34 138.02 242 137 C241.01 136.67 240.02 136.34 239 136 C238.67 135.01 238.34 134.02 238 133 C235.98491642 132.26676204 235.98491642 132.26676204 234 132 C233.67 130.68 233.34 129.36 233 128 C232.01 128 231.02 128 230 128 C230 126.68 230 125.36 230 124 C226.04 123.505 226.04 123.505 222 123 C221.67 122.01 221.34 121.02 221 120 C220.01 119.67 219.02 119.34 218 119 C217.67 118.01 217.34 117.02 217 116 C214.98491642 115.26676204 214.98491642 115.26676204 213 115 C212.67 113.68 212.34 112.36 212 111 C209.69 110.67 207.38 110.34 205 110 C204.67 109.01 204.34 108.02 204 107 C203.01 106.67 202.02 106.34 201 106 C200.67 105.01 200.34 104.02 200 103 C197.03 102.67 194.06 102.34 191 102 C191 101.01 191 100.02 191 99 C189.68 98.67 188.36 98.34 187 98 C187 96.68 187 95.36 187 94 C184.03 93.67 181.06 93.34 178 93 C178 92.01 178 91.02 178 90 C174.04 89.505 174.04 89.505 170 89 C170 88.01 170 87.02 170 86 C169.43410156 85.87882812 168.86820313 85.75765625 168.28515625 85.6328125 C167.55167969 85.46523438 166.81820313 85.29765625 166.0625 85.125 C165.33160156 84.96257812 164.60070312 84.80015625 163.84765625 84.6328125 C162 84 162 84 161 82 C158.1840151 81.53101037 158.1840151 81.53101037 154.9375 81.375 C153.83277344 81.30023438 152.72804688 81.22546875 151.58984375 81.1484375 C150.73519531 81.09945312 149.88054687 81.05046875 149 81 C149 79.68 149 78.36 149 77 C146.03 76.67 143.06 76.34 140 76 C140 75.01 140 74.02 140 73 C135.71 72.67 131.42 72.34 127 72 C127 71.01 127 70.02 127 69 C121.39 68.67 115.78 68.34 110 68 C110 67.01 110 66.02 110 65 C103.07 64.67 96.14 64.34 89 64 C89 62.68 89 61.36 89 60 C58.31 60 27.62 60 -4 60 Z " fill="#FEFEFE" transform="translate(518,224)"/>
<path d="M0 0 C1.65 0 3.3 0 5 0 C4.67 0.99 4.34 1.98 4 3 C3.34 3 2.68 3 2 3 C1.67 3.66 1.34 4.32 1 5 C0.34 5 -0.32 5 -1 5 C-0.67 3.35 -0.34 1.7 0 0 Z " fill="#F5F5F5" transform="translate(689,812)"/>
</svg>
