<?xml version="1.0" encoding="UTF-8"?>
<svg version="1.1" xmlns="http://www.w3.org/2000/svg" width="1280" height="1280">
<path d="M0 0 C2.68230301 -0.00135919 5.36460332 -0.00310674 8.04690552 -0.00531006 C14.5095708 -0.00970513 20.97222433 -0.0088196 27.43489003 -0.00589742 C32.6977137 -0.00361839 37.96053413 -0.00334155 43.22335815 -0.00442123 C44.35644973 -0.00465108 44.35644973 -0.00465108 45.51243204 -0.00488558 C47.0480624 -0.00520537 48.58369277 -0.00552959 50.11932313 -0.00585817 C64.44415188 -0.00869461 78.76897417 -0.00545495 93.09380186 -0.0000578 C105.32588415 0.00440855 117.55795694 0.0036321 129.79003906 -0.00097656 C144.0713965 -0.00635498 158.35274832 -0.00842009 172.63410664 -0.0053643 C174.16338921 -0.00504582 175.69267177 -0.00473145 177.22195435 -0.00442123 C177.97395628 -0.00426696 178.72595822 -0.00411268 179.5007481 -0.00395373 C184.74365402 -0.00309834 189.98655631 -0.00453013 195.22946167 -0.00690079 C201.63825034 -0.00973554 208.04702681 -0.00888441 214.45581412 -0.00362004 C217.71167123 -0.00103178 220.96750447 -0.00045186 224.22336197 -0.0032692 C236.90918449 -0.01322291 249.59037462 0.07311159 262.27124023 0.44998169 C263.33180413 0.4719596 264.39236803 0.49393751 265.48507023 0.51658142 C266.45936702 0.55144374 267.43366381 0.58630605 268.43748474 0.62222481 C269.29234183 0.64758533 270.14719893 0.67294585 271.02796078 0.69907486 C273.70690823 1.22434308 274.62445696 1.93837151 276.22265625 4.12939453 C276.51302699 6.75199613 276.61884702 9.13630548 276.59014893 11.7590332 C276.59505219 12.93576615 276.59505219 12.93576615 276.6000545 14.13627148 C276.60735628 16.77349685 276.59315817 19.41017155 276.57910156 22.04736328 C276.57989214 23.93454076 276.58198848 25.82171808 276.58529663 27.70889282 C276.59044 32.84106166 276.57687651 37.9730307 276.55976963 43.10516739 C276.54475848 48.46895112 276.54590824 53.83273198 276.54510498 59.1965332 C276.54140985 68.20511292 276.52643029 77.21361657 276.50390625 86.22216797 C276.47503288 97.79390927 276.46468342 109.36558926 276.46022415 120.93736267 C276.45624665 130.87392046 276.44374394 140.81046487 276.42987728 150.74701309 C276.425775 153.94676941 276.42285103 157.14652524 276.42008209 160.34628296 C276.41519404 165.3694987 276.40499895 170.39267715 276.39064407 175.41587448 C276.38611568 177.26260415 276.38328113 179.10933884 276.38223648 180.95607376 C276.38049459 183.47067211 276.3726217 185.98517671 276.36309814 188.49975586 C276.36439787 189.60417164 276.36439787 189.60417164 276.36572385 190.73089886 C276.34816376 193.80727321 276.20362037 196.18650217 275.22265625 199.12939453 C271.61642696 201.86091779 267.41156651 201.36819919 263.10131836 201.28515625 C262.26950263 201.27703352 261.4376869 201.26891079 260.58066463 201.26054192 C257.79434238 201.22909835 255.00867719 201.18086589 252.22265625 201.12939453 C251.26799091 201.11325356 250.31332558 201.09711258 249.32973099 201.08048248 C244.01860813 200.98968798 238.7077696 200.88734052 233.3969574 200.77999878 C194.99424683 200.01142811 156.59644792 199.97488699 118.18738806 200.00082612 C111.93001433 200.00460815 105.67265637 200.00322334 99.4152832 199.99902344 C61.49422132 199.97418059 23.59375575 200.02260677 -14.31812096 200.96117687 C-51.49830177 201.8606085 -51.49830177 201.8606085 -55.77734375 199.12939453 C-57.28891487 196.10625228 -56.91804672 192.98067703 -56.91105652 189.66470337 C-56.91332208 188.88585828 -56.91558763 188.10701319 -56.91792184 187.30456674 C-56.92427948 184.68056871 -56.92343135 182.05662209 -56.92260742 179.43261719 C-56.92559783 177.5570621 -56.92900008 175.68150763 -56.93278503 173.80595398 C-56.9416416 168.70059147 -56.94396385 163.59524571 -56.94460082 158.48987627 C-56.94554866 154.23278385 -56.94922553 149.97569536 -56.95277292 145.71860445 C-56.96092387 135.67714704 -56.96335658 125.63569861 -56.96264648 115.59423828 C-56.9620456 105.22530279 -56.97259802 94.8564193 -56.98839015 84.48749697 C-57.00145273 75.59489624 -57.00683092 66.70231253 -57.00619107 57.80970228 C-57.0059357 52.49431811 -57.00880869 47.17898014 -57.01936913 41.8636055 C-57.02902849 36.86501259 -57.02914417 31.86651024 -57.02185249 26.8679142 C-57.02080393 25.031276 -57.02318554 23.19463223 -57.02921295 21.35800362 C-57.03689768 18.85457923 -57.03231152 16.35147028 -57.02458191 13.84805298 C-57.02972547 13.11789746 -57.03486904 12.38774194 -57.04016846 11.6354605 C-57.01526793 7.9965435 -56.907104 5.16234212 -54.77734375 2.12939453 C-52.39027836 0.93586184 -50.75634348 0.9286325 -48.08982849 0.81753731 C-47.11230905 0.77622968 -46.1347896 0.73492204 -45.12764835 0.69236267 C-44.05870555 0.65362694 -42.98976274 0.61489122 -41.88842773 0.57498169 C-40.21084586 0.51179062 -40.21084586 0.51179062 -38.49937344 0.44732296 C-25.66675204 0.00244669 -12.83883004 -0.01110961 0 0 Z M-32.77734375 22.12939453 C-33.74869105 26.30865171 -33.90113328 30.34406423 -33.89759827 34.62142944 C-33.89897293 35.90862885 -33.9003476 37.19582825 -33.90176392 38.52203369 C-33.89822545 39.93591332 -33.89459065 41.34979271 -33.89086914 42.76367188 C-33.89058687 44.26207477 -33.89074578 45.7604778 -33.89131165 47.25888062 C-33.89159807 51.31625933 -33.88572628 55.37360837 -33.87873769 59.43098021 C-33.87247847 63.67506477 -33.87189832 67.91915005 -33.87071228 72.16323853 C-33.86760654 80.19538664 -33.85940335 88.22752111 -33.84936279 96.25966322 C-33.83817815 105.40593844 -33.83268528 114.55221432 -33.82766736 123.69849467 C-33.81722011 142.50880235 -33.79963532 161.31909735 -33.77734375 180.12939453 C2.64034276 180.15225964 39.05802802 180.16989211 75.47572022 180.18045986 C79.77051597 180.18171064 84.0653117 180.18300495 88.36010742 180.18432617 C89.64268769 180.18471964 89.64268769 180.18471964 90.95117868 180.18512105 C104.81473803 180.18947801 118.67829325 180.1973657 132.54185014 180.20654733 C146.7562807 180.21588316 160.97070908 180.22144999 175.18514258 180.22348303 C183.96344542 180.2248584 192.74173661 180.22920977 201.52003587 180.237311 C207.53126361 180.24257758 213.54248528 180.24419903 219.55371516 180.24289591 C223.0271791 180.24225239 226.5006226 180.24327158 229.97408295 180.24860001 C233.73098389 180.25352955 237.48783375 180.25239556 241.24473572 180.24964905 C242.35463409 180.25256189 243.46453246 180.25547473 244.60806412 180.25847584 C245.6063063 180.25648479 246.60454848 180.25449374 247.63304043 180.25244236 C248.50146082 180.25282208 249.36988122 180.2532018 250.26461738 180.25359303 C252.22666494 180.34569475 252.22666494 180.34569475 253.22265625 179.12939453 C253.32159274 177.11941993 253.34897908 175.10591384 253.34963989 173.09350586 C253.35386963 171.12469955 253.35386963 171.12469955 253.35818481 169.11611938 C253.35624021 167.64788805 253.35419202 166.17965684 253.35205078 164.71142578 C253.35340476 163.1759741 253.35518467 161.64052275 253.35736084 160.10507202 C253.36193562 155.92337123 253.36014543 151.74169499 253.35698175 147.55999374 C253.35445838 143.19355959 253.35679563 138.8271276 253.35836792 134.46069336 C253.36018968 127.12662374 253.35778313 119.79256418 253.35302734 112.45849609 C253.34758471 103.96689835 253.34934736 95.47532462 253.35485375 86.98372746 C253.35938469 79.70646744 253.36003552 72.42921467 253.35741508 65.1519537 C253.3558522 60.79967289 253.35565884 56.44740338 253.35895157 52.09512329 C253.36183 48.00434871 253.3598551 43.91360522 253.35405731 39.82283401 C253.35272956 38.31712521 253.35312408 36.81141381 253.35531998 35.30570602 C253.35803087 33.25889934 253.3540372 31.21208696 253.34963989 29.1652832 C253.34926287 28.01710617 253.34888584 26.86892914 253.34849739 25.68595886 C253.51272714 23.19563607 253.51272714 23.19563607 252.22265625 22.12939453 C250.2424378 21.96882316 248.25639386 21.88019481 246.2706604 21.81765747 C245.63162836 21.79719384 244.99259632 21.77673021 244.33419967 21.75564647 C242.14041843 21.68875071 239.94652787 21.63115704 237.75244141 21.57519531 C236.58260739 21.54375187 236.58260739 21.54375187 235.38914037 21.51167321 C211.1857353 20.87799824 186.97152928 20.98306363 162.76185179 20.99506903 C158.70656621 20.99687115 154.65128263 20.99650278 150.59599686 20.99557877 C149.91593771 20.99542553 149.23587857 20.9952723 148.53521157 20.99511442 C147.15269926 20.99479462 145.77018695 20.99447041 144.38767464 20.99414183 C131.56236863 20.99132029 118.73706988 20.99452492 105.91176505 20.9999422 C94.91643356 21.00444203 83.92111258 21.003602 72.92578125 20.99902344 C60.08313278 20.99367798 47.24049052 20.99155857 34.3978411 20.9946357 C33.03175394 20.99495421 31.66566678 20.99526858 30.29957962 20.99557877 C29.29182824 20.99581018 29.29182824 20.99581018 28.26371824 20.99604627 C23.53486392 20.99690894 18.80601358 20.99545466 14.07715988 20.99309921 C7.74192131 20.99022326 1.40670283 20.99219097 -4.92853355 20.99799347 C-7.2562564 20.99932065 -9.58398092 20.99892766 -11.91170311 20.9967308 C-15.07516131 20.99401882 -18.23855409 20.9974005 -21.40200806 21.00241089 C-22.33269029 21.00018017 -23.26337253 20.99794945 -24.22225726 20.99565113 C-25.0644369 20.99825887 -25.90661655 21.00086662 -26.77431679 21.00355339 C-27.86939676 21.00379692 -27.86939676 21.00379692 -28.98659956 21.00404537 C-30.88151049 21.02161692 -30.88151049 21.02161692 -32.77734375 22.12939453 Z " fill="#FDFDFD" transform="translate(545.77734375,543.87060546875)"/>
<path d="M0 0 C1.0461337 -0.00382555 2.0922674 -0.00765109 3.17010212 -0.01159257 C6.68075374 -0.02192371 10.19124184 -0.01793016 13.7019043 -0.01396179 C16.21666618 -0.01830815 18.73142673 -0.02349105 21.2461853 -0.02944946 C27.37067895 -0.04146472 33.49511217 -0.04399004 39.61961532 -0.0416492 C44.59705198 -0.03986626 49.57447533 -0.04161516 54.5519104 -0.04587364 C55.26028181 -0.04646883 55.96865323 -0.04706402 56.69849044 -0.04767724 C58.13752612 -0.04888899 59.57656179 -0.05010312 61.01559746 -0.05131962 C74.50994336 -0.0621954 88.00426426 -0.06003232 101.49861157 -0.05393478 C113.84601288 -0.04876393 126.19333534 -0.06002539 138.54072106 -0.07903299 C151.21852009 -0.0983997 163.8962818 -0.10666955 176.57409573 -0.10290974 C183.69197116 -0.10099613 190.80977945 -0.10350091 197.92764282 -0.11762428 C204.61874772 -0.13076655 211.30966887 -0.12829402 218.00078201 -0.11521339 C220.45944903 -0.11284002 222.91812706 -0.11560935 225.37678146 -0.12383652 C228.72712207 -0.134241 232.07692524 -0.12625372 235.42724609 -0.11352539 C236.40535405 -0.12089968 237.38346201 -0.12827396 238.3912096 -0.13587171 C243.28832001 -0.09659905 246.79622678 -0.02822847 250.71362305 3.26069641 C253.20772838 7.00185442 253.10597322 9.93667055 252.71362305 14.26069641 C251.49073478 19.76369359 251.49073478 19.76369359 248.91836786 21.40885419 C246.5061933 22.34084057 244.76686604 22.51231723 242.18770599 22.515172 C240.82616071 22.52392029 240.82616071 22.52392029 239.43710947 22.53284532 C238.44373371 22.52906599 237.45035794 22.52528667 236.42687988 22.52139282 C235.36864439 22.52521837 234.31040889 22.52904392 233.22010565 22.53298539 C229.66255619 22.54333114 226.10516764 22.53932022 222.54760742 22.53535461 C220.00181427 22.53970017 217.45602243 22.5448828 214.91023254 22.55084229 C208.70639449 22.56286488 202.50261609 22.5653818 196.29876864 22.56304202 C191.25741698 22.56126 186.21607848 22.56300601 181.17472839 22.56726646 C180.45760668 22.56786165 179.74048497 22.56845684 179.0016323 22.56907007 C177.54487836 22.5702818 176.08812442 22.57149593 174.63137048 22.57271244 C160.96680861 22.58359153 147.3022714 22.5814236 133.63770813 22.5753276 C121.13113818 22.57015667 108.62464607 22.58141785 96.11809152 22.60042582 C83.28099732 22.61978686 70.44393998 22.62806336 57.60683107 22.62430257 C50.39787007 22.62238806 43.18897536 22.62490234 35.98002625 22.63901711 C29.20357773 22.65215066 22.42731073 22.64969456 15.65085411 22.63660622 C13.15951676 22.63423106 10.66816856 22.63700847 8.17684364 22.64522934 C4.78450048 22.6556189 1.39268967 22.64765873 -1.99963379 22.63491821 C-2.99300955 22.6422925 -3.98638532 22.64966678 -5.00986338 22.65726453 C-5.91756023 22.65005799 -6.82525708 22.64285144 -7.7604599 22.63542652 C-8.54355325 22.63548154 -9.3266466 22.63553655 -10.13347006 22.63559324 C-12.88248219 22.15689352 -14.26308419 21.15561439 -16.28637695 19.26069641 C-16.96606445 16.51850891 -16.96606445 16.51850891 -17.16137695 13.38569641 C-17.24129883 12.35702454 -17.3212207 11.32835266 -17.40356445 10.26850891 C-17.27731586 7.02812845 -16.93283405 5.05675077 -15.28637695 2.26069641 C-10.52364267 -0.49889764 -5.33200629 -0.02060241 0 0 Z " fill="#FEFEFE" transform="translate(538.286376953125,494.7393035888672)"/>
<path d="M0 0 C6.7335534 0.84265348 11.72560427 3.50087783 17.47802734 6.99462891 C18.34685547 7.50380859 19.21568359 8.01298828 20.11083984 8.53759766 C26.53714276 12.3306374 32.82543401 16.33679768 39.10302734 20.36962891 C41.88495218 22.1531643 44.66727766 23.93606195 47.45068359 25.71728516 C49.31133677 26.90799851 51.17070145 28.1007276 53.02880859 29.29541016 C58.61692037 32.86581162 64.27204603 36.21298499 70.10302734 39.36962891 C71.61184847 40.20811534 73.11511951 41.05706836 74.60302734 41.93212891 C75.25271484 42.30466797 75.90240234 42.67720703 76.57177734 43.06103516 C78.53068734 44.73510365 78.83029298 45.83222529 79.10302734 48.36962891 C77.50112442 53.17533769 75.55232437 54.83603528 71.20361328 57.20458984 C68.89568329 58.48462726 66.66236124 59.85542967 64.42333984 61.25244141 C63.58520752 61.77507568 62.7470752 62.29770996 61.88354492 62.83618164 C61.00722412 63.38346924 60.13090332 63.93075684 59.22802734 64.49462891 C50.51483322 69.91428611 41.722236 75.17574071 32.85839844 80.34423828 C26.99734935 83.76793872 21.22535355 87.28576988 15.54052734 90.99462891 C3.69870206 98.53185858 3.69870206 98.53185858 -1.89697266 98.18212891 C-3.89697266 97.36962891 -3.89697266 97.36962891 -4.89697266 96.36962891 C-5.0081792 93.53010446 -5.05437167 90.714678 -5.05810547 87.87426758 C-5.06307037 86.98321823 -5.06803528 86.09216888 -5.07315063 85.17411804 C-5.08781395 82.21193686 -5.0945816 79.24980924 -5.10009766 76.28759766 C-5.10584622 74.23594663 -5.11160398 72.18429563 -5.11737061 70.13264465 C-5.12789284 65.82418567 -5.13372731 61.51574542 -5.13720703 57.20727539 C-5.14269061 51.68216684 -5.16671064 46.15730489 -5.19517899 40.63227367 C-5.21378985 36.39182307 -5.21901017 32.15143199 -5.22054291 27.91094398 C-5.22357409 25.87395188 -5.23161822 23.83696094 -5.24472809 21.80000877 C-5.26175416 18.95087246 -5.25991659 16.10234016 -5.25341797 13.25317383 C-5.26263275 12.40885803 -5.27184753 11.56454224 -5.28134155 10.69464111 C-5.25706982 7.30324771 -5.15601929 4.83691475 -3.49325562 1.83750916 C-1.89697266 0.36962891 -1.89697266 0.36962891 0 0 Z " fill="#FEFEFE" transform="translate(624.89697265625,596.63037109375)"/>
<path d="M0 0 C0.96763671 -0.00785502 0.96763671 -0.00785502 1.95482165 -0.01586872 C4.11427689 -0.03085876 6.27349498 -0.03157363 8.43299866 -0.03224182 C9.98211059 -0.03986388 11.53121874 -0.04829146 13.08032227 -0.0574646 C17.28690584 -0.07940923 21.49341672 -0.08820819 25.70005107 -0.09329104 C28.32801282 -0.096934 30.9559555 -0.10317368 33.58390999 -0.11029243 C42.75138817 -0.13478472 51.91880975 -0.1478388 61.08631897 -0.15138245 C69.63314724 -0.15501979 78.17961686 -0.18492976 86.72633547 -0.22678703 C94.06402569 -0.26146406 101.40159687 -0.27693042 108.7393685 -0.27762848 C113.12205954 -0.27842205 117.50438509 -0.28719713 121.8869915 -0.31562614 C126.0083838 -0.34176344 130.12910639 -0.34403676 134.25054359 -0.3279705 C135.76265292 -0.32615265 137.27480039 -0.33287724 138.78682709 -0.34878922 C140.85257601 -0.36920239 142.91597088 -0.35873126 144.98168945 -0.34057617 C146.13703155 -0.3425875 147.29237364 -0.34459883 148.4827261 -0.3466711 C152.51578848 0.46848078 154.01656979 2.10343926 156.55433655 5.27415466 C157.64179655 10.99047402 157.17544669 16.58021791 155.17933655 22.02415466 C153.55433655 24.27415466 153.55433655 24.27415466 151.55433655 25.27415466 C149.47301263 25.37693203 147.38833511 25.41368483 145.30448914 25.42132568 C144.33223202 25.42684072 144.33223202 25.42684072 143.34033334 25.43246716 C141.15856737 25.44352017 138.976849 25.44735053 136.7950592 25.45115662 C135.23477018 25.45741996 133.67448266 25.46406665 132.11419678 25.47106934 C127.86831947 25.48848901 123.62245344 25.49903336 119.37654924 25.50727487 C116.72549652 25.51242213 114.07444731 25.51849793 111.42339706 25.524786 C103.13350862 25.54383931 94.84362911 25.55807111 86.55372298 25.56639796 C76.97549302 25.5761771 67.39749375 25.60251358 57.81934512 25.64289886 C50.42142462 25.67302426 43.02357039 25.68786336 35.62558973 25.69117898 C31.2043818 25.69353323 26.78342028 25.70254229 22.36227798 25.72764015 C18.2040681 25.75086408 14.04626787 25.75517725 9.88801003 25.74487877 C8.36097033 25.74438193 6.83391086 25.75074579 5.30693245 25.76443481 C3.2235107 25.78206886 1.14157275 25.7750918 -0.94184875 25.76190186 C-2.69120255 25.76548439 -2.69120255 25.76548439 -4.47589684 25.76913929 C-8.07169972 25.16981033 -9.2262833 24.10426317 -11.44566345 21.27415466 C-13.42028631 16.08162789 -13.02100814 9.5755334 -11.69566345 4.27415466 C-8.92803166 -0.1540562 -4.85398067 0.01954472 0 0 Z " fill="#FDFDFD" transform="translate(583.4456634521484,444.72584533691406)"/>
</svg>
