<?xml version="1.0" encoding="UTF-8"?>
<svg version="1.1" xmlns="http://www.w3.org/2000/svg" width="1280" height="1280">
<path d="M0 0 C2.0078125 0.1328125 2.0078125 0.1328125 5.0078125 1.1328125 C8.46504013 1.3915655 11.91637694 1.57569292 15.37890625 1.73828125 C20.90632541 2.03132541 20.90632541 2.03132541 22.0078125 3.1328125 C24.14737735 3.60000538 26.29488798 4.03096805 28.4453125 4.4453125 C35.3802131 5.88329495 41.67889688 7.96835469 48.0078125 11.1328125 C48.0078125 11.7928125 48.0078125 12.4528125 48.0078125 13.1328125 C48.55953125 13.23722656 49.11125 13.34164063 49.6796875 13.44921875 C52.50369759 14.27841634 54.73336166 15.560809 57.2578125 17.0703125 C58.14984375 17.59496094 59.041875 18.11960937 59.9609375 18.66015625 C60.97414063 19.38912109 60.97414063 19.38912109 62.0078125 20.1328125 C62.0078125 20.7928125 62.0078125 21.4528125 62.0078125 22.1328125 C62.6678125 22.1328125 63.3278125 22.1328125 64.0078125 22.1328125 C64.0078125 22.7928125 64.0078125 23.4528125 64.0078125 24.1328125 C64.6059375 24.4009375 65.2040625 24.6690625 65.8203125 24.9453125 C68.00629104 26.13198656 69.42113844 27.22880363 71.0078125 29.1328125 C71.0078125 29.7928125 71.0078125 30.4528125 71.0078125 31.1328125 C71.6678125 31.1328125 72.3278125 31.1328125 73.0078125 31.1328125 C73.0078125 31.7928125 73.0078125 32.4528125 73.0078125 33.1328125 C73.6678125 33.1328125 74.3278125 33.1328125 75.0078125 33.1328125 C75.0078125 33.7928125 75.0078125 34.4528125 75.0078125 35.1328125 C75.6678125 35.1328125 76.3278125 35.1328125 77.0078125 35.1328125 C80.0078125 39.51742788 80.0078125 39.51742788 80.0078125 42.1328125 C80.6678125 42.1328125 81.3278125 42.1328125 82.0078125 42.1328125 C84.05726542 45.77393676 86.04901596 49.44212492 88.0078125 53.1328125 C88.46027344 53.98488281 88.91273438 54.83695312 89.37890625 55.71484375 C92.84199291 62.73811295 94.56896478 69.89948098 96.2109375 77.5078125 C96.92535386 81.0607197 96.92535386 81.0607197 98.0078125 84.1328125 C98.31321919 87.22505526 98.51613561 90.31792969 98.7265625 93.41796875 C98.84277987 96.09663566 98.84277987 96.09663566 100.0078125 98.1328125 C100.12187675 99.80826335 100.17457344 101.48806056 100.19726562 103.16723633 C100.22234192 104.74708061 100.22234192 104.74708061 100.2479248 106.35884094 C100.26150024 107.50757187 100.27507568 108.6563028 100.2890625 109.83984375 C100.30747192 111.03018723 100.32588135 112.2205307 100.34484863 113.44694519 C100.40372992 117.27968267 100.45632618 121.11246904 100.5078125 124.9453125 C100.55975011 128.71030382 100.61323131 132.47524807 100.67077637 136.24015808 C100.7064546 138.58232312 100.73906102 140.92453825 100.7677002 143.26679993 C100.85773225 149.26149721 101.05423268 155.23740652 101.37827492 161.22330856 C102.11333665 174.95703188 102.15355331 188.66729523 102.140625 202.41796875 C102.14130037 204.97912098 102.14227232 207.54027315 102.14352417 210.10142517 C102.14498567 215.42024415 102.1429923 220.73904561 102.13818359 226.05786133 C102.1326972 232.19700954 102.13454365 238.33612476 102.14001 244.47527224 C102.14509184 250.42281752 102.14455968 256.37035256 102.14162827 262.3178997 C102.14096154 264.83494509 102.14177854 267.35199132 102.14410782 269.86903572 C102.1466396 273.36722204 102.14278849 276.8653439 102.13720703 280.36352539 C102.13923126 281.40083801 102.14125549 282.43815063 102.14334106 283.50689697 C102.14052124 284.45808914 102.13770142 285.40928131 102.13479614 286.38929749 C102.1342306 287.62598978 102.1342306 287.62598978 102.13365364 288.88766575 C102.00969817 291.09917008 101.59186367 293.00294543 101.0078125 295.1328125 C100.88879977 296.5638108 100.80872936 297.99842471 100.76171875 299.43359375 C100.71241211 300.65272461 100.71241211 300.65272461 100.66210938 301.89648438 C100.6013379 303.58386264 100.54399682 305.27136825 100.49023438 306.95898438 C100.27988597 311.98750183 99.57489354 316.30877572 98.0078125 321.1328125 C97.78480469 322.02484375 97.56179688 322.916875 97.33203125 323.8359375 C95.6214023 330.67845329 93.094426 336.80379428 90.0078125 343.1328125 C89.71261719 343.78507812 89.41742187 344.43734375 89.11328125 345.109375 C85.31972331 353.25080072 79.97693959 360.67912187 75.0078125 368.1328125 C74.3478125 368.1328125 73.6878125 368.1328125 73.0078125 368.1328125 C73.0078125 368.7928125 73.0078125 369.4528125 73.0078125 370.1328125 C72.3478125 370.1328125 71.6878125 370.1328125 71.0078125 370.1328125 C70.7396875 370.7309375 70.4715625 371.3290625 70.1953125 371.9453125 C69.00863844 374.13129104 67.91182137 375.54613844 66.0078125 377.1328125 C65.3478125 377.1328125 64.6878125 377.1328125 64.0078125 377.1328125 C64.0078125 377.7928125 64.0078125 378.4528125 64.0078125 379.1328125 C63.3478125 379.1328125 62.6878125 379.1328125 62.0078125 379.1328125 C62.0078125 379.7928125 62.0078125 380.4528125 62.0078125 381.1328125 C60.20419399 382.47442036 58.33715817 383.73128147 56.4453125 384.9453125 C52.3495522 387.53435082 52.3495522 387.53435082 48.43457031 390.37963867 C43.37026831 394.36100341 38.02713519 396.054691 31.8828125 397.8203125 C30.34693481 398.27192749 30.34693481 398.27192749 28.7800293 398.73266602 C6.00463948 405.27163402 -15.793194 404.04029711 -37.9921875 396.1328125 C-38.92804688 395.82472656 -39.86390625 395.51664063 -40.828125 395.19921875 C-46.87140944 393.05452001 -51.58944867 389.76026031 -56.64453125 385.83984375 C-58.95950838 383.97584468 -58.95950838 383.97584468 -61.9921875 383.1328125 C-61.9921875 382.4728125 -61.9921875 381.8128125 -61.9921875 381.1328125 C-62.765625 380.7925 -62.765625 380.7925 -63.5546875 380.4453125 C-66.88765755 378.65063632 -70.13922421 376.63316235 -72.9921875 374.1328125 C-72.9921875 373.4728125 -72.9921875 372.8128125 -72.9921875 372.1328125 C-73.6521875 372.1328125 -74.3121875 372.1328125 -74.9921875 372.1328125 C-74.9921875 371.4728125 -74.9921875 370.8128125 -74.9921875 370.1328125 C-75.6521875 370.1328125 -76.3121875 370.1328125 -76.9921875 370.1328125 C-79.9921875 366.67127404 -79.9921875 366.67127404 -79.9921875 364.1328125 C-80.6521875 364.1328125 -81.3121875 364.1328125 -81.9921875 364.1328125 C-81.9921875 363.1428125 -81.9921875 362.1528125 -81.9921875 361.1328125 C-82.6521875 361.1328125 -83.3121875 361.1328125 -83.9921875 361.1328125 C-83.9921875 360.4728125 -83.9921875 359.8128125 -83.9921875 359.1328125 C-84.6521875 359.1328125 -85.3121875 359.1328125 -85.9921875 359.1328125 C-88.03388235 356.22732368 -88.9921875 354.73139204 -88.9921875 351.1328125 C-89.6521875 351.1328125 -90.3121875 351.1328125 -90.9921875 351.1328125 C-94.10478719 345.35051269 -96.57012989 339.77064228 -98.3046875 333.43359375 C-99.00778441 330.87959573 -99.00778441 330.87959573 -100.6171875 327.6328125 C-102.14233706 323.75061363 -102.51549963 320.40131684 -102.78125 316.26953125 C-102.86876462 314.08200892 -102.86876462 314.08200892 -103.9921875 312.1328125 C-104.23831899 308.99179884 -104.41738347 305.87370559 -104.54638672 302.72705078 C-104.60955235 301.21107646 -104.60955235 301.21107646 -104.67399406 299.66447639 C-105.21148195 285.15386849 -105.1381546 270.63266732 -105.126513 256.11442327 C-105.12392955 251.86372668 -105.1263438 247.61303192 -105.12789917 243.36233521 C-105.12970655 236.21665046 -105.12735542 229.07097612 -105.12255859 221.92529297 C-105.11714813 213.77363835 -105.11886096 205.62200889 -105.124385 197.47035491 C-105.12899288 190.3755265 -105.12952916 183.28070545 -105.12694633 176.18587601 C-105.12542111 171.99150632 -105.12508134 167.79714824 -105.12848282 163.60277939 C-105.14084179 145.8698532 -104.9968563 128.15013545 -104.54638672 110.42236328 C-104.5269747 109.60831079 -104.50756268 108.7942583 -104.48756242 107.95553756 C-104.43175876 105.67290146 -104.36915585 103.39056869 -104.30392456 101.10818481 C-104.26811216 99.80639345 -104.23229977 98.50460209 -104.19540215 97.1633625 C-103.9921875 94.1328125 -103.9921875 94.1328125 -102.9921875 92.1328125 C-102.76750919 90.59612385 -102.58421945 89.05313196 -102.4296875 87.5078125 C-102.34589844 86.69054687 -102.26210938 85.87328125 -102.17578125 85.03125 C-102.11519531 84.40476562 -102.05460938 83.77828125 -101.9921875 83.1328125 C-101.3321875 83.1328125 -100.6721875 83.1328125 -99.9921875 83.1328125 C-99.9921875 80.8228125 -99.9921875 78.5128125 -99.9921875 76.1328125 C-99.3321875 76.1328125 -98.6721875 76.1328125 -97.9921875 76.1328125 C-98.06566406 74.62267578 -98.06566406 74.62267578 -98.140625 73.08203125 C-97.9824319 68.87326221 -97.09882174 65.87207146 -95.6171875 61.9453125 C-94.95589844 60.16060547 -94.95589844 60.16060547 -94.28125 58.33984375 C-93.28323741 55.85690939 -92.24546051 53.49294813 -90.9921875 51.1328125 C-90.3321875 51.1328125 -89.6721875 51.1328125 -88.9921875 51.1328125 C-88.0021875 48.1628125 -87.0121875 45.1928125 -85.9921875 42.1328125 C-85.3321875 42.1328125 -84.6721875 42.1328125 -83.9921875 42.1328125 C-83.9921875 41.4728125 -83.9921875 40.8128125 -83.9921875 40.1328125 C-83.3321875 40.1328125 -82.6721875 40.1328125 -81.9921875 40.1328125 C-81.9921875 38.8128125 -81.9921875 37.4928125 -81.9921875 36.1328125 C-81.3321875 36.1328125 -80.6721875 36.1328125 -79.9921875 36.1328125 C-79.7653125 35.58109375 -79.5384375 35.029375 -79.3046875 34.4609375 C-77.60492824 31.44588833 -75.44413934 29.32050881 -72.9921875 26.8828125 C-72.1053125 25.99078125 -71.2184375 25.09875 -70.3046875 24.1796875 C-67.9921875 22.1328125 -67.9921875 22.1328125 -65.9921875 22.1328125 C-65.9921875 21.4728125 -65.9921875 20.8128125 -65.9921875 20.1328125 C-65.3321875 20.1328125 -64.6721875 20.1328125 -63.9921875 20.1328125 C-63.9921875 19.4728125 -63.9921875 18.8128125 -63.9921875 18.1328125 C-63.16074219 17.73449219 -62.32929687 17.33617187 -61.47265625 16.92578125 C-59.84263672 16.13107422 -59.84263672 16.13107422 -58.1796875 15.3203125 C-57.10074219 14.79824219 -56.02179687 14.27617187 -54.91015625 13.73828125 C-52.06065288 12.35160976 -52.06065288 12.35160976 -50.44921875 10.56640625 C-48.39036463 8.54067042 -46.20848911 7.93515203 -43.4921875 7.0078125 C-42.533125 6.67523438 -41.5740625 6.34265625 -40.5859375 6 C-36.93675236 4.77994111 -34.15071372 4.01457299 -30.3046875 4.0703125 C-29.09232422 4.08384766 -29.09232422 4.08384766 -27.85546875 4.09765625 C-26.93314453 4.11505859 -26.93314453 4.11505859 -25.9921875 4.1328125 C-25.9921875 3.4728125 -25.9921875 2.8128125 -25.9921875 2.1328125 C-25.42185791 2.10775635 -24.85152832 2.0827002 -24.26391602 2.05688477 C-21.69392593 1.94124701 -19.12433223 1.81837626 -16.5546875 1.6953125 C-15.20793945 1.63633789 -15.20793945 1.63633789 -13.83398438 1.57617188 C-12.97998047 1.53427734 -12.12597656 1.49238281 -11.24609375 1.44921875 C-10.05995483 1.39423218 -10.05995483 1.39423218 -8.84985352 1.33813477 C-5.85351863 1.00695884 -3.40715316 0.01257252 0 0 Z " fill="#FEFEFE" transform="translate(626.9921875,341.8671875)"/>
<path d="M0 0 C6.624128 3.82306816 10.12620206 12.77177265 12.05297852 19.88183594 C13.01607014 23.83088769 13.63508002 27.77243886 14.1640625 31.8046875 C14.35848826 33.24148291 14.55374912 34.67816551 14.74975586 36.11474609 C14.89935257 37.22036896 14.89935257 37.22036896 15.05197144 38.34832764 C17.44016143 55.78368313 20.37315142 71.56826494 29.05078125 87.18359375 C29.55867188 88.12847656 30.0665625 89.07335937 30.58984375 90.046875 C32.53525025 93.65335935 34.51346289 97.23870319 36.5390625 100.80078125 C36.99667969 101.60773438 37.45429688 102.4146875 37.92578125 103.24609375 C38.33570313 103.95894531 38.745625 104.67179688 39.16796875 105.40625 C40.05078125 107.18359375 40.05078125 107.18359375 40.05078125 109.18359375 C40.71078125 109.18359375 41.37078125 109.18359375 42.05078125 109.18359375 C43.30111722 110.76075614 44.47520167 112.39860697 45.61328125 114.05859375 C49.14347663 119.06024169 52.96483546 123.54741066 57.16796875 127.9921875 C58.8942161 130.00136751 60.00452724 131.76619632 61.05078125 134.18359375 C61.71078125 134.18359375 62.37078125 134.18359375 63.05078125 134.18359375 C63.05078125 134.84359375 63.05078125 135.50359375 63.05078125 136.18359375 C63.62183594 136.43238281 64.19289063 136.68117188 64.78125 136.9375 C67.39132136 138.37056844 69.20976112 140.06427746 71.36328125 142.12109375 C82.66676975 152.442394 94.74310009 160.57932153 109.05078125 166.18359375 C109.05078125 166.84359375 109.05078125 167.50359375 109.05078125 168.18359375 C110.37078125 168.18359375 111.69078125 168.18359375 113.05078125 168.18359375 C113.05078125 168.84359375 113.05078125 169.50359375 113.05078125 170.18359375 C114.59765625 170.33828125 114.59765625 170.33828125 116.17578125 170.49609375 C120.03740435 171.18122043 122.60478229 172.38568125 126.05078125 174.18359375 C128.7865071 174.88266789 128.7865071 174.88266789 131.05078125 175.18359375 C131.05078125 175.84359375 131.05078125 176.50359375 131.05078125 177.18359375 C134.35078125 177.18359375 137.65078125 177.18359375 141.05078125 177.18359375 C141.05078125 177.84359375 141.05078125 178.50359375 141.05078125 179.18359375 C141.994375 179.16039062 142.93796875 179.1371875 143.91015625 179.11328125 C145.1940625 179.09523438 146.47796875 179.0771875 147.80078125 179.05859375 C149.05375 179.03539062 150.30671875 179.0121875 151.59765625 178.98828125 C155.02067318 179.03876474 158.20879939 179.53890488 161.5703125 180.17578125 C168.34831363 181.37566343 175.05180672 181.48645902 181.91381836 181.44433594 C183.98255833 181.43362338 186.0504269 181.44429317 188.11914062 181.45703125 C195.64748621 181.46425809 202.87089685 180.94126443 210.29321289 179.65576172 C213.45699004 179.11404016 216.59853584 178.82447961 219.80078125 178.62109375 C223.2403413 178.67401485 223.2403413 178.67401485 226.05078125 177.18359375 C228.8905066 176.86008074 231.73151862 176.67055085 234.58203125 176.46484375 C236.99214175 176.4497411 236.99214175 176.4497411 238.05078125 175.18359375 C239.18515625 175.08046875 240.31953125 174.97734375 241.48828125 174.87109375 C245.93364346 174.3913784 249.60663561 172.86179233 253.65625 171.0234375 C256.26671382 170.10785883 258.30501077 170.03240568 261.05078125 170.18359375 C261.05078125 169.52359375 261.05078125 168.86359375 261.05078125 168.18359375 C264.18576417 166.3258261 266.42549557 165.98218899 270.05078125 166.18359375 C270.05078125 165.52359375 270.05078125 164.86359375 270.05078125 164.18359375 C273.02078125 163.19359375 275.99078125 162.20359375 279.05078125 161.18359375 C279.05078125 160.52359375 279.05078125 159.86359375 279.05078125 159.18359375 C280.04078125 159.18359375 281.03078125 159.18359375 282.05078125 159.18359375 C282.05078125 158.52359375 282.05078125 157.86359375 282.05078125 157.18359375 C283.37078125 157.18359375 284.69078125 157.18359375 286.05078125 157.18359375 C286.05078125 156.52359375 286.05078125 155.86359375 286.05078125 155.18359375 C290.43539663 152.18359375 290.43539663 152.18359375 293.05078125 152.18359375 C293.05078125 151.52359375 293.05078125 150.86359375 293.05078125 150.18359375 C294.69899369 149.15346098 296.37189684 148.16294299 298.05078125 147.18359375 C303.13909493 143.62502896 307.8201389 139.70661519 312.38671875 135.50390625 C314.05078125 134.18359375 314.05078125 134.18359375 316.05078125 134.18359375 C316.71078125 132.53359375 317.37078125 130.88359375 318.05078125 129.18359375 C318.71078125 129.18359375 319.37078125 129.18359375 320.05078125 129.18359375 C320.05078125 128.52359375 320.05078125 127.86359375 320.05078125 127.18359375 C320.71078125 127.18359375 321.37078125 127.18359375 322.05078125 127.18359375 C322.36015625 126.56484375 322.66953125 125.94609375 322.98828125 125.30859375 C323.67578125 123.93359375 324.36328125 122.55859375 325.05078125 121.18359375 C325.71078125 121.18359375 326.37078125 121.18359375 327.05078125 121.18359375 C327.05078125 120.52359375 327.05078125 119.86359375 327.05078125 119.18359375 C327.71078125 119.18359375 328.37078125 119.18359375 329.05078125 119.18359375 C329.05078125 118.19359375 329.05078125 117.20359375 329.05078125 116.18359375 C329.71078125 116.18359375 330.37078125 116.18359375 331.05078125 116.18359375 C331.38078125 114.86359375 331.71078125 113.54359375 332.05078125 112.18359375 C332.71078125 112.18359375 333.37078125 112.18359375 334.05078125 112.18359375 C334.05078125 111.19359375 334.05078125 110.20359375 334.05078125 109.18359375 C334.71078125 109.18359375 335.37078125 109.18359375 336.05078125 109.18359375 C336.05078125 108.52359375 336.05078125 107.86359375 336.05078125 107.18359375 C336.71078125 107.18359375 337.37078125 107.18359375 338.05078125 107.18359375 C338.05078125 105.86359375 338.05078125 104.54359375 338.05078125 103.18359375 C338.71078125 103.18359375 339.37078125 103.18359375 340.05078125 103.18359375 C340.38078125 101.53359375 340.71078125 99.88359375 341.05078125 98.18359375 C341.71078125 98.18359375 342.37078125 98.18359375 343.05078125 98.18359375 C343.05078125 96.86359375 343.05078125 95.54359375 343.05078125 94.18359375 C343.71078125 94.18359375 344.37078125 94.18359375 345.05078125 94.18359375 C345.05078125 93.19359375 345.05078125 92.20359375 345.05078125 91.18359375 C345.71078125 91.18359375 346.37078125 91.18359375 347.05078125 91.18359375 C347.05078125 89.86359375 347.05078125 88.54359375 347.05078125 87.18359375 C347.71078125 87.18359375 348.37078125 87.18359375 349.05078125 87.18359375 C349.38078125 84.87359375 349.71078125 82.56359375 350.05078125 80.18359375 C350.71078125 80.18359375 351.37078125 80.18359375 352.05078125 80.18359375 C352.19515625 79.44109375 352.33953125 78.69859375 352.48828125 77.93359375 C352.95265617 75.66331636 353.46941694 73.42599896 354.05078125 71.18359375 C354.71078125 71.18359375 355.37078125 71.18359375 356.05078125 71.18359375 C356.17453125 70.29671875 356.29828125 69.40984375 356.42578125 68.49609375 C356.63327304 67.05847204 356.8417887 65.62099806 357.05078125 64.18359375 C357.20804688 63.08660156 357.3653125 61.98960937 357.52734375 60.859375 C357.70007813 59.68761719 357.8728125 58.51585937 358.05078125 57.30859375 C358.21578125 56.17679688 358.38078125 55.045 358.55078125 53.87890625 C359.05078125 51.18359375 359.05078125 51.18359375 360.05078125 50.18359375 C360.28442006 48.33467429 360.4638176 46.47871344 360.61328125 44.62109375 C360.73896484 43.10322266 360.73896484 43.10322266 360.8671875 41.5546875 C360.92777344 40.77222656 360.98835938 39.98976563 361.05078125 39.18359375 C361.71078125 39.18359375 362.37078125 39.18359375 363.05078125 39.18359375 C363.03917969 38.18457031 363.02757812 37.18554688 363.015625 36.15625 C363.00208984 34.22072266 363.00208984 34.22072266 362.98828125 32.24609375 C362.97667969 30.95832031 362.96507812 29.67054688 362.953125 28.34375 C363.05078125 25.18359375 363.05078125 25.18359375 364.05078125 24.18359375 C364.34948395 22.50080332 364.61441727 20.8119733 364.86328125 19.12109375 C366.09942443 12.0704993 368.29226951 5.79040314 374.05078125 1.18359375 C374.71078125 1.18359375 375.37078125 1.18359375 376.05078125 1.18359375 C376.05078125 0.52359375 376.05078125 -0.13640625 376.05078125 -0.81640625 C377.61044717 -1.18285203 379.17370776 -1.53401487 380.73828125 -1.87890625 C381.60839844 -2.07613281 382.47851562 -2.27335938 383.375 -2.4765625 C386.25110023 -2.84184822 388.25032605 -2.49856841 391.05078125 -1.81640625 C392.48618702 -1.61349549 393.92370122 -1.42470388 395.36328125 -1.25390625 C396.58015625 -1.10953125 397.79703125 -0.96515625 399.05078125 -0.81640625 C399.05078125 -0.15640625 399.05078125 0.50359375 399.05078125 1.18359375 C400.37078125 1.18359375 401.69078125 1.18359375 403.05078125 1.18359375 C403.05078125 1.84359375 403.05078125 2.50359375 403.05078125 3.18359375 C403.71078125 3.18359375 404.37078125 3.18359375 405.05078125 3.18359375 C410.87039082 13.75761649 410.29120518 26.36865293 407.78125 37.91015625 C407.05078125 40.18359375 407.05078125 40.18359375 405.63671875 43.39453125 C403.81612583 47.54523837 402.6511883 51.81076975 401.48828125 56.18359375 C401.07051602 57.72531558 400.65255002 59.26698302 400.234375 60.80859375 C400.03384521 61.55044922 399.83331543 62.29230469 399.62670898 63.05664062 C396.91073286 73.08698569 393.24895242 82.68246952 389.05078125 92.18359375 C388.39078125 92.18359375 387.73078125 92.18359375 387.05078125 92.18359375 C386.93476562 92.90546875 386.81875 93.62734375 386.69921875 94.37109375 C385.2729205 100.55744759 381.68011692 106.99882851 378.05078125 112.18359375 C377.39078125 112.18359375 376.73078125 112.18359375 376.05078125 112.18359375 C375.92928711 112.76842529 375.80779297 113.35325684 375.68261719 113.95581055 C375.03686248 116.23266978 374.20065753 117.83377914 372.94140625 119.828125 C372.51601563 120.50552734 372.090625 121.18292969 371.65234375 121.88085938 C371.20632813 122.57888672 370.7603125 123.27691406 370.30078125 123.99609375 C369.65496094 125.02573242 369.65496094 125.02573242 368.99609375 126.07617188 C366.16317818 130.55879427 363.28338884 134.97790531 360.05078125 139.18359375 C359.39078125 139.18359375 358.73078125 139.18359375 358.05078125 139.18359375 C357.798125 139.75335937 357.54546875 140.323125 357.28515625 140.91015625 C354.73167448 145.61308786 350.71269148 149.32227866 347.05078125 153.18359375 C346.53402832 153.72902832 346.01727539 154.27446289 345.48486328 154.83642578 C337.25595203 163.45034383 328.64808394 171.12860306 319.05078125 178.18359375 C317.74173828 179.15039062 317.74173828 179.15039062 316.40625 180.13671875 C293.13632185 196.82791116 267.68521097 209.95369732 239.94213867 217.19311523 C231.82616916 219.34021469 231.82616916 219.34021469 226.05078125 225.18359375 C225.86639339 228.09933102 225.79482972 230.91720838 225.8203125 233.83203125 C225.82077072 234.68157379 225.82122894 235.53111633 225.82170105 236.40640259 C225.82472165 238.20356645 225.83260222 240.00072773 225.8449707 241.79785156 C225.86316529 244.54111066 225.86548072 247.28403075 225.86523438 250.02734375 C225.87015231 251.77474249 225.87598182 253.52213894 225.8828125 255.26953125 C225.88448174 256.49632095 225.88448174 256.49632095 225.88618469 257.74789429 C225.91901092 261.71362362 226.19415518 265.29747744 227.05078125 269.18359375 C227.13848421 270.86418095 227.18135333 272.54759616 227.18359375 274.23046875 C227.18488281 275.15730469 227.18617188 276.08414062 227.1875 277.0390625 C227.18363281 277.99425781 227.17976563 278.94945312 227.17578125 279.93359375 C227.17964844 280.90425781 227.18351562 281.87492187 227.1875 282.875 C227.18556641 284.25751953 227.18556641 284.25751953 227.18359375 285.66796875 C227.18246582 286.51069336 227.18133789 287.35341797 227.18017578 288.22167969 C227.05078125 290.18359375 227.05078125 290.18359375 226.05078125 291.18359375 C225.85907041 292.55801297 225.67245166 293.93314382 225.48828125 295.30859375 C224.43205026 300.32569097 222.10624844 302.59275696 218.21875 305.7734375 C208.84079287 311.87333394 195.8129915 310.44550595 185.05078125 310.18359375 C184.36371094 310.17102539 183.67664063 310.15845703 182.96875 310.14550781 C172.83000524 309.92490457 164.20698475 309.55515759 156.17578125 302.74609375 C145.06606774 289.34908628 150.02359191 263.49482127 150.22216797 247.10498047 C150.26433365 243.41761535 150.28786731 239.73050797 150.30859375 236.04296875 C150.32721466 234.9107489 150.34583557 233.77852905 150.36502075 232.61199951 C150.36847504 231.56280334 150.37192932 230.51360718 150.37548828 229.43261719 C150.38516632 228.51268982 150.39484436 227.59276245 150.40481567 226.6449585 C149.97982584 223.69028819 149.06566718 222.35330724 147.05078125 220.18359375 C143.11936552 218.17635684 138.8252298 217.31981437 134.55078125 216.30859375 C124.2311654 213.78276405 114.28591135 210.97960721 104.6640625 206.3984375 C102.15705329 205.23299675 99.63470962 204.22676578 97.05078125 203.24609375 C87.86375544 199.6146867 79.5397962 194.33626893 71.19140625 189.11328125 C68.99427336 187.76330159 66.80625358 186.48324448 64.5546875 185.234375 C54.82609834 179.71194633 46.14938958 171.82913308 38.05078125 164.18359375 C37.3340625 163.508125 36.61734375 162.83265625 35.87890625 162.13671875 C32.28008627 158.65306101 32.28008627 158.65306101 31.05078125 157.18359375 C31.05078125 156.52359375 31.05078125 155.86359375 31.05078125 155.18359375 C30.39078125 155.18359375 29.73078125 155.18359375 29.05078125 155.18359375 C29.05078125 154.52359375 29.05078125 153.86359375 29.05078125 153.18359375 C28.39078125 153.18359375 27.73078125 153.18359375 27.05078125 153.18359375 C26.39078125 151.53359375 25.73078125 149.88359375 25.05078125 148.18359375 C24.39078125 148.18359375 23.73078125 148.18359375 23.05078125 148.18359375 C20.05078125 144.72205529 20.05078125 144.72205529 20.05078125 142.18359375 C19.39078125 142.18359375 18.73078125 142.18359375 18.05078125 142.18359375 C18.05078125 141.19359375 18.05078125 140.20359375 18.05078125 139.18359375 C17.39078125 139.18359375 16.73078125 139.18359375 16.05078125 139.18359375 C13.75429476 136.62212805 13.05078125 135.70391803 13.05078125 132.18359375 C12.39078125 132.18359375 11.73078125 132.18359375 11.05078125 132.18359375 C11.05078125 131.52359375 11.05078125 130.86359375 11.05078125 130.18359375 C10.39078125 130.18359375 9.73078125 130.18359375 9.05078125 130.18359375 C8.21229321 128.72821807 7.38014191 127.26919002 6.55078125 125.80859375 C6.08671875 124.99648438 5.62265625 124.184375 5.14453125 123.34765625 C4.05078125 121.18359375 4.05078125 121.18359375 4.05078125 119.18359375 C3.39078125 119.18359375 2.73078125 119.18359375 2.05078125 119.18359375 C1.06594017 117.43678082 0.08811938 115.68600865 -0.88671875 113.93359375 C-1.43199219 112.9590625 -1.97726562 111.98453125 -2.5390625 110.98046875 C-3.7153271 108.64748966 -4.47023566 106.73008613 -4.94921875 104.18359375 C-5.60921875 104.18359375 -6.26921875 104.18359375 -6.94921875 104.18359375 C-7.74133804 102.28794949 -8.53289451 100.39207004 -9.32421875 98.49609375 C-9.76507813 97.44035156 -10.2059375 96.38460937 -10.66015625 95.296875 C-11.08554687 94.26949219 -11.5109375 93.24210938 -11.94921875 92.18359375 C-12.33335937 91.31089844 -12.7175 90.43820312 -13.11328125 89.5390625 C-13.94921875 87.18359375 -13.94921875 87.18359375 -13.94921875 83.18359375 C-14.60921875 83.18359375 -15.26921875 83.18359375 -15.94921875 83.18359375 C-16.79433699 81.4601562 -17.62485229 79.72955322 -18.44921875 77.99609375 C-18.91328125 77.03316406 -19.37734375 76.07023438 -19.85546875 75.078125 C-20.94514796 72.19436682 -21.17199399 70.23004514 -20.94921875 67.18359375 C-21.60921875 67.18359375 -22.26921875 67.18359375 -22.94921875 67.18359375 C-24.70669489 62.68006113 -25.14216283 59.00719564 -24.94921875 54.18359375 C-25.60921875 54.18359375 -26.26921875 54.18359375 -26.94921875 54.18359375 C-28.998592 46.40085487 -30.44077122 39.24869543 -29.94921875 31.18359375 C-30.60921875 31.18359375 -31.26921875 31.18359375 -31.94921875 31.18359375 C-31.94921875 24.91359375 -31.94921875 18.64359375 -31.94921875 12.18359375 C-31.28921875 12.18359375 -30.62921875 12.18359375 -29.94921875 12.18359375 C-29.61921875 9.21359375 -29.28921875 6.24359375 -28.94921875 3.18359375 C-28.28921875 3.18359375 -27.62921875 3.18359375 -26.94921875 3.18359375 C-26.94921875 2.52359375 -26.94921875 1.86359375 -26.94921875 1.18359375 C-26.28921875 1.18359375 -25.62921875 1.18359375 -24.94921875 1.18359375 C-24.94921875 0.52359375 -24.94921875 -0.13640625 -24.94921875 -0.81640625 C-16.77079389 -4.54064344 -8.05093212 -3.71087621 0 0 Z " fill="#FDFDFD" transform="translate(436.94921875,637.81640625)"/>
</svg>
